<svg xmlns="http://www.w3.org/2000/svg" viewBox="0 0 1114.03 264.7"><defs><style>.cls-1{fill:#3cb054;fill-rule:evenodd;}.cls-2{fill:#fff;}</style></defs><g id="Layer_2" data-name="Layer 2"><g id="Layer_1-2" data-name="Layer 1"><path class="cls-1" d="M136.87,264.24c-4.42.37-7.93.46-10.07.46C56.82,264.85,0,207.89,0,137.91c0-.56,0-1.13,0-1.69v-1.78H0V0H0c42.47-.66,147.26,8.59,205,89a126.86,126.86,0,0,1,14.83,120.75l0,0c-3.7,9.83-13.56,30.07-39.27,43A98.68,98.68,0,0,1,168,257.89c18.45-70.65-5.67-173-112.85-222.19,65.09,40.35,116.51,142,81.7,228.54Z"/><path class="cls-2" d="M357.55,229.16a10.2,10.2,0,0,1-4.78,3.67,19.26,19.26,0,0,1-7.13,1.21,13.79,13.79,0,0,1-7.31-1.93,12.86,12.86,0,0,1-4.94-5.49,19.05,19.05,0,0,1-1.8-8.26v-2.94q0-7.6,3.56-11.8t10-4.18a12.78,12.78,0,0,1,8.49,2.69,11.78,11.78,0,0,1,3.93,7.65h-4.44q-1.25-6.72-8-6.71a7.87,7.87,0,0,0-6.77,3.13c-1.53,2.1-2.31,5.13-2.32,9.09v2.76q0,5.67,2.59,9a8.4,8.4,0,0,0,7,3.35,15.43,15.43,0,0,0,4.37-.55,6.84,6.84,0,0,0,3.1-1.87v-7.55h-7.8v-3.63h12.22Z"/><path class="cls-2" d="M376.38,212.39a12.65,12.65,0,0,0-2.11-.16,5.63,5.63,0,0,0-5.71,3.58v17.77h-4.28v-25h4.16l.07,2.89a6.67,6.67,0,0,1,6-3.35,4.31,4.31,0,0,1,1.9.32Z"/><path class="cls-2" d="M390.26,234A10.92,10.92,0,0,1,382,230.7a12.41,12.41,0,0,1-3.2-8.94V221a15,15,0,0,1,1.43-6.65,11.06,11.06,0,0,1,4-4.58,10,10,0,0,1,5.54-1.65,9.37,9.37,0,0,1,7.58,3.21q2.71,3.22,2.71,9.21v1.78h-17a8.94,8.94,0,0,0,2.17,6,6.79,6.79,0,0,0,5.26,2.28,7.43,7.43,0,0,0,3.84-.93,9.4,9.4,0,0,0,2.75-2.45l2.62,2Q396.55,234,390.26,234Zm-.53-22.44a5.7,5.7,0,0,0-4.35,1.89,9.18,9.18,0,0,0-2.18,5.28h12.54v-.32a8.11,8.11,0,0,0-1.76-5A5.35,5.35,0,0,0,389.73,211.6Z"/><path class="cls-2" d="M415.36,234a10.9,10.9,0,0,1-8.28-3.34,12.41,12.41,0,0,1-3.2-8.94V221a15,15,0,0,1,1.43-6.65,11,11,0,0,1,4-4.58,10.06,10.06,0,0,1,5.54-1.65,9.37,9.37,0,0,1,7.59,3.21q2.71,3.22,2.71,9.21v1.78h-17a8.84,8.84,0,0,0,2.17,6,6.79,6.79,0,0,0,5.26,2.28,7.43,7.43,0,0,0,3.84-.93,9.53,9.53,0,0,0,2.75-2.45l2.62,2Q421.65,234,415.36,234Zm-.54-22.44a5.69,5.69,0,0,0-4.34,1.89,9.11,9.11,0,0,0-2.18,5.28h12.54v-.32a8.11,8.11,0,0,0-1.76-5A5.37,5.37,0,0,0,414.82,211.6Z"/><path class="cls-2" d="M434.12,208.55l.14,3.15a9.1,9.1,0,0,1,7.49-3.61q7.94,0,8,8.95v16.54h-4.28V217a5.81,5.81,0,0,0-1.24-4,5,5,0,0,0-3.78-1.29,6.19,6.19,0,0,0-3.66,1.11,7.48,7.48,0,0,0-2.45,2.91v17.84h-4.28v-25Z"/><path class="cls-2" d="M493.38,222.89a12.4,12.4,0,0,1-3.94,8.25,13,13,0,0,1-8.83,2.9,11.87,11.87,0,0,1-9.56-4.28q-3.6-4.27-3.6-11.45v-3.24a19.19,19.19,0,0,1,1.68-8.26,12.61,12.61,0,0,1,4.75-5.47,13.26,13.26,0,0,1,7.13-1.9,12.16,12.16,0,0,1,8.6,3,12.52,12.52,0,0,1,3.77,8.29h-4.46c-.39-2.69-1.22-4.64-2.51-5.84a7.58,7.58,0,0,0-5.4-1.81,8,8,0,0,0-6.68,3.15c-1.61,2.1-2.41,5.08-2.41,9v3.26q0,5.49,2.29,8.73a7.39,7.39,0,0,0,6.4,3.24,8.54,8.54,0,0,0,5.68-1.68c1.32-1.12,2.2-3.06,2.63-5.84Z"/><path class="cls-2" d="M510.87,212.39a12.62,12.62,0,0,0-2.1-.16,5.64,5.64,0,0,0-5.72,3.58v17.77h-4.28v-25h4.17l.07,2.89a6.64,6.64,0,0,1,6-3.35,4.31,4.31,0,0,1,1.9.32Z"/><path class="cls-2" d="M523.41,227.31l5.83-18.76h4.58l-10.06,28.89q-2.34,6.26-7.43,6.25l-.81-.07-1.6-.3v-3.47l1.16.09a5.67,5.67,0,0,0,3.39-.88,6.32,6.32,0,0,0,2-3.21l.95-2.55-8.93-24.75h4.67Z"/><path class="cls-2" d="M558.78,221.34a15,15,0,0,1-2.62,9.21,8.36,8.36,0,0,1-7.07,3.49,9.2,9.2,0,0,1-7.18-2.89v12h-4.27V208.55h3.9l.21,2.78a8.82,8.82,0,0,1,7.27-3.24,8.52,8.52,0,0,1,7.13,3.4q2.63,3.39,2.63,9.46Zm-4.28-.48a11,11,0,0,0-1.81-6.69,5.81,5.81,0,0,0-5-2.45,6.3,6.3,0,0,0-5.83,3.45v12a6.3,6.3,0,0,0,5.88,3.43,5.77,5.77,0,0,0,4.89-2.44Q554.5,225.66,554.5,220.86Z"/><path class="cls-2" d="M570,202.49v6.06h4.67v3.31H570V227.4a3.52,3.52,0,0,0,.62,2.26,2.65,2.65,0,0,0,2.13.75,10.06,10.06,0,0,0,2-.28v3.45a12.36,12.36,0,0,1-3.29.46,5.34,5.34,0,0,1-4.32-1.73,7.47,7.47,0,0,1-1.46-4.93V211.86h-4.56v-3.31h4.56v-6.06Z"/><path class="cls-2" d="M578.09,220.83a14.82,14.82,0,0,1,1.45-6.61,10.81,10.81,0,0,1,4-4.54,11,11,0,0,1,5.88-1.59,10.54,10.54,0,0,1,8.27,3.54q3.16,3.54,3.16,9.41v.3a14.94,14.94,0,0,1-1.4,6.56,10.6,10.6,0,0,1-4,4.52,11.1,11.1,0,0,1-6,1.62,10.55,10.55,0,0,1-8.25-3.54,13.57,13.57,0,0,1-3.16-9.37Zm4.31.51a10.7,10.7,0,0,0,1.93,6.69,6.54,6.54,0,0,0,10.35,0q1.92-2.55,1.92-7.16a10.7,10.7,0,0,0-2-6.67,6.25,6.25,0,0,0-5.2-2.56,6.15,6.15,0,0,0-5.11,2.52C583,215.81,582.4,218.21,582.4,221.34Z"/><path class="cls-2" d="M620.08,233.58V211.86h-4v-3.31h4V206a8.53,8.53,0,0,1,2.15-6.22,8.1,8.1,0,0,1,6.08-2.2,11.31,11.31,0,0,1,2.94.39L631,201.4a12.17,12.17,0,0,0-2.31-.21,4.2,4.2,0,0,0-3.22,1.22,5,5,0,0,0-1.13,3.49v2.65h5.34v3.31h-5.34v21.72Z"/><path class="cls-2" d="M633.29,220.83a14.82,14.82,0,0,1,1.44-6.61,10.88,10.88,0,0,1,4-4.54,11,11,0,0,1,5.89-1.59,10.57,10.57,0,0,1,8.27,3.54q3.15,3.54,3.15,9.41v.3a14.8,14.8,0,0,1-1.4,6.56,10.54,10.54,0,0,1-4,4.52,11.07,11.07,0,0,1-6,1.62,10.55,10.55,0,0,1-8.25-3.54,13.57,13.57,0,0,1-3.15-9.37Zm4.3.51a10.7,10.7,0,0,0,1.93,6.69,6.54,6.54,0,0,0,10.35,0q1.92-2.55,1.92-7.16a10.7,10.7,0,0,0-1.95-6.67,6.23,6.23,0,0,0-5.19-2.56,6.16,6.16,0,0,0-5.12,2.52C638.24,215.81,637.59,218.21,637.59,221.34Z"/><path class="cls-2" d="M673.54,212.39a12.65,12.65,0,0,0-2.11-.16,5.63,5.63,0,0,0-5.71,3.58v17.77h-4.28v-25h4.16l.07,2.89a6.67,6.67,0,0,1,6-3.35,4.34,4.34,0,0,1,1.9.32Z"/><path class="cls-2" d="M704.65,233.58a8.71,8.71,0,0,1-.6-2.64,9.53,9.53,0,0,1-7.12,3.1,8.87,8.87,0,0,1-6.08-2.09,6.79,6.79,0,0,1-2.37-5.31,7.05,7.05,0,0,1,3-6.07c2-1.44,4.76-2.17,8.36-2.17H704v-2a4.84,4.84,0,0,0-1.34-3.58,5.41,5.41,0,0,0-4-1.33,6.28,6.28,0,0,0-3.84,1.16,3.41,3.41,0,0,0-1.55,2.8H689a5.87,5.87,0,0,1,1.33-3.62,9.07,9.07,0,0,1,3.61-2.77,12.29,12.29,0,0,1,5-1,9.93,9.93,0,0,1,6.78,2.16,7.81,7.81,0,0,1,2.54,6v11.52a14,14,0,0,0,.88,5.48v.37Zm-7.1-3.26a7.6,7.6,0,0,0,3.82-1,6.35,6.35,0,0,0,2.61-2.71v-5.14h-3.35q-7.87,0-7.87,4.61a3.89,3.89,0,0,0,1.34,3.14A5.16,5.16,0,0,0,697.55,230.32Z"/><path class="cls-2" d="M737.29,218.57q-5.71-1.65-8.31-4a7.71,7.71,0,0,1-2.61-5.91,8.14,8.14,0,0,1,3.18-6.58,12.62,12.62,0,0,1,8.27-2.6,13.71,13.71,0,0,1,6.19,1.34,10.08,10.08,0,0,1,4.21,3.7,9.41,9.41,0,0,1,1.49,5.16h-4.46a6.15,6.15,0,0,0-2-4.82,7.88,7.88,0,0,0-5.48-1.75,8.06,8.06,0,0,0-5.12,1.45,4.81,4.81,0,0,0-1.84,4,4.33,4.33,0,0,0,1.75,3.48,17.08,17.08,0,0,0,5.94,2.61,27.56,27.56,0,0,1,6.57,2.61,9.93,9.93,0,0,1,3.52,3.32,8.48,8.48,0,0,1,1.14,4.46,7.86,7.86,0,0,1-3.19,6.56,13.63,13.63,0,0,1-8.54,2.46,15.74,15.74,0,0,1-6.47-1.33,10.93,10.93,0,0,1-4.64-3.64,8.86,8.86,0,0,1-1.63-5.25h4.46a5.79,5.79,0,0,0,2.26,4.82,9.48,9.48,0,0,0,6,1.77,8.74,8.74,0,0,0,5.39-1.43,4.67,4.67,0,0,0,1.88-3.91,4.57,4.57,0,0,0-1.74-3.83A19.74,19.74,0,0,0,737.29,218.57Z"/><path class="cls-2" d="M770.25,231.1q-2.49,2.94-7.33,2.94a7.75,7.75,0,0,1-6.09-2.32c-1.4-1.55-2.1-3.85-2.12-6.88V208.55H759v16.17q0,5.68,4.63,5.69,4.9,0,6.52-3.65V208.55h4.28v25h-4.07Z"/><path class="cls-2" d="M795.49,226.94a3.14,3.14,0,0,0-1.3-2.69,12.57,12.57,0,0,0-4.56-1.66,21.73,21.73,0,0,1-5.16-1.66,7.34,7.34,0,0,1-2.82-2.32,5.52,5.52,0,0,1-.92-3.19,6.47,6.47,0,0,1,2.61-5.2,10.14,10.14,0,0,1,6.65-2.13,10.47,10.47,0,0,1,6.9,2.19,7,7,0,0,1,2.65,5.63h-4.3a3.85,3.85,0,0,0-1.49-3A5.6,5.6,0,0,0,790,211.6a5.85,5.85,0,0,0-3.66,1,3.21,3.21,0,0,0-1.32,2.66,2.61,2.61,0,0,0,1.23,2.34,15.28,15.28,0,0,0,4.43,1.5,23.13,23.13,0,0,1,5.19,1.71,7.56,7.56,0,0,1,2.95,2.4,5.88,5.88,0,0,1,1,3.41,6.4,6.4,0,0,1-2.68,5.38,11.25,11.25,0,0,1-7,2,12.57,12.57,0,0,1-5.32-1.06,8.56,8.56,0,0,1-3.62-3,7.07,7.07,0,0,1-1.31-4.12h4.28a4.44,4.44,0,0,0,1.72,3.41,6.7,6.7,0,0,0,4.25,1.26,6.92,6.92,0,0,0,3.89-1A3,3,0,0,0,795.49,226.94Z"/><path class="cls-2" d="M811.15,202.49v6.06h4.68v3.31h-4.68V227.4a3.46,3.46,0,0,0,.63,2.26,2.63,2.63,0,0,0,2.13.75,10,10,0,0,0,2-.28v3.45a12.29,12.29,0,0,1-3.28.46,5.34,5.34,0,0,1-4.33-1.73,7.47,7.47,0,0,1-1.46-4.93V211.86h-4.55v-3.31h4.55v-6.06Z"/><path class="cls-2" d="M836.28,233.58a9,9,0,0,1-.61-2.64,9.51,9.51,0,0,1-7.12,3.1,8.85,8.85,0,0,1-6.07-2.09,6.79,6.79,0,0,1-2.37-5.31,7.07,7.07,0,0,1,3-6.07c2-1.44,4.77-2.17,8.36-2.17h4.16v-2a4.8,4.8,0,0,0-1.34-3.58,5.4,5.4,0,0,0-4-1.33,6.24,6.24,0,0,0-3.84,1.16,3.39,3.39,0,0,0-1.55,2.8h-4.31a5.94,5.94,0,0,1,1.33-3.62,9.07,9.07,0,0,1,3.61-2.77,12.29,12.29,0,0,1,5-1,9.91,9.91,0,0,1,6.78,2.16,7.81,7.81,0,0,1,2.54,6v11.52a14.22,14.22,0,0,0,.88,5.48v.37Zm-7.11-3.26a7.54,7.54,0,0,0,3.82-1,6.29,6.29,0,0,0,2.61-2.71v-5.14h-3.35q-7.86,0-7.86,4.61a3.86,3.86,0,0,0,1.34,3.14A5.12,5.12,0,0,0,829.17,230.32Z"/><path class="cls-2" d="M846.61,201.91a2.59,2.59,0,0,1,.64-1.76,2.37,2.37,0,0,1,1.89-.71,2.4,2.4,0,0,1,1.89.71,2.51,2.51,0,0,1,.65,1.76,2.65,2.65,0,0,1-4.43,1.74A2.52,2.52,0,0,1,846.61,201.91Zm4.63,31.67H847v-25h4.28Z"/><path class="cls-2" d="M862.14,208.55l.14,3.15a9.1,9.1,0,0,1,7.49-3.61q7.93,0,8,8.95v16.54H873.5V217a5.81,5.81,0,0,0-1.24-4,5,5,0,0,0-3.78-1.29,6.19,6.19,0,0,0-3.66,1.11,7.48,7.48,0,0,0-2.45,2.91v17.84h-4.28v-25Z"/><path class="cls-2" d="M899.68,233.58a8.71,8.71,0,0,1-.6-2.64A9.53,9.53,0,0,1,892,234a8.87,8.87,0,0,1-6.07-2.09,6.79,6.79,0,0,1-2.37-5.31,7.07,7.07,0,0,1,3-6.07c2-1.44,4.77-2.17,8.37-2.17H899v-2a4.84,4.84,0,0,0-1.34-3.58,5.43,5.43,0,0,0-4-1.33,6.28,6.28,0,0,0-3.84,1.16,3.41,3.41,0,0,0-1.55,2.8H884a5.87,5.87,0,0,1,1.33-3.62A9.07,9.07,0,0,1,889,209.1a12.29,12.29,0,0,1,5-1,9.93,9.93,0,0,1,6.78,2.16,7.81,7.81,0,0,1,2.54,6v11.52a14,14,0,0,0,.88,5.48v.37Zm-7.1-3.26a7.6,7.6,0,0,0,3.82-1,6.35,6.35,0,0,0,2.61-2.71v-5.14h-3.35q-7.87,0-7.87,4.61a3.89,3.89,0,0,0,1.34,3.14A5.16,5.16,0,0,0,892.58,230.32Z"/><path class="cls-2" d="M931.19,221.34q0,5.74-2.64,9.22a8.43,8.43,0,0,1-7.08,3.48,8.74,8.74,0,0,1-7.33-3.35l-.21,2.89H910V198.05h4.28V211.3a8.67,8.67,0,0,1,7.15-3.21,8.51,8.51,0,0,1,7.16,3.44q2.6,3.45,2.6,9.44Zm-4.28-.48a11.54,11.54,0,0,0-1.69-6.76,5.6,5.6,0,0,0-4.86-2.38,6.28,6.28,0,0,0-6.08,3.93v10.83a6.45,6.45,0,0,0,6.13,3.93A5.57,5.57,0,0,0,925.2,228Q926.91,225.65,926.91,220.86Z"/><path class="cls-2" d="M941.23,233.58H937V198.05h4.28Z"/><path class="cls-2" d="M958.46,234a10.93,10.93,0,0,1-8.28-3.34,12.4,12.4,0,0,1-3.19-8.94V221a15,15,0,0,1,1.42-6.65,11.13,11.13,0,0,1,4-4.58,10,10,0,0,1,5.54-1.65,9.4,9.4,0,0,1,7.59,3.21q2.7,3.22,2.7,9.21v1.78h-17a8.89,8.89,0,0,0,2.16,6,6.79,6.79,0,0,0,5.26,2.28,7.43,7.43,0,0,0,3.84-.93,9.56,9.56,0,0,0,2.76-2.45l2.61,2Q964.75,234,958.46,234Zm-.53-22.44a5.7,5.7,0,0,0-4.35,1.89,9.11,9.11,0,0,0-2.17,5.28h12.53v-.32a8.17,8.17,0,0,0-1.75-5A5.37,5.37,0,0,0,957.93,211.6Z"/><path class="cls-2" d="M1004.15,218.7H990v14.88h-4.44V199.9h20.87v3.63H990v11.54h14.14Z"/><path class="cls-2" d="M1026,231.1q-2.51,2.94-7.33,2.94a7.79,7.79,0,0,1-6.1-2.32c-1.39-1.55-2.1-3.85-2.11-6.88V208.55h4.28v16.17q0,5.68,4.62,5.69c3.27,0,5.45-1.22,6.52-3.65V208.55h4.28v25h-4.07Z"/><path class="cls-2" d="M1042.5,202.49v6.06h4.67v3.31h-4.67V227.4a3.46,3.46,0,0,0,.63,2.26,2.61,2.61,0,0,0,2.12.75,10.06,10.06,0,0,0,2-.28v3.45a12.36,12.36,0,0,1-3.29.46,5.34,5.34,0,0,1-4.32-1.73,7.47,7.47,0,0,1-1.46-4.93V211.86h-4.56v-3.31h4.56v-6.06Z"/><path class="cls-2" d="M1067.62,231.1c-1.66,2-4.11,2.94-7.33,2.94a7.79,7.79,0,0,1-6.1-2.32c-1.39-1.55-2.1-3.85-2.11-6.88V208.55h4.28v16.17q0,5.68,4.62,5.69,4.9,0,6.53-3.65V208.55h4.28v25h-4.07Z"/><path class="cls-2" d="M1090.39,212.39a12.65,12.65,0,0,0-2.11-.16,5.63,5.63,0,0,0-5.71,3.58v17.77h-4.28v-25h4.16l.07,2.89a6.65,6.65,0,0,1,6-3.35,4.37,4.37,0,0,1,1.9.32Z"/><path class="cls-2" d="M1104.26,234a10.93,10.93,0,0,1-8.28-3.34,12.4,12.4,0,0,1-3.19-8.94V221a15,15,0,0,1,1.42-6.65,11.13,11.13,0,0,1,4-4.58,10,10,0,0,1,5.54-1.65,9.37,9.37,0,0,1,7.59,3.21c1.8,2.15,2.71,5.22,2.71,9.21v1.78h-17a8.89,8.89,0,0,0,2.16,6,6.81,6.81,0,0,0,5.27,2.28,7.43,7.43,0,0,0,3.84-.93,9.66,9.66,0,0,0,2.75-2.45l2.61,2Q1110.55,234,1104.26,234Zm-.53-22.44a5.73,5.73,0,0,0-4.35,1.89,9.17,9.17,0,0,0-2.17,5.28h12.54v-.32a8.17,8.17,0,0,0-1.76-5A5.37,5.37,0,0,0,1103.73,211.6Z"/><path class="cls-2" d="M331.59,174.65V36.31h61.86q21,0,33.6,12.06t12.65,31q0,18.38-12.65,30.43t-33.6,12.06H355.31v52.76Zm58.3-118.38H355.31v46.25H389.7q12.45,0,19.27-6.42t6.81-16.9q0-10.08-6.71-16.5T389.89,56.27Z"/><path class="cls-2" d="M542.86,162a65.86,65.86,0,0,1-18.48,11.06,58.48,58.48,0,0,1-20.85,3.56,50,50,0,0,1-19.76-3.95,48.56,48.56,0,0,1-16-10.87,52.69,52.69,0,0,1-14.62-36.56A55.28,55.28,0,0,1,456.79,105a49.71,49.71,0,0,1,10.08-16.21,47.09,47.09,0,0,1,34.49-14.72,45.1,45.1,0,0,1,33.5,14.43,48.9,48.9,0,0,1,9.78,16.1,57.33,57.33,0,0,1,3.56,20.46v5.53H475.07a31.16,31.16,0,0,0,10,19.37,28.17,28.17,0,0,0,19.67,7.71,35.23,35.23,0,0,0,13.14-2.47,28.72,28.72,0,0,0,10.37-6.82Zm-41.7-69.77A23.21,23.21,0,0,0,484.36,99q-6.92,6.72-8.89,18h51.58a32.43,32.43,0,0,0-9-17.79A23.21,23.21,0,0,0,501.16,92.24Z"/><path class="cls-2" d="M656.69,162a65.86,65.86,0,0,1-18.48,11.06,58.48,58.48,0,0,1-20.85,3.56,50,50,0,0,1-19.76-3.95,48.67,48.67,0,0,1-16-10.87A52.69,52.69,0,0,1,567,125.25,55.49,55.49,0,0,1,570.62,105,49.71,49.71,0,0,1,580.7,88.78a47.09,47.09,0,0,1,34.49-14.72,45.06,45.06,0,0,1,33.5,14.43,48.9,48.9,0,0,1,9.78,16.1A57.33,57.33,0,0,1,662,125.05v5.53H588.9a31.12,31.12,0,0,0,10,19.37,28.12,28.12,0,0,0,19.66,7.71,35.23,35.23,0,0,0,13.14-2.47,28.84,28.84,0,0,0,10.38-6.82ZM615,92.24A23.21,23.21,0,0,0,598.19,99q-6.91,6.72-8.89,18h51.58a32.37,32.37,0,0,0-9-17.79A23.21,23.21,0,0,0,615,92.24Z"/><path class="cls-2" d="M684.76,174.65v-99h22.33V97.18q3.95-11.27,11-17.29a24.23,24.23,0,0,1,16.3-6,46.77,46.77,0,0,1,4.94.6A26.07,26.07,0,0,1,744,75.84V95.4a23.89,23.89,0,0,0-5.83-1.77,35.36,35.36,0,0,0-6.42-.6,25.46,25.46,0,0,0-14.43,4.35,29.83,29.83,0,0,0-10.27,12.06v65.21Z"/><path class="cls-2" d="M804.52,156.87a32.4,32.4,0,0,0,13.34-2.77,28.21,28.21,0,0,0,10.57-8.1l13.44,13.44A49.69,49.69,0,0,1,824.68,172a51.81,51.81,0,0,1-21.54,4.64,49.35,49.35,0,0,1-35.58-14.82A50.52,50.52,0,0,1,757,145.4a53,53,0,0,1-3.85-20.15A52.27,52.27,0,0,1,757,105.19a49.44,49.44,0,0,1,46.15-30.93A55.86,55.86,0,0,1,825,78.61a50.11,50.11,0,0,1,17.69,12.25l-13.83,14.43a36,36,0,0,0-11.46-8.7,31.25,31.25,0,0,0-13.44-3,26.15,26.15,0,0,0-20.16,9.19q-8.29,9.18-8.3,22.43,0,13.44,8.3,22.53A26.93,26.93,0,0,0,804.52,156.87Z"/><path class="cls-2" d="M853.53,125.25A53,53,0,0,1,857.38,105a50.49,50.49,0,0,1,10.48-16.21A48.52,48.52,0,0,1,883.67,78a51.17,51.17,0,0,1,39.43,0,50,50,0,0,1,15.81,10.77A48.54,48.54,0,0,1,949.38,105a54.11,54.11,0,0,1,3.76,20.26,53.53,53.53,0,0,1-3.86,20.35,50.34,50.34,0,0,1-10.47,16.31A48.73,48.73,0,0,1,923,172.68a50.93,50.93,0,0,1-39.33,0,47.71,47.71,0,0,1-15.81-10.87,51.62,51.62,0,0,1-10.48-16.31A53,53,0,0,1,853.53,125.25Zm49.8,32a25,25,0,0,0,19.87-9.09q7.8-9.09,7.8-22.73,0-14-7.9-23.12a26.14,26.14,0,0,0-39.63,0q-7.8,9.09-7.8,23.12,0,13.84,7.8,22.83A25.13,25.13,0,0,0,903.33,157.26Z"/><path class="cls-2" d="M987.32,55.48a13.47,13.47,0,0,1-9.78-3.95,13,13,0,0,1-4-9.68,13.28,13.28,0,0,1,4.15-9.69A13.31,13.31,0,0,1,987.32,28a13.53,13.53,0,0,1,9.89,4.15,13.32,13.32,0,0,1,4.15,9.69,13,13,0,0,1-4.05,9.68A13.74,13.74,0,0,1,987.32,55.48Zm11.27,20.16v99H976.26v-99Z"/><path class="cls-2" d="M1026.06,174.65v-99h22.33V91.85a38.7,38.7,0,0,1,13.54-13.24,35.6,35.6,0,0,1,17.89-4.55q15,0,24.6,10t9.59,25.4v65.21h-22.34V115.76q0-10.67-5.93-17.19t-15.81-6.52a24.31,24.31,0,0,0-12.15,3.06,28.25,28.25,0,0,0-9.39,8.79v70.75Z"/></g></g></svg>