<?xml version="1.0" encoding="UTF-8" standalone="no"?><!DOCTYPE svg PUBLIC "-//W3C//DTD SVG 1.1//EN" "http://www.w3.org/Graphics/SVG/1.1/DTD/svg11.dtd"><svg width="100%" height="100%" viewBox="0 0 200 200" version="1.1" xmlns="http://www.w3.org/2000/svg" xmlns:xlink="http://www.w3.org/1999/xlink" xml:space="preserve" xmlns:serif="http://www.serif.com/" style="fill-rule:evenodd;clip-rule:evenodd;stroke-miterlimit:1.5;"><rect id="help" x="0" y="0" width="200" height="200" style="fill:none;"/><g id="help1" serif:id="help"><path d="M129.196,140.549c-8.217,5.922 -18.302,9.412 -29.196,9.412c-10.904,0 -20.997,-3.497 -29.218,-9.429m69.774,-69.775c5.941,8.221 9.444,18.317 9.444,29.223c0,10.927 -3.516,21.04 -9.477,29.269m-81.063,-0.023c-5.951,-8.225 -9.46,-18.329 -9.46,-29.246c0,-10.896 3.496,-20.983 9.427,-29.2m11.309,-11.318c8.229,-5.952 18.34,-9.462 29.264,-9.462c10.914,0 21.016,3.503 29.241,9.445" style="fill:none;stroke:#fff;stroke-width:16px;"/></g></svg>