<svg xmlns="http://www.w3.org/2000/svg" viewBox="0 0 1153.18 1329.78"><defs><style>.cls-1{fill:#3cb054;}.cls-1,.cls-2{fill-rule:evenodd;}.cls-2{fill:#fff;}</style></defs><g id="Layer_2" data-name="Layer 2"><g id="Layer_1-2" data-name="Layer 1"><path class="cls-1" d="M576.59,0c262.35,0,475.35,213,475.35,475.36s-213,475.35-475.35,475.35-475.36-213-475.36-475.35S314.23,0,576.59,0Z"/><path class="cls-2" d="M641.2,727.73c-8.47.72-15.17.88-19.28.89C488,728.89,379.23,619.88,379.23,485.93c0-1.07,0-2.15,0-3.22V479.3h0V222h0c81.29-1.27,281.85,16.44,392.46,170.29a242.79,242.79,0,0,1,28.38,231.1l-.08-.06c-7.09,18.81-26,57.55-75.17,82.22a190.66,190.66,0,0,1-24,10c35.33-135.23-10.85-331.14-216-425.28C609.42,367.54,707.83,562,641.2,727.73Z"/><path d="M38.25,1308.37a15.09,15.09,0,0,1-7,5.4,28.46,28.46,0,0,1-10.51,1.79,20.49,20.49,0,0,1-10.78-2.84,19.06,19.06,0,0,1-7.28-8.1A28.12,28.12,0,0,1,0,1292.45v-4.33q0-11.22,5.23-17.39T20,1264.56q7.77,0,12.51,4t5.79,11.27H31.71q-1.84-9.88-11.73-9.89-6.59,0-10,4.62t-3.43,13.4V1292q0,8.35,3.82,13.29a12.36,12.36,0,0,0,10.33,4.93,22.59,22.59,0,0,0,6.44-.82,9.93,9.93,0,0,0,4.57-2.75v-11.12H20.25v-5.36h18Z"/><path d="M66,1283.65a18.67,18.67,0,0,0-3.1-.24q-6.19,0-8.42,5.29v26.18H48.17V1278h6.14l.1,4.26a9.83,9.83,0,0,1,8.8-4.94,6.36,6.36,0,0,1,2.79.48Z"/><path d="M86.46,1315.56a16.11,16.11,0,0,1-12.2-4.92q-4.71-4.94-4.71-13.18v-1.16a22.08,22.08,0,0,1,2.1-9.8,16.31,16.31,0,0,1,5.86-6.75,14.7,14.7,0,0,1,8.17-2.44q7.18,0,11.18,4.74t4,13.57v2.62h-25a13,13,0,0,0,3.19,8.81,10,10,0,0,0,7.75,3.36,11,11,0,0,0,5.66-1.36,14.18,14.18,0,0,0,4.06-3.61l3.85,3Q95.74,1315.57,86.46,1315.56Zm-.78-33.07a8.41,8.41,0,0,0-6.41,2.78,13.49,13.49,0,0,0-3.21,7.79H94.54v-.48a12,12,0,0,0-2.59-7.45A7.93,7.93,0,0,0,85.68,1282.49Z"/><path d="M123.45,1315.56a16.11,16.11,0,0,1-12.2-4.92q-4.71-4.94-4.71-13.18v-1.16a22.08,22.08,0,0,1,2.1-9.8,16.31,16.31,0,0,1,5.86-6.75,14.72,14.72,0,0,1,8.17-2.44q7.18,0,11.18,4.74t4,13.57v2.62h-25a13,13,0,0,0,3.19,8.81,10,10,0,0,0,7.75,3.36,11,11,0,0,0,5.66-1.36,14.18,14.18,0,0,0,4.06-3.61l3.85,3Q132.73,1315.57,123.45,1315.56Zm-.78-33.07a8.42,8.42,0,0,0-6.41,2.78,13.49,13.49,0,0,0-3.21,7.79h18.48v-.48a12,12,0,0,0-2.59-7.45A7.92,7.92,0,0,0,122.67,1282.49Z"/><path d="M151.1,1278l.21,4.64a13.42,13.42,0,0,1,11-5.32q11.7,0,11.8,13.19v24.38h-6.31v-24.41q0-4-1.82-5.9c-1.2-1.27-3.05-1.91-5.58-1.91a9.09,9.09,0,0,0-5.38,1.64,11.14,11.14,0,0,0-3.62,4.29v26.29h-6.3V1278Z"/><path d="M238.45,1299.13q-.91,7.88-5.81,12.15t-13,4.28a17.5,17.5,0,0,1-14.1-6.31q-5.29-6.3-5.3-16.87v-4.77a28.27,28.27,0,0,1,2.47-12.18,18.52,18.52,0,0,1,7-8.06,19.45,19.45,0,0,1,10.5-2.81q7.9,0,12.68,4.41t5.56,12.23h-6.58q-.85-6-3.7-8.62t-8-2.67a11.74,11.74,0,0,0-9.84,4.64q-3.56,4.65-3.56,13.21v4.81q0,8.09,3.38,12.86a10.88,10.88,0,0,0,9.44,4.78c3.64,0,6.43-.83,8.37-2.47s3.23-4.52,3.87-8.61Z"/><path d="M264.22,1283.65a18.67,18.67,0,0,0-3.1-.24q-6.19,0-8.42,5.29v26.18h-6.31V1278h6.14l.1,4.26a9.83,9.83,0,0,1,8.8-4.94,6.36,6.36,0,0,1,2.79.48Z"/><path d="M282.7,1305.64l8.6-27.65h6.75l-14.83,42.58q-3.45,9.21-11,9.21l-1.19-.1-2.36-.45v-5.11l1.71.13a8.39,8.39,0,0,0,5-1.29,9.28,9.28,0,0,0,2.95-4.74l1.4-3.75L266.61,1278h6.89Z"/><path d="M334.83,1296.84q0,8.43-3.85,13.57a12.34,12.34,0,0,1-10.43,5.15q-6.72,0-10.57-4.26v17.76h-6.31V1278h5.76l.31,4.09q3.86-4.77,10.7-4.77a12.57,12.57,0,0,1,10.52,5q3.87,5,3.87,14Zm-6.31-.71q0-6.24-2.66-9.85a8.56,8.56,0,0,0-7.29-3.62,9.28,9.28,0,0,0-8.59,5.08v17.63a9.28,9.28,0,0,0,8.66,5,8.55,8.55,0,0,0,7.21-3.59Q328.52,1303.22,328.52,1296.13Z"/><path d="M351.4,1269.06V1278h6.89v4.88H351.4v22.9a5.15,5.15,0,0,0,.92,3.33,3.87,3.87,0,0,0,3.14,1.11,15.64,15.64,0,0,0,3-.41v5.08a18.51,18.51,0,0,1-4.84.68q-4.23,0-6.38-2.56t-2.15-7.26v-22.87h-6.71V1278h6.71v-8.93Z"/><path d="M363.3,1296.09a21.81,21.81,0,0,1,2.13-9.75,16,16,0,0,1,5.93-6.68,16.16,16.16,0,0,1,8.68-2.35,15.58,15.58,0,0,1,12.19,5.21q4.65,5.22,4.65,13.88v.44a22,22,0,0,1-2.06,9.67,15.76,15.76,0,0,1-5.9,6.67,16.33,16.33,0,0,1-8.81,2.38,15.56,15.56,0,0,1-12.16-5.21q-4.65-5.22-4.65-13.81Zm6.34.75q0,6.15,2.85,9.86a9.65,9.65,0,0,0,15.25,0q2.83-3.76,2.84-10.56a15.75,15.75,0,0,0-2.89-9.83,9.16,9.16,0,0,0-7.65-3.77,9,9,0,0,0-7.53,3.72Q369.65,1289.92,369.64,1296.84Z"/><path d="M425.18,1314.88v-32h-5.83V1278h5.83v-3.78q0-5.94,3.17-9.18t9-3.23a16.89,16.89,0,0,1,4.33.57l-.34,5.09a17.75,17.75,0,0,0-3.42-.31,6.13,6.13,0,0,0-4.73,1.8,7.23,7.23,0,0,0-1.67,5.14v3.9h7.87v4.88h-7.87v32Z"/><path d="M444.64,1296.09a21.82,21.82,0,0,1,2.14-9.75,15.89,15.89,0,0,1,5.93-6.68,16.1,16.1,0,0,1,8.67-2.35,15.57,15.57,0,0,1,12.19,5.21q4.67,5.22,4.66,13.88v.44a21.9,21.9,0,0,1-2.07,9.67,15.74,15.74,0,0,1-5.89,6.67,16.37,16.37,0,0,1-8.82,2.38,15.53,15.53,0,0,1-12.15-5.21q-4.65-5.22-4.66-13.81Zm6.35.75q0,6.15,2.84,9.86a9.66,9.66,0,0,0,15.26,0q2.84-3.76,2.83-10.56a15.75,15.75,0,0,0-2.88-9.83,9.16,9.16,0,0,0-7.66-3.77,9.05,9.05,0,0,0-7.53,3.72Q451,1289.92,451,1296.84Z"/><path d="M504,1283.65a18.85,18.85,0,0,0-3.1-.24q-6.21,0-8.43,5.29v26.18h-6.3V1278h6.13l.11,4.26a9.83,9.83,0,0,1,8.79-4.94,6.44,6.44,0,0,1,2.8.48Z"/><path d="M549.82,1314.88a13.51,13.51,0,0,1-.88-3.89,14.05,14.05,0,0,1-10.5,4.57,13,13,0,0,1-9-3.08,10,10,0,0,1-3.5-7.83,10.44,10.44,0,0,1,4.38-9c2.93-2.12,7-3.19,12.33-3.19h6.14v-2.89a7.08,7.08,0,0,0-2-5.27q-2-2-5.83-2a9.23,9.23,0,0,0-5.66,1.7,5,5,0,0,0-2.29,4.13h-6.34a8.77,8.77,0,0,1,2-5.34,13.44,13.44,0,0,1,5.32-4.07,17.9,17.9,0,0,1,7.38-1.5q6.38,0,10,3.19a11.48,11.48,0,0,1,3.75,8.78v17a20.62,20.62,0,0,0,1.3,8.08v.55Zm-10.46-4.81a11.07,11.07,0,0,0,5.62-1.53,9.31,9.31,0,0,0,3.86-4V1297h-5q-11.6,0-11.59,6.79a5.73,5.73,0,0,0,2,4.63A7.57,7.57,0,0,0,539.36,1310.07Z"/><path d="M597.93,1292.75q-8.41-2.41-12.26-6a11.37,11.37,0,0,1-3.83-8.71,12,12,0,0,1,4.69-9.7q4.68-3.83,12.18-3.83a20.44,20.44,0,0,1,9.12,2A15.05,15.05,0,0,1,614,1272a14,14,0,0,1,2.2,7.6h-6.58a9.09,9.09,0,0,0-2.87-7.1c-1.9-1.72-4.6-2.58-8.08-2.58q-4.83,0-7.55,2.14a7.12,7.12,0,0,0-2.71,5.92,6.4,6.4,0,0,0,2.58,5.14q2.57,2.1,8.76,3.84a41,41,0,0,1,9.68,3.84,14.62,14.62,0,0,1,5.18,4.9,12.42,12.42,0,0,1,1.69,6.58,11.6,11.6,0,0,1-4.7,9.66q-4.71,3.63-12.59,3.63a23.27,23.27,0,0,1-9.54-2,16.08,16.08,0,0,1-6.84-5.37,13.11,13.11,0,0,1-2.4-7.74h6.58a8.57,8.57,0,0,0,3.32,7.11q3.33,2.61,8.88,2.61,5.19,0,8-2.12a6.84,6.84,0,0,0,2.76-5.76,6.73,6.73,0,0,0-2.56-5.64Q604.65,1294.69,597.93,1292.75Z"/><path d="M646.51,1311.23q-3.68,4.33-10.8,4.33-5.91,0-9-3.42c-2.05-2.29-3.1-5.67-3.12-10.15v-24h6.31v23.83q0,8.39,6.82,8.39,7.23,0,9.61-5.39V1278h6.31v36.89h-6Z"/><path d="M683.71,1305.1a4.65,4.65,0,0,0-1.93-4q-1.92-1.41-6.71-2.44a31.49,31.49,0,0,1-7.61-2.45,10.82,10.82,0,0,1-4.16-3.41,8.19,8.19,0,0,1-1.34-4.7,9.57,9.57,0,0,1,3.83-7.67,15,15,0,0,1,9.8-3.14q6.28,0,10.18,3.24a10.29,10.29,0,0,1,3.9,8.28h-6.34a5.68,5.68,0,0,0-2.2-4.46,8.23,8.23,0,0,0-5.54-1.88,8.6,8.6,0,0,0-5.38,1.5,4.72,4.72,0,0,0-2,3.92,3.83,3.83,0,0,0,1.81,3.44,21.91,21.91,0,0,0,6.53,2.22,34.53,34.53,0,0,1,7.65,2.52,11.18,11.18,0,0,1,4.35,3.53,8.71,8.71,0,0,1,1.42,5,9.44,9.44,0,0,1-4,7.93q-4,3-10.26,3A18.47,18.47,0,0,1,668,1314a12.68,12.68,0,0,1-5.34-4.38,10.56,10.56,0,0,1-1.92-6.08H667a6.52,6.52,0,0,0,2.54,5,9.86,9.86,0,0,0,6.26,1.86,10.11,10.11,0,0,0,5.74-1.45A4.42,4.42,0,0,0,683.71,1305.1Z"/><path d="M706.79,1269.06V1278h6.89v4.88h-6.89v22.9a5.15,5.15,0,0,0,.92,3.33,3.89,3.89,0,0,0,3.14,1.11,15.54,15.54,0,0,0,3-.41v5.08a18.46,18.46,0,0,1-4.84.68q-4.23,0-6.38-2.56t-2.15-7.26v-22.87h-6.71V1278h6.71v-8.93Z"/><path d="M743.82,1314.88a13.1,13.1,0,0,1-.89-3.89,14.05,14.05,0,0,1-10.5,4.57,13,13,0,0,1-8.95-3.08,10,10,0,0,1-3.5-7.83,10.45,10.45,0,0,1,4.39-9q4.38-3.18,12.32-3.19h6.14v-2.89a7.08,7.08,0,0,0-2-5.27q-2-2-5.83-2a9.23,9.23,0,0,0-5.66,1.7,5,5,0,0,0-2.28,4.13h-6.35a8.77,8.77,0,0,1,2-5.34,13.44,13.44,0,0,1,5.32-4.07,17.91,17.91,0,0,1,7.39-1.5q6.38,0,10,3.19a11.48,11.48,0,0,1,3.75,8.78v17a20.81,20.81,0,0,0,1.3,8.08v.55Zm-10.47-4.81a11.07,11.07,0,0,0,5.62-1.53,9.31,9.31,0,0,0,3.86-4V1297h-5q-11.58,0-11.59,6.79a5.73,5.73,0,0,0,2,4.63A7.57,7.57,0,0,0,733.35,1310.07Z"/><path d="M759.05,1268.21a3.81,3.81,0,0,1,.94-2.6,3.54,3.54,0,0,1,2.78-1,3.6,3.6,0,0,1,2.8,1,3.77,3.77,0,0,1,.95,2.6,3.42,3.42,0,0,1-3.75,3.58,3.56,3.56,0,0,1-2.78-1A3.65,3.65,0,0,1,759.05,1268.21Zm6.82,46.67h-6.3V1278h6.3Z"/><path d="M781.93,1278l.21,4.64a13.42,13.42,0,0,1,11-5.32q11.7,0,11.8,13.19v24.38h-6.31v-24.41q0-4-1.82-5.9c-1.2-1.27-3.05-1.91-5.58-1.91a9.09,9.09,0,0,0-5.38,1.64,11.14,11.14,0,0,0-3.62,4.29v26.29H776V1278Z"/><path d="M837.26,1314.88a13.51,13.51,0,0,1-.88-3.89,14.05,14.05,0,0,1-10.5,4.57,13,13,0,0,1-9-3.08,10,10,0,0,1-3.5-7.83,10.42,10.42,0,0,1,4.39-9q4.38-3.18,12.32-3.19h6.14v-2.89a7.08,7.08,0,0,0-2-5.27q-2-2-5.83-2a9.23,9.23,0,0,0-5.66,1.7,5,5,0,0,0-2.29,4.13h-6.34a8.77,8.77,0,0,1,2-5.34,13.44,13.44,0,0,1,5.32-4.07,17.9,17.9,0,0,1,7.38-1.5q6.38,0,10,3.19a11.48,11.48,0,0,1,3.75,8.78v17a20.62,20.62,0,0,0,1.3,8.08v.55Zm-10.46-4.81a11.07,11.07,0,0,0,5.62-1.53,9.31,9.31,0,0,0,3.86-4V1297h-4.95q-11.6,0-11.59,6.79a5.73,5.73,0,0,0,2,4.63A7.57,7.57,0,0,0,826.8,1310.07Z"/><path d="M883.7,1296.84q0,8.46-3.89,13.59a12.41,12.41,0,0,1-10.43,5.13q-7,0-10.81-4.94l-.3,4.26h-5.8v-52.37h6.31v19.54a12.78,12.78,0,0,1,10.53-4.74,12.5,12.5,0,0,1,10.56,5.08q3.82,5.08,3.83,13.91Zm-6.31-.71q0-6.45-2.48-10a8.25,8.25,0,0,0-7.16-3.51,9.26,9.26,0,0,0-9,5.8v16q2.9,5.8,9,5.8a8.19,8.19,0,0,0,7.06-3.51Q877.39,1303.19,877.39,1296.13Z"/><path d="M898.5,1314.88h-6.31v-52.37h6.31Z"/><path d="M923.9,1315.56a16.14,16.14,0,0,1-12.21-4.92q-4.71-4.94-4.7-13.18v-1.16a22.22,22.22,0,0,1,2.09-9.8,16.33,16.33,0,0,1,5.87-6.75,14.69,14.69,0,0,1,8.16-2.44q7.2,0,11.19,4.74t4,13.57v2.62h-25a13.15,13.15,0,0,0,3.19,8.81,10,10,0,0,0,7.76,3.36,11,11,0,0,0,5.66-1.36,14.15,14.15,0,0,0,4.05-3.61l3.86,3Q933.18,1315.57,923.9,1315.56Zm-.79-33.07a8.44,8.44,0,0,0-6.41,2.78,13.55,13.55,0,0,0-3.2,7.79H932v-.48a12.11,12.11,0,0,0-2.59-7.45A7.94,7.94,0,0,0,923.11,1282.49Z"/><path d="M991.23,1293H970.4v21.92h-6.55v-49.64h30.76v5.35H970.4v17h20.83Z"/><path d="M1023.48,1311.23q-3.68,4.33-10.8,4.33-5.91,0-9-3.42c-2.05-2.29-3.1-5.67-3.12-10.15v-24h6.31v23.83q0,8.39,6.82,8.39,7.23,0,9.61-5.39V1278h6.31v36.89h-6Z"/><path d="M1047.76,1269.06V1278h6.88v4.88h-6.88v22.9a5.09,5.09,0,0,0,.92,3.33,3.86,3.86,0,0,0,3.13,1.11,15.62,15.62,0,0,0,3-.41v5.08a18.59,18.59,0,0,1-4.85.68q-4.23,0-6.37-2.56t-2.15-7.26v-22.87h-6.72V1278h6.72v-8.93Z"/><path d="M1084.78,1311.23q-3.67,4.33-10.8,4.33-5.91,0-9-3.42t-3.12-10.15v-24h6.31v23.83q0,8.39,6.82,8.39,7.23,0,9.61-5.39V1278h6.31v36.89h-6Z"/><path d="M1118.33,1283.65a18.76,18.76,0,0,0-3.1-.24q-6.21,0-8.42,5.29v26.18h-6.31V1278h6.14l.1,4.26a9.83,9.83,0,0,1,8.8-4.94,6.42,6.42,0,0,1,2.79.48Z"/><path d="M1138.79,1315.56a16.14,16.14,0,0,1-12.21-4.92q-4.71-4.94-4.7-13.18v-1.16a22.22,22.22,0,0,1,2.09-9.8,16.33,16.33,0,0,1,5.87-6.75,14.69,14.69,0,0,1,8.16-2.44q7.2,0,11.19,4.74t4,13.57v2.62h-25a13.1,13.1,0,0,0,3.19,8.81,10,10,0,0,0,7.76,3.36,11,11,0,0,0,5.66-1.36,14.15,14.15,0,0,0,4-3.61l3.86,3Q1148.06,1315.57,1138.79,1315.56Zm-.79-33.07a8.44,8.44,0,0,0-6.41,2.78,13.55,13.55,0,0,0-3.2,7.79h18.48v-.48a12.11,12.11,0,0,0-2.59-7.45A7.94,7.94,0,0,0,1138,1282.49Z"/><path d="M0,1228V1024.14H91.17q30.87,0,49.52,17.77t18.64,45.73q0,27.09-18.64,44.86t-49.52,17.77H35V1228Zm85.93-174.47H35v68.16H85.63q18.36,0,28.4-9.47t10-24.9q0-14.85-9.9-24.32T85.93,1053.56Z"/><path d="M311.37,1209.39a96.82,96.82,0,0,1-27.23,16.31,86.05,86.05,0,0,1-30.73,5.25,73.64,73.64,0,0,1-29.13-5.83,71.25,71.25,0,0,1-23.59-16,77.61,77.61,0,0,1-21.56-53.88,81.44,81.44,0,0,1,5.39-29.86,73.06,73.06,0,0,1,14.85-23.88,69.37,69.37,0,0,1,50.83-21.7A66.48,66.48,0,0,1,299.57,1101,71.92,71.92,0,0,1,314,1124.78a84.28,84.28,0,0,1,5.24,30.15v8.15H211.46a46,46,0,0,0,14.71,28.55,41.52,41.52,0,0,0,29,11.36,52,52,0,0,0,19.37-3.65,42.23,42.23,0,0,0,15.3-10Zm-61.46-102.82a34.24,34.24,0,0,0-24.76,9.91q-10.2,9.9-13.1,26.5h76q-2.93-16-13.26-26.21A34.17,34.17,0,0,0,249.91,1106.57Z"/><path d="M479.14,1209.39a96.82,96.82,0,0,1-27.23,16.31,86.05,86.05,0,0,1-30.73,5.25,73.64,73.64,0,0,1-29.13-5.83,71.35,71.35,0,0,1-23.59-16,77.61,77.61,0,0,1-21.56-53.88,81.64,81.64,0,0,1,5.39-29.86,72.92,72.92,0,0,1,14.86-23.88,69.32,69.32,0,0,1,50.82-21.7A66.48,66.48,0,0,1,467.34,1101a71.92,71.92,0,0,1,14.42,23.74,84.28,84.28,0,0,1,5.24,30.15v8.15H379.23a46,46,0,0,0,14.71,28.55,41.52,41.52,0,0,0,29,11.36,52,52,0,0,0,19.37-3.65,42.23,42.23,0,0,0,15.3-10Zm-61.46-102.82a34.24,34.24,0,0,0-24.76,9.91q-10.2,9.9-13.1,26.5h76q-2.91-16-13.25-26.21A34.2,34.2,0,0,0,417.68,1106.57Z"/><path d="M520.5,1228V1082.11h32.91v31.75q5.83-16.6,16.17-25.49a35.75,35.75,0,0,1,24-8.88,66.84,66.84,0,0,1,7.28.87,39.22,39.22,0,0,1,7,2v28.83a35.78,35.78,0,0,0-8.59-2.62,53,53,0,0,0-9.47-.87,37.52,37.52,0,0,0-21.26,6.41,43.9,43.9,0,0,0-15.15,17.76V1228Z"/><path d="M697,1201.82a47.81,47.81,0,0,0,19.66-4.08,41.69,41.69,0,0,0,15.59-11.94l19.8,19.81a73.23,73.23,0,0,1-25.34,18.49A76.31,76.31,0,0,1,695,1231a72.63,72.63,0,0,1-29-5.83,71.64,71.64,0,0,1-23.44-16A74.39,74.39,0,0,1,627,1184.93a78.32,78.32,0,0,1-5.68-29.71,77.24,77.24,0,0,1,5.68-29.57,72.87,72.87,0,0,1,68-45.58,82.53,82.53,0,0,1,32.19,6.41,74.07,74.07,0,0,1,26.07,18l-20.39,21.27A52.76,52.76,0,0,0,716,1113a46.17,46.17,0,0,0-19.81-4.37q-17.48,0-29.71,13.55t-12.23,33.06q0,19.8,12.23,33.2A39.71,39.71,0,0,0,697,1201.82Z"/><path d="M769.25,1155.22a77.83,77.83,0,0,1,5.68-29.86,74.3,74.3,0,0,1,15.44-23.88,71.42,71.42,0,0,1,23.3-15.88,75.43,75.43,0,0,1,58.11,0,73.82,73.82,0,0,1,23.3,15.88,71.57,71.57,0,0,1,15.44,23.88,79.88,79.88,0,0,1,5.53,29.86,78.87,78.87,0,0,1-5.68,30,74.07,74.07,0,0,1-15.44,24,71.35,71.35,0,0,1-23.3,15.87,74.94,74.94,0,0,1-58,0,70.12,70.12,0,0,1-23.3-16,75.87,75.87,0,0,1-15.44-24A77.74,77.74,0,0,1,769.25,1155.22Zm73.4,47.18a36.87,36.87,0,0,0,29.27-13.4q11.51-13.39,11.51-33.49,0-20.68-11.65-34.08T842.65,1108a36.9,36.9,0,0,0-29.28,13.4q-11.5,13.39-11.5,34.08,0,20.38,11.5,33.64T842.65,1202.4Z"/><path d="M966.44,1052.4a19.86,19.86,0,0,1-14.42-5.83,19.16,19.16,0,0,1-6-14.27,20.92,20.92,0,0,1,20.39-20.39A19.88,19.88,0,0,1,981,1018a19.53,19.53,0,0,1,6.12,14.27,19.16,19.16,0,0,1-6,14.27A20.24,20.24,0,0,1,966.44,1052.4Zm16.6,29.71V1228H950.13V1082.11Z"/><path d="M1023.53,1228V1082.11h32.91V1106a57.21,57.21,0,0,1,20-19.51,52.41,52.41,0,0,1,26.36-6.7q22.14,0,36.27,14.71t14.12,37.42V1228h-32.91v-86.8q0-15.72-8.74-25.34t-23.3-9.61a35.81,35.81,0,0,0-17.91,4.52,41.59,41.59,0,0,0-13.84,13V1228Z"/></g></g></svg>