<svg xmlns="http://www.w3.org/2000/svg" viewBox="0 0 1230.72 340.74"><defs><style>.cls-1,.cls-3{fill:#3cb054;}.cls-1,.cls-2{fill-rule:evenodd;}.cls-2{fill:#fff;}</style></defs><g id="Layer_2" data-name="Layer 2"><g id="Layer_1-2" data-name="Layer 1"><path class="cls-1" d="M170.37,0c94,0,170.37,76.34,170.37,170.37S264.4,340.74,170.37,340.74,0,264.4,0,170.37,76.34,0,170.37,0Z"/><path class="cls-2" d="M193.59,261c-3,.26-5.44.32-6.91.32a87,87,0,0,1-87-87v-2.38h0V79.58h0c29.16-.46,101.09,5.9,140.76,61.08a87.09,87.09,0,0,1,10.18,82.88l0,0a54,54,0,0,1-27,29.49,69.44,69.44,0,0,1-8.61,3.58c12.66-48.5-3.9-118.76-77.47-152.53,44.68,27.7,80,97.46,56.08,156.89Z"/><path class="cls-3" d="M467,275.29a10.37,10.37,0,0,1-4.82,3.7,19.39,19.39,0,0,1-7.2,1.23,14,14,0,0,1-7.38-2,13,13,0,0,1-5-5.55,19.24,19.24,0,0,1-1.81-8.34v-3q0-7.68,3.59-11.91t10.07-4.23a12.91,12.91,0,0,1,8.57,2.72,11.84,11.84,0,0,1,4,7.72h-4.48q-1.26-6.76-8-6.77a7.92,7.92,0,0,0-6.83,3.16c-1.55,2.12-2.34,5.17-2.35,9.18v2.78q0,5.73,2.61,9.1a8.5,8.5,0,0,0,7.08,3.38,15.7,15.7,0,0,0,4.41-.56,6.75,6.75,0,0,0,3.13-1.89v-7.61h-7.87v-3.67H467Z"/><path class="cls-3" d="M486.05,258.36a12.78,12.78,0,0,0-2.12-.16q-4.26,0-5.77,3.61v17.94h-4.32V254.48H478l.07,2.92a6.74,6.74,0,0,1,6-3.39,4.34,4.34,0,0,1,1.91.33Z"/><path class="cls-3" d="M500.06,280.22a11.05,11.05,0,0,1-8.36-3.38,12.51,12.51,0,0,1-3.22-9V267a15.13,15.13,0,0,1,1.44-6.71,11.19,11.19,0,0,1,4-4.63,10.14,10.14,0,0,1,5.6-1.67,9.5,9.5,0,0,1,7.66,3.25c1.82,2.17,2.73,5.26,2.73,9.3v1.79H492.8a9,9,0,0,0,2.18,6,6.9,6.9,0,0,0,5.32,2.3,7.54,7.54,0,0,0,3.87-.93,9.76,9.76,0,0,0,2.78-2.48l2.64,2.06Q506.41,280.21,500.06,280.22Zm-.53-22.65a5.74,5.74,0,0,0-4.39,1.9,9.22,9.22,0,0,0-2.2,5.33H505.6v-.32a8.27,8.27,0,0,0-1.78-5.11A5.44,5.44,0,0,0,499.53,257.57Z"/><path class="cls-3" d="M525.4,280.22a11.05,11.05,0,0,1-8.36-3.38,12.51,12.51,0,0,1-3.22-9V267a15.27,15.27,0,0,1,1.43-6.71,11.29,11.29,0,0,1,4-4.63,10.13,10.13,0,0,1,5.59-1.67,9.47,9.47,0,0,1,7.66,3.25c1.82,2.17,2.74,5.26,2.74,9.3v1.79H518.14a9,9,0,0,0,2.18,6,6.88,6.88,0,0,0,5.31,2.3,7.56,7.56,0,0,0,3.88-.93,9.76,9.76,0,0,0,2.78-2.48l2.64,2.06Q531.75,280.21,525.4,280.22Zm-.54-22.65a5.77,5.77,0,0,0-4.39,1.9,9.28,9.28,0,0,0-2.19,5.33h12.66v-.32a8.27,8.27,0,0,0-1.78-5.11A5.44,5.44,0,0,0,524.86,257.57Z"/><path class="cls-3" d="M544.34,254.48l.14,3.18a9.21,9.21,0,0,1,7.57-3.65q8,0,8.08,9v16.7h-4.32V263a5.87,5.87,0,0,0-1.25-4,5,5,0,0,0-3.82-1.31,6.22,6.22,0,0,0-3.69,1.12,7.64,7.64,0,0,0-2.48,2.94v18h-4.32V254.48Z"/><path class="cls-3" d="M604.17,269a12.54,12.54,0,0,1-4,8.33,13.09,13.09,0,0,1-8.91,2.93,12,12,0,0,1-9.66-4.32Q578,271.58,578,264.34v-3.27a19.38,19.38,0,0,1,1.69-8.34,12.61,12.61,0,0,1,4.8-5.52,13.32,13.32,0,0,1,7.19-1.93,12.27,12.27,0,0,1,8.69,3,12.64,12.64,0,0,1,3.81,8.37h-4.51q-.58-4.08-2.53-5.91a7.71,7.71,0,0,0-5.46-1.82,8,8,0,0,0-6.73,3.18q-2.45,3.18-2.44,9v3.3q0,5.53,2.31,8.81a7.47,7.47,0,0,0,6.47,3.27,8.61,8.61,0,0,0,5.73-1.69c1.33-1.13,2.22-3.1,2.65-5.9Z"/><path class="cls-3" d="M621.82,258.36a12.78,12.78,0,0,0-2.12-.16q-4.26,0-5.77,3.61v17.94h-4.32V254.48h4.2l.07,2.92a6.74,6.74,0,0,1,6-3.39,4.34,4.34,0,0,1,1.91.33Z"/><path class="cls-3" d="M634.48,273.42l5.89-18.94H645l-10.16,29.17q-2.36,6.3-7.49,6.3l-.82-.07-1.61-.3v-3.5l1.16.09a5.66,5.66,0,0,0,3.42-.89,6.33,6.33,0,0,0,2-3.24l1-2.57-9-25h4.72Z"/><path class="cls-3" d="M670.19,267.4a15.12,15.12,0,0,1-2.64,9.29,8.46,8.46,0,0,1-7.15,3.53,9.29,9.29,0,0,1-7.24-2.92v12.16h-4.32v-35h3.95l.21,2.8a8.89,8.89,0,0,1,7.33-3.27,8.63,8.63,0,0,1,7.21,3.44q2.64,3.44,2.65,9.55Zm-4.32-.49a11.13,11.13,0,0,0-1.83-6.75,5.86,5.86,0,0,0-5-2.48,6.36,6.36,0,0,0-5.89,3.48v12.07a6.35,6.35,0,0,0,5.93,3.46,5.84,5.84,0,0,0,4.94-2.46C665.25,272.58,665.87,270.14,665.87,266.91Z"/><path class="cls-3" d="M681.54,248.36v6.12h4.71v3.34h-4.71v15.69a3.52,3.52,0,0,0,.63,2.28,2.63,2.63,0,0,0,2.14.76,10.23,10.23,0,0,0,2.06-.28v3.48a12.6,12.6,0,0,1-3.32.47,5.39,5.39,0,0,1-4.36-1.75,7.55,7.55,0,0,1-1.48-5V257.82h-4.6v-3.34h4.6v-6.12Z"/><path class="cls-3" d="M689.69,266.88a14.86,14.86,0,0,1,1.46-6.68,10.83,10.83,0,0,1,4.06-4.57,11,11,0,0,1,5.94-1.62,10.66,10.66,0,0,1,8.35,3.58q3.19,3.57,3.19,9.5v.31a15.1,15.1,0,0,1-1.41,6.62,10.8,10.8,0,0,1-4,4.56,11.23,11.23,0,0,1-6,1.64,10.62,10.62,0,0,1-8.33-3.58,13.68,13.68,0,0,1-3.18-9.45Zm4.34.52a10.77,10.77,0,0,0,2,6.74,6.6,6.6,0,0,0,10.45,0,11.84,11.84,0,0,0,1.94-7.23,10.74,10.74,0,0,0-2-6.73,6.26,6.26,0,0,0-5.24-2.58,6.2,6.2,0,0,0-5.16,2.54Q694,262.66,694,267.4Z"/><path class="cls-3" d="M732.07,279.75V257.82h-4v-3.34h4v-2.59a8.59,8.59,0,0,1,2.17-6.28,8.21,8.21,0,0,1,6.14-2.22,11.54,11.54,0,0,1,3,.39l-.23,3.49a12.5,12.5,0,0,0-2.34-.21,4.24,4.24,0,0,0-3.25,1.23,5,5,0,0,0-1.14,3.52v2.67h5.39v3.34h-5.39v21.93Z"/><path class="cls-3" d="M745.4,266.88a15,15,0,0,1,1.46-6.68,10.79,10.79,0,0,1,10-6.19,10.68,10.68,0,0,1,8.35,3.58q3.18,3.57,3.19,9.5v.31A15,15,0,0,1,767,274a10.67,10.67,0,0,1-4,4.56,11.17,11.17,0,0,1-6,1.64,10.62,10.62,0,0,1-8.33-3.58,13.68,13.68,0,0,1-3.19-9.45Zm4.35.52a10.77,10.77,0,0,0,2,6.74,6.6,6.6,0,0,0,10.45,0,11.84,11.84,0,0,0,1.94-7.23,10.74,10.74,0,0,0-2-6.73,6.26,6.26,0,0,0-5.24-2.58,6.2,6.2,0,0,0-5.16,2.54Q749.74,262.66,749.75,267.4Z"/><path class="cls-3" d="M786,258.36a12.9,12.9,0,0,0-2.13-.16,5.7,5.7,0,0,0-5.77,3.61v17.94h-4.31V254.48H778l.07,2.92a6.72,6.72,0,0,1,6-3.39,4.42,4.42,0,0,1,1.92.33Z"/><path class="cls-3" d="M817.45,279.75a9.22,9.22,0,0,1-.61-2.66,9.65,9.65,0,0,1-7.19,3.13,8.91,8.91,0,0,1-6.13-2.12,6.82,6.82,0,0,1-2.4-5.36,7.13,7.13,0,0,1,3-6.13q3-2.17,8.44-2.18h4.2v-2a4.84,4.84,0,0,0-1.35-3.61,5.45,5.45,0,0,0-4-1.35,6.27,6.27,0,0,0-3.87,1.17,3.43,3.43,0,0,0-1.57,2.83h-4.34a6,6,0,0,1,1.34-3.66,9.31,9.31,0,0,1,3.64-2.79,12.37,12.37,0,0,1,5.06-1,10,10,0,0,1,6.84,2.19,7.86,7.86,0,0,1,2.57,6v11.63a14.27,14.27,0,0,0,.89,5.54v.37Zm-7.17-3.29a7.59,7.59,0,0,0,3.85-1,6.37,6.37,0,0,0,2.64-2.74v-5.18h-3.39q-7.93,0-7.94,4.65a3.94,3.94,0,0,0,1.36,3.17A5.16,5.16,0,0,0,810.28,276.46Z"/><path class="cls-3" d="M850.4,264.59q-5.77-1.65-8.4-4.07a7.79,7.79,0,0,1-2.63-6,8.22,8.22,0,0,1,3.22-6.64,12.75,12.75,0,0,1,8.34-2.63,13.84,13.84,0,0,1,6.25,1.36,10.19,10.19,0,0,1,4.25,3.73,9.53,9.53,0,0,1,1.51,5.21h-4.51a6.21,6.21,0,0,0-2-4.86,8,8,0,0,0-5.54-1.77,8.19,8.19,0,0,0-5.17,1.46,4.88,4.88,0,0,0-1.86,4.06,4.38,4.38,0,0,0,1.77,3.52,17.08,17.08,0,0,0,6,2.63,27.73,27.73,0,0,1,6.63,2.63,10.1,10.1,0,0,1,3.55,3.35,8.57,8.57,0,0,1,1.16,4.51,8,8,0,0,1-3.22,6.62,13.75,13.75,0,0,1-8.62,2.49,15.89,15.89,0,0,1-6.54-1.35A10.91,10.91,0,0,1,840,275.2a9,9,0,0,1-1.65-5.31h4.51a5.87,5.87,0,0,0,2.27,4.87,9.61,9.61,0,0,0,6.09,1.79,8.79,8.79,0,0,0,5.44-1.45,4.69,4.69,0,0,0,1.89-3.94,4.61,4.61,0,0,0-1.75-3.87A20.35,20.35,0,0,0,850.4,264.59Z"/><path class="cls-3" d="M883.67,277.25c-1.68,2-4.14,3-7.4,3a7.87,7.87,0,0,1-6.15-2.35q-2.11-2.34-2.14-6.95V254.48h4.32v16.33q0,5.74,4.67,5.74,4.95,0,6.59-3.69V254.48h4.32v25.27h-4.11Z"/><path class="cls-3" d="M909.15,273.05a3.17,3.17,0,0,0-1.32-2.72,12.48,12.48,0,0,0-4.6-1.67A22,22,0,0,1,898,267a7.42,7.42,0,0,1-2.85-2.34,5.55,5.55,0,0,1-.93-3.22,6.58,6.58,0,0,1,2.63-5.26,10.27,10.27,0,0,1,6.71-2.15,10.54,10.54,0,0,1,7,2.22,7,7,0,0,1,2.68,5.68H908.9a3.91,3.91,0,0,0-1.51-3.06,5.64,5.64,0,0,0-3.8-1.28,6,6,0,0,0-3.69,1,3.26,3.26,0,0,0-1.33,2.69,2.64,2.64,0,0,0,1.24,2.36,15.28,15.28,0,0,0,4.47,1.51,23.67,23.67,0,0,1,5.25,1.73,7.67,7.67,0,0,1,3,2.42,5.91,5.91,0,0,1,1,3.44,6.45,6.45,0,0,1-2.71,5.43,11.31,11.31,0,0,1-7,2.05,12.68,12.68,0,0,1-5.37-1.08,8.68,8.68,0,0,1-3.65-3,7.21,7.21,0,0,1-1.32-4.17h4.32a4.5,4.5,0,0,0,1.74,3.45,6.73,6.73,0,0,0,4.28,1.27,7,7,0,0,0,3.94-1A3,3,0,0,0,909.15,273.05Z"/><path class="cls-3" d="M925,248.36v6.12h4.72v3.34H925v15.69a3.52,3.52,0,0,0,.63,2.28,2.65,2.65,0,0,0,2.15.76,10.31,10.31,0,0,0,2.06-.28v3.48a12.66,12.66,0,0,1-3.32.47,5.41,5.41,0,0,1-4.37-1.75,7.55,7.55,0,0,1-1.47-5V257.82H916v-3.34h4.6v-6.12Z"/><path class="cls-3" d="M950.32,279.75a9,9,0,0,1-.6-2.66,9.68,9.68,0,0,1-7.2,3.13,8.93,8.93,0,0,1-6.13-2.12,6.85,6.85,0,0,1-2.39-5.36,7.15,7.15,0,0,1,3-6.13q3-2.17,8.44-2.18h4.21v-2a4.85,4.85,0,0,0-1.36-3.61,5.41,5.41,0,0,0-4-1.35,6.3,6.3,0,0,0-3.88,1.17,3.45,3.45,0,0,0-1.56,2.83h-4.35a6,6,0,0,1,1.35-3.66A9.24,9.24,0,0,1,939.5,255a12.34,12.34,0,0,1,5.06-1,10,10,0,0,1,6.84,2.19,7.89,7.89,0,0,1,2.57,6v11.63a14.29,14.29,0,0,0,.88,5.54v.37Zm-7.17-3.29a7.62,7.62,0,0,0,3.86-1,6.49,6.49,0,0,0,2.64-2.74v-5.18h-3.39q-7.93,0-7.94,4.65a3.93,3.93,0,0,0,1.35,3.17A5.2,5.2,0,0,0,943.15,276.46Z"/><path class="cls-3" d="M960.76,247.78a2.6,2.6,0,0,1,.64-1.77,2.86,2.86,0,0,1,3.82,0,2.52,2.52,0,0,1,.66,1.77,2.68,2.68,0,0,1-4.48,1.75A2.53,2.53,0,0,1,960.76,247.78Zm4.67,32h-4.32V254.48h4.32Z"/><path class="cls-3" d="M976.43,254.48l.14,3.18a9.21,9.21,0,0,1,7.57-3.65q8,0,8.08,9v16.7H987.9V263a5.82,5.82,0,0,0-1.25-4,5,5,0,0,0-3.82-1.31,6.22,6.22,0,0,0-3.69,1.12,7.73,7.73,0,0,0-2.48,2.94v18h-4.32V254.48Z"/><path class="cls-3" d="M1014.33,279.75a9,9,0,0,1-.6-2.66,9.68,9.68,0,0,1-7.2,3.13,8.93,8.93,0,0,1-6.13-2.12,6.85,6.85,0,0,1-2.39-5.36,7.15,7.15,0,0,1,3-6.13q3-2.17,8.44-2.18h4.21v-2a4.85,4.85,0,0,0-1.36-3.61,5.41,5.41,0,0,0-4-1.35,6.3,6.3,0,0,0-3.88,1.17,3.45,3.45,0,0,0-1.56,2.83h-4.35a6,6,0,0,1,1.34-3.66,9.27,9.27,0,0,1,3.65-2.79,12.32,12.32,0,0,1,5-1,10,10,0,0,1,6.85,2.19,7.85,7.85,0,0,1,2.56,6v11.63a14.27,14.27,0,0,0,.89,5.54v.37Zm-7.17-3.29a7.62,7.62,0,0,0,3.86-1,6.49,6.49,0,0,0,2.64-2.74v-5.18h-3.39q-7.93,0-7.94,4.65a3.93,3.93,0,0,0,1.35,3.17A5.2,5.2,0,0,0,1007.16,276.46Z"/><path class="cls-3" d="M1046.14,267.4q0,5.79-2.66,9.3a8.53,8.53,0,0,1-7.15,3.52,8.8,8.8,0,0,1-7.4-3.39l-.21,2.92h-4V243.88h4.32v13.38a8.77,8.77,0,0,1,7.21-3.25,8.56,8.56,0,0,1,7.23,3.48q2.63,3.48,2.63,9.53Zm-4.32-.49a11.63,11.63,0,0,0-1.71-6.82,5.62,5.62,0,0,0-4.9-2.41,6.33,6.33,0,0,0-6.14,4v10.93a6.51,6.51,0,0,0,6.19,4,5.59,5.59,0,0,0,4.83-2.41Q1041.82,271.74,1041.82,266.91Z"/><path class="cls-3" d="M1056.27,279.75H1052V243.88h4.32Z"/><path class="cls-3" d="M1073.67,280.22a11.05,11.05,0,0,1-8.36-3.38,12.51,12.51,0,0,1-3.22-9V267a15.13,15.13,0,0,1,1.44-6.71,11.19,11.19,0,0,1,4-4.63,10.13,10.13,0,0,1,5.59-1.67,9.47,9.47,0,0,1,7.66,3.25c1.83,2.17,2.74,5.26,2.74,9.3v1.79h-17.12a9,9,0,0,0,2.18,6,6.89,6.89,0,0,0,5.31,2.3,7.56,7.56,0,0,0,3.88-.93,9.76,9.76,0,0,0,2.78-2.48l2.64,2.06Q1080,280.21,1073.67,280.22Zm-.54-22.65a5.77,5.77,0,0,0-4.39,1.9,9.28,9.28,0,0,0-2.19,5.33h12.66v-.32a8.27,8.27,0,0,0-1.78-5.11A5.44,5.44,0,0,0,1073.13,257.57Z"/><path class="cls-3" d="M1119.79,264.73h-14.27v15H1101v-34h21.06v3.66h-16.58v11.66h14.27Z"/><path class="cls-3" d="M1141.88,277.25q-2.52,3-7.4,3a7.87,7.87,0,0,1-6.15-2.35q-2.11-2.34-2.14-6.95V254.48h4.32v16.33q0,5.74,4.67,5.74,5,0,6.59-3.69V254.48h4.32v25.27H1142Z"/><path class="cls-3" d="M1158.51,248.36v6.12h4.72v3.34h-4.72v15.69a3.52,3.52,0,0,0,.63,2.28,2.65,2.65,0,0,0,2.15.76,10.14,10.14,0,0,0,2-.28v3.48a12.53,12.53,0,0,1-3.31.47,5.41,5.41,0,0,1-4.37-1.75,7.55,7.55,0,0,1-1.47-5V257.82h-4.6v-3.34h4.6v-6.12Z"/><path class="cls-3" d="M1183.87,277.25q-2.52,3-7.4,3a7.86,7.86,0,0,1-6.15-2.35c-1.41-1.56-2.13-3.88-2.14-6.95V254.48h4.32v16.33q0,5.74,4.67,5.74,4.95,0,6.59-3.69V254.48h4.32v25.27H1184Z"/><path class="cls-3" d="M1206.85,258.36a12.78,12.78,0,0,0-2.12-.16q-4.26,0-5.77,3.61v17.94h-4.32V254.48h4.2l.07,2.92a6.74,6.74,0,0,1,6-3.39,4.37,4.37,0,0,1,1.91.33Z"/><path class="cls-3" d="M1220.86,280.22a11.05,11.05,0,0,1-8.36-3.38,12.51,12.51,0,0,1-3.22-9V267a15.13,15.13,0,0,1,1.44-6.71,11.19,11.19,0,0,1,4-4.63,10.13,10.13,0,0,1,5.59-1.67,9.47,9.47,0,0,1,7.66,3.25c1.83,2.17,2.74,5.26,2.74,9.3v1.79H1213.6a9,9,0,0,0,2.18,6,6.89,6.89,0,0,0,5.31,2.3,7.56,7.56,0,0,0,3.88-.93,9.76,9.76,0,0,0,2.78-2.48l2.64,2.06Q1227.21,280.21,1220.86,280.22Zm-.54-22.65a5.77,5.77,0,0,0-4.39,1.9,9.28,9.28,0,0,0-2.19,5.33h12.66v-.32a8.27,8.27,0,0,0-1.78-5.11A5.44,5.44,0,0,0,1220.32,257.57Z"/><path class="cls-3" d="M440.84,220.26V80.61h62.45q21.13,0,33.91,12.17T550,124.1q0,18.56-12.77,30.72T503.29,167H464.78v53.26Zm58.86-119.5H464.78v46.68H499.5q12.57,0,19.45-6.48t6.88-17.06q0-10.17-6.78-16.66T499.7,100.76Z"/><path class="cls-3" d="M654.12,207.5a66.68,66.68,0,0,1-18.66,11.17,59.07,59.07,0,0,1-21.05,3.59,50.41,50.41,0,0,1-19.95-4,49.05,49.05,0,0,1-16.16-11,53.18,53.18,0,0,1-14.76-36.91,55.86,55.86,0,0,1,3.69-20.45,50.07,50.07,0,0,1,10.17-16.36,47.54,47.54,0,0,1,34.82-14.87A45.55,45.55,0,0,1,646,133.28a49.21,49.21,0,0,1,9.87,16.26,57.69,57.69,0,0,1,3.59,20.65v5.58H585.68a31.45,31.45,0,0,0,10.08,19.56,28.45,28.45,0,0,0,19.85,7.78,35.53,35.53,0,0,0,13.27-2.5,28.91,28.91,0,0,0,10.47-6.88ZM612,137.07a23.45,23.45,0,0,0-17,6.78q-7,6.79-9,18.16h52.08a32.78,32.78,0,0,0-9.08-18A23.44,23.44,0,0,0,612,137.07Z"/><path class="cls-3" d="M769,207.5a66.77,66.77,0,0,1-18.65,11.17,59.11,59.11,0,0,1-21,3.59,50.41,50.41,0,0,1-20-4,49,49,0,0,1-16.16-11,53.13,53.13,0,0,1-14.77-36.91,55.66,55.66,0,0,1,3.7-20.45,50.07,50.07,0,0,1,10.17-16.36,47.49,47.49,0,0,1,34.81-14.87A45.5,45.5,0,0,1,761,133.28a49.4,49.4,0,0,1,9.88,16.26,57.91,57.91,0,0,1,3.59,20.65v5.58H700.6a31.4,31.4,0,0,0,10.08,19.56,28.45,28.45,0,0,0,19.85,7.78,35.48,35.48,0,0,0,13.26-2.5,29,29,0,0,0,10.48-6.88Zm-42.09-70.43a23.42,23.42,0,0,0-17,6.78q-7,6.79-9,18.16h52.07a32.71,32.71,0,0,0-9.08-18A23.43,23.43,0,0,0,726.94,137.07Z"/><path class="cls-3" d="M797.36,220.26V120.31h22.55v21.75q4-11.37,11.07-17.46a24.48,24.48,0,0,1,16.46-6.09c1.86.14,3.52.34,5,.6a27.15,27.15,0,0,1,4.79,1.4v19.75a24.66,24.66,0,0,0-5.89-1.8,37.12,37.12,0,0,0-6.49-.59,25.66,25.66,0,0,0-14.56,4.39,30,30,0,0,0-10.37,12.17v65.83Z"/><path class="cls-3" d="M918.26,202.31a32.67,32.67,0,0,0,13.47-2.8,28.49,28.49,0,0,0,10.68-8.18L956,204.9a50.14,50.14,0,0,1-17.35,12.67,52.34,52.34,0,0,1-21.75,4.69,49.84,49.84,0,0,1-35.91-15,51.14,51.14,0,0,1-10.68-16.56,53.65,53.65,0,0,1-3.89-20.35,52.84,52.84,0,0,1,3.89-20.25,49.94,49.94,0,0,1,46.59-31.23,56.56,56.56,0,0,1,22,4.39,50.63,50.63,0,0,1,17.86,12.37l-14,14.57a36,36,0,0,0-11.57-8.78,31.49,31.49,0,0,0-13.56-3q-12,0-20.35,9.28t-8.38,22.65q0,13.56,8.38,22.74A27.17,27.17,0,0,0,918.26,202.31Z"/><path class="cls-3" d="M967.74,170.39a53.38,53.38,0,0,1,3.89-20.45,51,51,0,0,1,10.58-16.36,48.93,48.93,0,0,1,16-10.88,51.62,51.62,0,0,1,39.8,0,50.45,50.45,0,0,1,16,10.88,49,49,0,0,1,10.58,16.36,56.64,56.64,0,0,1-.1,41,50.85,50.85,0,0,1-10.58,16.46,49,49,0,0,1-16,10.87,51.37,51.37,0,0,1-39.7,0,48.1,48.1,0,0,1-16-11,52.28,52.28,0,0,1-10.58-16.46A53.42,53.42,0,0,1,967.74,170.39ZM1018,202.71a25.28,25.28,0,0,0,20-9.18q7.88-9.18,7.88-22.94,0-14.18-8-23.35a26.4,26.4,0,0,0-40,0q-7.89,9.18-7.88,23.35,0,14,7.88,23A25.39,25.39,0,0,0,1018,202.71Z"/><path class="cls-3" d="M1102.81,100a13.64,13.64,0,0,1-9.88-4,13.16,13.16,0,0,1-4.09-9.78,14.32,14.32,0,0,1,14-14,13.61,13.61,0,0,1,10,4.19,13.39,13.39,0,0,1,4.18,9.77,13.15,13.15,0,0,1-4.08,9.78A13.89,13.89,0,0,1,1102.81,100Zm11.37,20.35v99.95h-22.54V120.31Z"/><path class="cls-3" d="M1141.91,220.26V120.31h22.55v16.36a39.16,39.16,0,0,1,13.66-13.37,35.93,35.93,0,0,1,18.06-4.59q15.16,0,24.84,10.08t9.68,25.64v65.83h-22.55V160.81q0-10.77-6-17.36t-16-6.58a24.51,24.51,0,0,0-12.26,3.09,28.52,28.52,0,0,0-9.48,8.88v71.42Z"/></g></g></svg>