<?xml version="1.0" encoding="UTF-8" standalone="no"?><!DOCTYPE svg PUBLIC "-//W3C//DTD SVG 1.1//EN" "http://www.w3.org/Graphics/SVG/1.1/DTD/svg11.dtd"><svg width="100%" height="100%" viewBox="0 0 200 200" version="1.1" xmlns="http://www.w3.org/2000/svg" xmlns:xlink="http://www.w3.org/1999/xlink" xml:space="preserve" xmlns:serif="http://www.serif.com/" style="fill-rule:evenodd;clip-rule:evenodd;stroke-miterlimit:1.5;"><rect id="addresses" x="0" y="0" width="200" height="200" style="fill:none;"/><g id="addresses1" serif:id="addresses"><path d="M49.901,100l28.195,0.035" style="fill:none;stroke:#fff;stroke-width:16px;"/><path d="M49.901,124.99l20.4,0c0,0 0,8.069 0,15.047c0,5.522 4.477,10 10,10c15.278,0 44.263,0 59.542,0c5.522,0 10,-4.478 10,-10c0,-19.153 0,-60.808 0,-79.961c0,-5.523 -4.478,-10 -10,-10c-15.279,0 -44.264,0 -59.542,0c-2.652,0 -5.196,1.053 -7.071,2.929c-1.875,1.875 -2.929,4.419 -2.929,7.071c0,6.953 0,14.98 0,14.98l-20.4,0" style="fill:none;stroke:#fff;stroke-width:16px;"/><rect x="96.512" y="75.018" width="25.287" height="25" style="fill:#fff;"/></g></svg>