<?xml version="1.0" encoding="UTF-8" standalone="no"?><!DOCTYPE svg PUBLIC "-//W3C//DTD SVG 1.1//EN" "http://www.w3.org/Graphics/SVG/1.1/DTD/svg11.dtd"><svg width="100%" height="100%" viewBox="0 0 200 200" version="1.1" xmlns="http://www.w3.org/2000/svg" xmlns:xlink="http://www.w3.org/1999/xlink" xml:space="preserve" xmlns:serif="http://www.serif.com/" style="fill-rule:evenodd;clip-rule:evenodd;stroke-linejoin:round;stroke-miterlimit:1.41421;"><rect id="change-passphrase" serif:id="change passphrase" x="0" y="0" width="200" height="200" style="fill:none;"/><g id="passphrase"><path d="M150,150l-27.849,0l0,-16.08l-15.95,0l0,-15.95l-16.08,0l-9.696,-9.696c-3.464,0.973 -7.116,1.494 -10.89,1.494c-22.204,0 -40.232,-18.028 -40.232,-40.233c0,-22.204 18.028,-40.232 40.232,-40.232c22.205,0 40.233,18.028 40.233,40.232c0,3.774 -0.521,7.426 -1.494,10.89l41.726,41.726l0,27.849Zm-87.961,-100c6.623,0 12,5.387 12,12.022c0,6.635 -5.377,12.022 -12,12.022c-6.623,0 -12,-5.387 -12,-12.022c0,-6.635 5.377,-12.022 12,-12.022Z" style="fill:#fff;"/></g></svg>