<?xml version="1.0" encoding="UTF-8" standalone="no"?><!DOCTYPE svg PUBLIC "-//W3C//DTD SVG 1.1//EN" "http://www.w3.org/Graphics/SVG/1.1/DTD/svg11.dtd"><svg width="100%" height="100%" viewBox="0 0 200 200" version="1.1" xmlns="http://www.w3.org/2000/svg" xmlns:xlink="http://www.w3.org/1999/xlink" xml:space="preserve" xmlns:serif="http://www.serif.com/" style="fill-rule:evenodd;clip-rule:evenodd;stroke-miterlimit:1.5;"><rect id="overview" x="0" y="0" width="200" height="200" style="fill:none;"/><g id="overview3"><g><path d="M135.51,60.31l0.161,0.001l0.161,0.003l0.161,0.003l0.161,0.005l0.16,0.005l0.16,0.007l0.16,0.008l0.16,0.008l0.159,0.01l0.159,0.01l0.159,0.012l0.158,0.013l0.158,0.013l0.158,0.015l0.158,0.015l0.157,0.017l0.157,0.017l0.157,0.019l0.157,0.019l0.156,0.02l0.156,0.022l0.155,0.022l0.156,0.023l0.154,0.025l0.155,0.025l0.154,0.026l0.154,0.027l0.154,0.028l0.153,0.029l0.153,0.03l0.153,0.03l0.152,0.032l0.152,0.033l0.152,0.033l0.151,0.035l0.151,0.035l0.151,0.036l0.15,0.038l0.15,0.038l0.15,0.039l0.149,0.04l0.149,0.04l0.148,0.042l0.148,0.043l0.148,0.043l0.147,0.045l0.147,0.045l0.147,0.046l0.146,0.047l0.146,0.048l0.145,0.049l0.145,0.049l0.145,0.051l0.144,0.051l0.144,0.052l0.143,0.053l0.143,0.054l0.142,0.055l0.142,0.055l0.142,0.057l0.141,0.057l0.141,0.058l0.141,0.059l0.14,0.06l0.139,0.06l0.139,0.062l0.139,0.062l0.138,0.063l0.138,0.064l0.137,0.064l0.137,0.066l0.136,0.066l0.136,0.067l0.136,0.068l0.135,0.069l0.134,0.069l0.134,0.07l0.134,0.071l0.133,0.072l0.132,0.073l0.132,0.073l0.132,0.074l0.131,0.075l0.131,0.076l0.13,0.076l0.13,0.078l0.129,0.078l0.128,0.078l0.128,0.08l0.128,0.08l0.127,0.081l0.127,0.082l0.126,0.082l0.125,0.083l0.125,0.084l0.125,0.085l0.123,0.085l0.124,0.086l0.123,0.087l0.122,0.088l0.122,0.088l0.121,0.089l0.12,0.089l0.12,0.091l0.12,0.091l0.119,0.092l0.118,0.092l0.118,0.093l0.117,0.094l0.117,0.095l0.116,0.095l0.115,0.096l0.115,0.096l0.115,0.098l0.113,0.097l0.113,0.099l0.113,0.099l0.112,0.1l0.111,0.101l0.111,0.101l0.11,0.102l0.109,0.103l0.109,0.103l0.109,0.104l0.107,0.104l0.107,0.105l0.107,0.106l0.105,0.106l0.105,0.107l0.105,0.108l0.104,0.108l0.103,0.109l0.102,0.109l0.102,0.111l0.102,0.11l0.1,0.112l0.1,0.112l0.099,0.112l0.099,0.113l0.098,0.114l0.097,0.114l0.097,0.115l0.096,0.116l0.095,0.116l0.094,0.116l0.094,0.118l0.093,0.117l0.093,0.119l0.092,0.119l0.091,0.119l0.09,0.12l0.09,0.121l0.089,0.121l0.088,0.122l0.087,0.122l0.087,0.123l0.086,0.123l0.086,0.124l0.084,0.124l0.084,0.125l0.083,0.126l0.083,0.126l0.082,0.126l0.081,0.127l0.08,0.128l0.079,0.128l0.079,0.129l0.078,0.129l0.077,0.129l0.077,0.131l0.075,0.13l0.075,0.131l0.074,0.132l0.074,0.132l0.072,0.133l0.072,0.133l0.071,0.133l0.07,0.134l0.07,0.135l0.068,0.135l0.068,0.135l0.067,0.136l0.067,0.137l0.065,0.136l0.065,0.138l0.064,0.137l0.063,0.139l0.062,0.138l0.061,0.139l0.061,0.14l0.059,0.14l0.059,0.14l0.058,0.141l0.058,0.141l0.056,0.142l0.056,0.142l0.054,0.143l0.054,0.143l0.053,0.143l0.053,0.144l0.051,0.144l0.05,0.144l0.05,0.145l0.049,0.146l0.048,0.146l0.047,0.146l0.046,0.146l0.045,0.147l0.044,0.148l0.044,0.147l0.042,0.148l0.042,0.149l0.041,0.149l0.04,0.149l0.039,0.149l0.038,0.15l0.037,0.15l0.036,0.151l0.036,0.151l0.034,0.151l0.034,0.152l0.032,0.152l0.032,0.152l0.031,0.153l0.03,0.153l0.029,0.153l0.028,0.154l0.027,0.154l0.026,0.154l0.025,0.155l0.024,0.155l0.023,0.155l0.023,0.156l0.021,0.156l0.02,0.156l0.02,0.156l0.018,0.157l0.018,0.157l0.016,0.157l0.016,0.158l0.014,0.158l0.014,0.158l0.012,0.159l0.012,0.158l0.011,0.16l0.009,0.159l0.009,0.159l0.007,0.16l0.007,0.16l0.006,0.161l0.004,0.16l0.004,0.161l0.002,0.161l0.002,0.161l0,0.162l0,50.039l0,0.162l-0.002,0.161l-0.002,0.161l-0.004,0.161l-0.004,0.161l-0.006,0.16l-0.007,0.16l-0.007,0.16l-0.009,0.16l-0.009,0.159l-0.011,0.159l-0.012,0.159l-0.012,0.158l-0.014,0.158l-0.014,0.158l-0.016,0.158l-0.016,0.157l-0.018,0.157l-0.018,0.157l-0.02,0.157l-0.02,0.156l-0.021,0.156l-0.023,0.155l-0.023,0.156l-0.024,0.154l-0.025,0.155l-0.026,0.154l-0.027,0.154l-0.028,0.154l-0.029,0.153l-0.03,0.153l-0.031,0.153l-0.032,0.152l-0.032,0.152l-0.034,0.152l-0.034,0.151l-0.036,0.151l-0.036,0.151l-0.037,0.15l-0.038,0.15l-0.039,0.15l-0.04,0.149l-0.041,0.149l-0.042,0.148l-0.042,0.148l-0.044,0.148l-0.044,0.147l-0.045,0.147l-0.046,0.147l-0.047,0.146l-0.048,0.146l-0.049,0.145l-0.05,0.145l-0.05,0.145l-0.051,0.144l-0.053,0.144l-0.053,0.143l-0.054,0.143l-0.054,0.142l-0.056,0.142l-0.056,0.142l-0.058,0.141l-0.058,0.141l-0.059,0.141l-0.059,0.14l-0.061,0.139l-0.061,0.139l-0.062,0.139l-0.063,0.138l-0.064,0.138l-0.065,0.137l-0.065,0.137l-0.067,0.136l-0.067,0.136l-0.068,0.136l-0.068,0.135l-0.07,0.134l-0.07,0.134l-0.071,0.134l-0.072,0.133l-0.072,0.132l-0.074,0.132l-0.074,0.132l-0.075,0.131l-0.075,0.131l-0.077,0.13l-0.077,0.13l-0.078,0.129l-0.079,0.128l-0.079,0.128l-0.08,0.128l-0.081,0.127l-0.082,0.127l-0.083,0.126l-0.083,0.125l-0.084,0.125l-0.084,0.125l-0.086,0.123l-0.086,0.124l-0.087,0.123l-0.087,0.122l-0.088,0.122l-0.089,0.121l-0.09,0.12l-0.09,0.12l-0.091,0.12l-0.092,0.119l-0.093,0.118l-0.093,0.118l-0.094,0.117l-0.094,0.117l-0.095,0.116l-0.096,0.115l-0.097,0.115l-0.097,0.115l-0.098,0.113l-0.099,0.113l-0.099,0.113l-0.1,0.112l-0.1,0.111l-0.102,0.111l-0.102,0.11l-0.102,0.109l-0.103,0.109l-0.104,0.109l-0.105,0.107l-0.105,0.107l-0.105,0.107l-0.107,0.105l-0.107,0.105l-0.107,0.105l-0.109,0.104l-0.109,0.103l-0.109,0.102l-0.11,0.102l-0.111,0.102l-0.111,0.1l-0.112,0.1l-0.113,0.099l-0.113,0.099l-0.113,0.098l-0.115,0.097l-0.115,0.097l-0.115,0.096l-0.116,0.095l-0.117,0.094l-0.117,0.094l-0.118,0.093l-0.118,0.093l-0.119,0.092l-0.12,0.091l-0.12,0.09l-0.12,0.09l-0.121,0.089l-0.122,0.088l-0.122,0.087l-0.123,0.087l-0.124,0.086l-0.123,0.086l-0.125,0.084l-0.125,0.084l-0.125,0.083l-0.126,0.083l-0.127,0.082l-0.127,0.081l-0.128,0.08l-0.128,0.079l-0.128,0.079l-0.129,0.078l-0.13,0.077l-0.13,0.077l-0.131,0.075l-0.131,0.075l-0.132,0.074l-0.132,0.074l-0.132,0.072l-0.133,0.072l-0.134,0.071l-0.134,0.07l-0.134,0.07l-0.135,0.068l-0.136,0.068l-0.136,0.067l-0.136,0.067l-0.137,0.065l-0.137,0.065l-0.138,0.064l-0.138,0.063l-0.139,0.062l-0.139,0.061l-0.139,0.061l-0.14,0.059l-0.141,0.059l-0.141,0.058l-0.141,0.058l-0.142,0.056l-0.142,0.056l-0.142,0.054l-0.143,0.054l-0.143,0.053l-0.144,0.053l-0.144,0.051l-0.145,0.05l-0.145,0.05l-0.145,0.049l-0.146,0.048l-0.146,0.047l-0.147,0.046l-0.147,0.045l-0.147,0.044l-0.148,0.044l-0.148,0.042l-0.148,0.042l-0.149,0.041l-0.149,0.04l-0.15,0.039l-0.15,0.038l-0.15,0.037l-0.151,0.036l-0.151,0.036l-0.151,0.034l-0.152,0.034l-0.152,0.032l-0.152,0.032l-0.153,0.031l-0.153,0.03l-0.153,0.029l-0.154,0.028l-0.154,0.027l-0.154,0.026l-0.155,0.025l-0.154,0.024l-0.156,0.023l-0.155,0.023l-0.156,0.021l-0.156,0.02l-0.157,0.02l-0.157,0.018l-0.157,0.018l-0.157,0.016l-0.158,0.016l-0.158,0.014l-0.158,0.014l-0.158,0.012l-0.159,0.012l-0.159,0.011l-0.159,0.009l-0.16,0.009l-0.16,0.007l-0.16,0.007l-0.16,0.006l-0.161,0.004l-0.161,0.004l-0.161,0.002l-0.161,0.002l-0.162,0l-50,0l-0.161,0l-0.162,-0.002l-0.161,-0.002l-0.16,-0.004l-0.161,-0.004l-0.16,-0.006l-0.16,-0.007l-0.16,-0.007l-0.16,-0.009l-0.159,-0.009l-0.159,-0.011l-0.159,-0.012l-0.158,-0.012l-0.159,-0.014l-0.158,-0.014l-0.157,-0.016l-0.158,-0.016l-0.157,-0.018l-0.156,-0.018l-0.157,-0.02l-0.156,-0.02l-0.156,-0.021l-0.155,-0.023l-0.156,-0.023l-0.155,-0.024l-0.154,-0.025l-0.155,-0.026l-0.154,-0.027l-0.153,-0.028l-0.154,-0.029l-0.153,-0.03l-0.152,-0.031l-0.153,-0.032l-0.152,-0.032l-0.151,-0.034l-0.152,-0.034l-0.151,-0.036l-0.15,-0.036l-0.15,-0.037l-0.15,-0.038l-0.15,-0.039l-0.149,-0.04l-0.149,-0.041l-0.148,-0.042l-0.148,-0.042l-0.148,-0.044l-0.147,-0.044l-0.147,-0.045l-0.147,-0.046l-0.146,-0.047l-0.146,-0.048l-0.145,-0.049l-0.145,-0.05l-0.145,-0.05l-0.144,-0.051l-0.144,-0.053l-0.143,-0.053l-0.143,-0.054l-0.143,-0.054l-0.142,-0.056l-0.141,-0.056l-0.142,-0.058l-0.14,-0.058l-0.141,-0.059l-0.14,-0.059l-0.139,-0.061l-0.139,-0.061l-0.139,-0.062l-0.138,-0.063l-0.138,-0.064l-0.137,-0.065l-0.137,-0.065l-0.136,-0.067l-0.136,-0.067l-0.136,-0.068l-0.135,-0.068l-0.134,-0.07l-0.134,-0.07l-0.134,-0.071l-0.133,-0.072l-0.133,-0.072l-0.132,-0.074l-0.131,-0.074l-0.131,-0.075l-0.131,-0.075l-0.13,-0.077l-0.13,-0.077l-0.129,-0.078l-0.129,-0.079l-0.128,-0.079l-0.127,-0.08l-0.127,-0.081l-0.127,-0.082l-0.126,-0.083l-0.125,-0.083l-0.125,-0.084l-0.125,-0.084l-0.124,-0.086l-0.123,-0.086l-0.123,-0.087l-0.122,-0.087l-0.122,-0.088l-0.121,-0.089l-0.121,-0.09l-0.12,-0.09l-0.119,-0.091l-0.119,-0.092l-0.118,-0.093l-0.118,-0.093l-0.117,-0.094l-0.117,-0.094l-0.116,-0.095l-0.116,-0.096l-0.114,-0.097l-0.115,-0.097l-0.113,-0.098l-0.114,-0.099l-0.112,-0.099l-0.112,-0.1l-0.111,-0.1l-0.111,-0.102l-0.11,-0.102l-0.11,-0.102l-0.109,-0.103l-0.108,-0.104l-0.107,-0.105l-0.107,-0.105l-0.107,-0.105l-0.106,-0.107l-0.105,-0.107l-0.104,-0.107l-0.104,-0.109l-0.103,-0.109l-0.103,-0.109l-0.102,-0.11l-0.101,-0.111l-0.1,-0.111l-0.1,-0.112l-0.1,-0.113l-0.098,-0.113l-0.098,-0.113l-0.097,-0.115l-0.097,-0.115l-0.096,-0.115l-0.095,-0.116l-0.095,-0.117l-0.093,-0.117l-0.094,-0.118l-0.092,-0.118l-0.092,-0.119l-0.091,-0.12l-0.09,-0.12l-0.09,-0.12l-0.089,-0.121l-0.088,-0.122l-0.088,-0.122l-0.086,-0.123l-0.087,-0.124l-0.085,-0.123l-0.085,-0.125l-0.083,-0.125l-0.084,-0.125l-0.082,-0.126l-0.082,-0.127l-0.081,-0.127l-0.08,-0.128l-0.079,-0.128l-0.079,-0.128l-0.078,-0.129l-0.077,-0.13l-0.077,-0.13l-0.075,-0.131l-0.075,-0.131l-0.074,-0.132l-0.074,-0.132l-0.072,-0.132l-0.072,-0.133l-0.071,-0.134l-0.07,-0.134l-0.07,-0.134l-0.069,-0.135l-0.067,-0.136l-0.067,-0.136l-0.067,-0.136l-0.065,-0.137l-0.065,-0.137l-0.064,-0.138l-0.063,-0.138l-0.062,-0.139l-0.061,-0.139l-0.061,-0.139l-0.06,-0.14l-0.059,-0.141l-0.058,-0.141l-0.057,-0.141l-0.056,-0.142l-0.056,-0.142l-0.055,-0.142l-0.054,-0.143l-0.053,-0.143l-0.052,-0.144l-0.051,-0.144l-0.051,-0.145l-0.049,-0.145l-0.049,-0.145l-0.048,-0.146l-0.047,-0.146l-0.046,-0.147l-0.045,-0.147l-0.044,-0.147l-0.044,-0.148l-0.043,-0.148l-0.041,-0.148l-0.041,-0.149l-0.04,-0.149l-0.039,-0.15l-0.038,-0.15l-0.037,-0.15l-0.037,-0.151l-0.035,-0.151l-0.034,-0.151l-0.034,-0.152l-0.033,-0.152l-0.031,-0.152l-0.031,-0.153l-0.03,-0.153l-0.029,-0.153l-0.028,-0.154l-0.027,-0.154l-0.026,-0.154l-0.025,-0.155l-0.024,-0.154l-0.024,-0.156l-0.022,-0.155l-0.021,-0.156l-0.021,-0.156l-0.019,-0.157l-0.018,-0.157l-0.018,-0.157l-0.016,-0.157l-0.016,-0.158l-0.014,-0.158l-0.014,-0.158l-0.013,-0.158l-0.011,-0.159l-0.011,-0.159l-0.009,-0.159l-0.009,-0.16l-0.008,-0.16l-0.006,-0.16l-0.006,-0.16l-0.004,-0.161l-0.004,-0.161l-0.003,-0.161l-0.001,-0.161l-0.001,-0.162l0,-50.039l0.001,-0.162l0.001,-0.161l0.003,-0.161l0.004,-0.161l0.004,-0.16l0.006,-0.161l0.006,-0.16l0.008,-0.16l0.009,-0.159l0.009,-0.159l0.011,-0.16l0.011,-0.158l0.013,-0.159l0.014,-0.158l0.014,-0.158l0.016,-0.158l0.016,-0.157l0.018,-0.157l0.018,-0.157l0.019,-0.156l0.021,-0.156l0.021,-0.156l0.022,-0.156l0.024,-0.155l0.024,-0.155l0.025,-0.155l0.026,-0.154l0.027,-0.154l0.028,-0.154l0.029,-0.153l0.03,-0.153l0.031,-0.153l0.031,-0.152l0.033,-0.152l0.034,-0.152l0.034,-0.151l0.035,-0.151l0.037,-0.151l0.037,-0.15l0.038,-0.15l0.039,-0.149l0.04,-0.149l0.041,-0.149l0.041,-0.149l0.043,-0.148l0.044,-0.147l0.044,-0.148l0.045,-0.147l0.046,-0.146l0.047,-0.146l0.048,-0.146l0.049,-0.146l0.049,-0.145l0.051,-0.144l0.051,-0.144l0.052,-0.144l0.053,-0.143l0.054,-0.143l0.055,-0.143l0.056,-0.142l0.056,-0.142l0.057,-0.141l0.058,-0.141l0.059,-0.14l0.06,-0.14l0.061,-0.14l0.061,-0.139l0.062,-0.138l0.063,-0.139l0.064,-0.137l0.065,-0.138l0.065,-0.136l0.067,-0.137l0.067,-0.136l0.067,-0.135l0.069,-0.135l0.07,-0.135l0.07,-0.134l0.071,-0.133l0.072,-0.133l0.072,-0.133l0.074,-0.132l0.074,-0.132l0.075,-0.131l0.075,-0.13l0.077,-0.131l0.077,-0.129l0.078,-0.129l0.079,-0.129l0.079,-0.128l0.08,-0.128l0.081,-0.127l0.082,-0.126l0.082,-0.126l0.084,-0.126l0.083,-0.125l0.085,-0.124l0.085,-0.124l0.087,-0.123l0.086,-0.123l0.088,-0.122l0.088,-0.122l0.089,-0.121l0.09,-0.121l0.09,-0.12l0.091,-0.119l0.092,-0.119l0.092,-0.119l0.094,-0.117l0.093,-0.118l0.095,-0.116l0.095,-0.116l0.096,-0.116l0.097,-0.115l0.097,-0.114l0.098,-0.114l0.098,-0.113l0.1,-0.112l0.1,-0.112l0.1,-0.112l0.101,-0.11l0.102,-0.111l0.103,-0.109l0.103,-0.109l0.104,-0.108l0.104,-0.108l0.105,-0.107l0.106,-0.106l0.107,-0.106l0.107,-0.105l0.107,-0.104l0.108,-0.104l0.109,-0.103l0.11,-0.103l0.11,-0.102l0.111,-0.101l0.111,-0.101l0.112,-0.1l0.112,-0.099l0.114,-0.099l0.113,-0.097l0.115,-0.098l0.114,-0.096l0.116,-0.096l0.116,-0.095l0.117,-0.095l0.117,-0.094l0.118,-0.093l0.118,-0.092l0.119,-0.092l0.119,-0.091l0.12,-0.091l0.121,-0.089l0.121,-0.089l0.122,-0.088l0.122,-0.088l0.123,-0.087l0.123,-0.086l0.124,-0.085l0.125,-0.085l0.125,-0.084l0.125,-0.083l0.126,-0.082l0.127,-0.082l0.127,-0.081l0.127,-0.08l0.128,-0.08l0.129,-0.078l0.129,-0.078l0.13,-0.078l0.13,-0.076l0.131,-0.076l0.131,-0.075l0.131,-0.074l0.132,-0.073l0.133,-0.073l0.133,-0.072l0.134,-0.071l0.134,-0.07l0.134,-0.069l0.135,-0.069l0.136,-0.068l0.136,-0.067l0.136,-0.066l0.137,-0.066l0.137,-0.064l0.138,-0.064l0.138,-0.063l0.139,-0.062l0.139,-0.062l0.139,-0.06l0.14,-0.06l0.141,-0.059l0.14,-0.058l0.142,-0.057l0.141,-0.057l0.142,-0.055l0.143,-0.055l0.143,-0.054l0.143,-0.053l0.144,-0.052l0.144,-0.051l0.145,-0.051l0.145,-0.049l0.145,-0.049l0.146,-0.048l0.146,-0.047l0.147,-0.046l0.147,-0.045l0.147,-0.045l0.148,-0.043l0.148,-0.043l0.148,-0.042l0.149,-0.04l0.149,-0.04l0.15,-0.039l0.15,-0.038l0.15,-0.038l0.15,-0.036l0.151,-0.035l0.152,-0.035l0.151,-0.033l0.152,-0.033l0.153,-0.032l0.152,-0.03l0.153,-0.03l0.154,-0.029l0.153,-0.028l0.154,-0.027l0.155,-0.026l0.154,-0.025l0.155,-0.025l0.156,-0.023l0.155,-0.022l0.156,-0.022l0.156,-0.02l0.157,-0.019l0.156,-0.019l0.157,-0.017l0.158,-0.017l0.157,-0.015l0.158,-0.015l0.159,-0.013l0.158,-0.013l0.159,-0.012l0.159,-0.01l0.159,-0.01l0.16,-0.008l0.16,-0.008l0.16,-0.007l0.16,-0.005l0.161,-0.005l0.16,-0.003l0.161,-0.003l0.162,-0.001l0.161,-0.001l50,0l0.162,0.001Zm-50.131,16.005l-0.091,0.001l-0.061,0l-0.052,0.001l-0.067,0.002l-0.058,0.001l-0.059,0.002l-0.057,0.003l-0.058,0.002l-0.064,0.004l-0.056,0.003l-0.056,0.004l-0.055,0.004l-0.062,0.005l-0.062,0.005l-0.046,0.004l-0.061,0.006l-0.061,0.007l-0.052,0.006l-0.059,0.007l-0.051,0.006l-0.059,0.008l-0.058,0.008l-0.05,0.007l-0.065,0.009l-0.056,0.009l-0.049,0.008l-0.056,0.01l-0.054,0.009l-0.055,0.01l-0.055,0.01l-0.054,0.011l-0.053,0.011l-0.053,0.011l-0.06,0.013l-0.053,0.011l-0.051,0.012l-0.058,0.013l-0.052,0.013l-0.05,0.012l-0.049,0.013l-0.057,0.015l-0.057,0.015l-0.049,0.014l-0.056,0.015l-0.047,0.014l-0.055,0.016l-0.055,0.016l-0.046,0.015l-0.053,0.016l-0.053,0.017l-0.053,0.018l-0.052,0.017l-0.052,0.018l-0.052,0.018l-0.05,0.018l-0.05,0.018l-0.051,0.019l-0.051,0.019l-0.049,0.019l-0.055,0.022l-0.048,0.019l-0.048,0.019l-0.055,0.023l-0.041,0.017l-0.055,0.024l-0.053,0.022l-0.045,0.02l-0.053,0.024l-0.046,0.021l-0.051,0.024l-0.051,0.024l-0.045,0.021l-0.05,0.025l-0.05,0.024l-0.05,0.025l-0.042,0.022l-0.05,0.025l-0.055,0.029l-0.042,0.022l-0.046,0.026l-0.053,0.028l-0.041,0.023l-0.048,0.027l-0.052,0.03l-0.045,0.026l-0.047,0.027l-0.044,0.027l-0.049,0.029l-0.044,0.027l-0.046,0.029l-0.05,0.031l-0.048,0.031l-0.041,0.026l-0.043,0.029l-0.049,0.032l-0.046,0.031l-0.046,0.031l-0.041,0.028l-0.047,0.033l-0.046,0.033l-0.038,0.027l-0.046,0.034l-0.045,0.032l-0.043,0.032l-0.049,0.037l-0.044,0.034l-0.037,0.028l-0.041,0.032l-0.049,0.039l-0.041,0.033l-0.04,0.033l-0.043,0.035l-0.041,0.033l-0.045,0.038l-0.044,0.038l-0.038,0.032l-0.039,0.035l-0.044,0.039l-0.037,0.033l-0.044,0.039l-0.041,0.038l-0.036,0.033l-0.043,0.04l-0.036,0.035l-0.043,0.04l-0.044,0.043l-0.033,0.033l-0.035,0.035l-0.044,0.044l-0.037,0.037l-0.038,0.04l-0.039,0.04l-0.036,0.038l-0.038,0.041l-0.036,0.039l-0.039,0.043l-0.038,0.041l-0.035,0.04l-0.033,0.037l-0.038,0.044l-0.038,0.044l-0.034,0.04l-0.034,0.041l-0.032,0.038l-0.037,0.045l-0.037,0.046l-0.035,0.043l-0.031,0.039l-0.034,0.043l-0.033,0.044l-0.033,0.043l-0.033,0.044l-0.031,0.042l-0.036,0.048l-0.03,0.041l-0.032,0.046l-0.033,0.046l-0.027,0.039l-0.032,0.046l-0.031,0.046l-0.032,0.048l-0.029,0.044l-0.029,0.044l-0.031,0.048l-0.029,0.045l-0.028,0.044l-0.03,0.049l-0.028,0.046l-0.026,0.042l-0.03,0.051l-0.029,0.049l-0.025,0.043l-0.027,0.048l-0.026,0.047l-0.027,0.048l-0.028,0.051l-0.024,0.045l-0.024,0.045l-0.026,0.049l-0.027,0.052l-0.023,0.046l-0.023,0.046l-0.025,0.05l-0.023,0.047l-0.024,0.051l-0.024,0.05l-0.022,0.048l-0.022,0.048l-0.023,0.052l-0.023,0.051l-0.019,0.045l-0.021,0.05l-0.022,0.052l-0.022,0.053l-0.02,0.05l-0.019,0.047l-0.02,0.05l-0.019,0.05l-0.02,0.054l-0.019,0.052l-0.018,0.047l-0.018,0.052l-0.018,0.053l-0.017,0.048l-0.018,0.055l-0.018,0.053l-0.015,0.047l-0.017,0.053l-0.017,0.056l-0.015,0.05l-0.014,0.049l-0.016,0.053l-0.015,0.054l-0.014,0.053l-0.015,0.054l-0.014,0.055l-0.013,0.051l-0.013,0.051l-0.013,0.055l-0.013,0.054l-0.012,0.053l-0.012,0.055l-0.012,0.057l-0.01,0.049l-0.011,0.053l-0.011,0.058l-0.01,0.054l-0.01,0.055l-0.01,0.054l-0.009,0.056l-0.01,0.058l-0.008,0.052l-0.008,0.052l-0.008,0.058l-0.008,0.059l-0.007,0.054l-0.008,0.059l-0.006,0.056l-0.006,0.052l-0.006,0.061l-0.006,0.057l-0.005,0.057l-0.005,0.058l-0.004,0.054l-0.005,0.06l-0.004,0.056l-0.003,0.059l-0.003,0.061l-0.003,0.053l-0.002,0.062l-0.002,0.058l-0.002,0.059l-0.002,0.063l-0.001,0.06l0,0.056l0,0.084l0,49.993l0,0.084l0,0.057l0.001,0.06l0.002,0.063l0.002,0.058l0.002,0.059l0.002,0.061l0.003,0.053l0.003,0.061l0.004,0.06l0.003,0.056l0.005,0.058l0.004,0.055l0.005,0.059l0.005,0.057l0.006,0.057l0.006,0.061l0.006,0.052l0.006,0.055l0.008,0.059l0.007,0.055l0.008,0.057l0.008,0.058l0.008,0.054l0.008,0.053l0.009,0.055l0.01,0.056l0.01,0.055l0.01,0.057l0.01,0.053l0.011,0.056l0.011,0.056l0.01,0.048l0.012,0.057l0.013,0.056l0.011,0.049l0.013,0.056l0.013,0.055l0.013,0.05l0.014,0.055l0.013,0.052l0.014,0.052l0.016,0.058l0.014,0.051l0.015,0.051l0.016,0.053l0.015,0.051l0.016,0.051l0.016,0.054l0.017,0.051l0.017,0.053l0.017,0.05l0.017,0.048l0.02,0.058l0.017,0.049l0.017,0.045l0.021,0.057l0.02,0.054l0.018,0.048l0.019,0.047l0.02,0.05l0.021,0.053l0.021,0.05l0.02,0.049l0.023,0.052l0.021,0.048l0.021,0.049l0.023,0.052l0.022,0.048l0.021,0.044l0.025,0.054l0.024,0.05l0.023,0.047l0.025,0.05l0.023,0.046l0.023,0.046l0.027,0.053l0.026,0.048l0.024,0.046l0.026,0.048l0.026,0.048l0.027,0.047l0.026,0.048l0.025,0.044l0.027,0.047l0.032,0.053l0.025,0.042l0.028,0.047l0.028,0.045l0.03,0.049l0.031,0.049l0.026,0.041l0.028,0.044l0.032,0.048l0.031,0.047l0.03,0.044l0.029,0.042l0.031,0.046l0.033,0.047l0.03,0.043l0.032,0.045l0.033,0.045l0.033,0.045l0.031,0.042l0.03,0.04l0.036,0.046l0.033,0.044l0.034,0.044l0.035,0.043l0.031,0.039l0.037,0.045l0.033,0.041l0.032,0.039l0.041,0.048l0.034,0.041l0.035,0.04l0.038,0.044l0.033,0.037l0.035,0.039l0.038,0.042l0.039,0.043l0.036,0.038l0.034,0.037l0.04,0.042l0.043,0.045l0.034,0.035l0.037,0.038l0.039,0.039l0.04,0.04l0.037,0.037l0.036,0.034l0.042,0.041l0.041,0.038l0.043,0.04l0.04,0.038l0.037,0.033l0.044,0.04l0.041,0.037l0.035,0.03l0.044,0.039l0.042,0.037l0.04,0.033l0.041,0.034l0.045,0.038l0.043,0.035l0.04,0.033l0.046,0.037l0.039,0.03l0.041,0.032l0.047,0.037l0.044,0.033l0.044,0.033l0.043,0.032l0.039,0.029l0.047,0.034l0.049,0.035l0.04,0.028l0.047,0.033l0.046,0.032l0.041,0.028l0.046,0.031l0.043,0.028l0.049,0.032l0.047,0.031l0.042,0.026l0.044,0.028l0.052,0.032l0.05,0.031l0.043,0.025l0.044,0.027l0.047,0.028l0.045,0.026l0.046,0.026l0.054,0.03l0.047,0.027l0.04,0.021l0.053,0.029l0.049,0.026l0.042,0.022l0.055,0.029l0.05,0.025l0.043,0.021l0.05,0.025l0.05,0.024l0.045,0.022l0.051,0.024l0.051,0.024l0.046,0.021l0.053,0.023l0.045,0.02l0.046,0.02l0.055,0.024l0.055,0.023l0.048,0.019l0.047,0.02l0.056,0.022l0.048,0.019l0.042,0.016l0.058,0.022l0.058,0.021l0.043,0.016l0.05,0.017l0.052,0.018l0.052,0.018l0.052,0.018l0.053,0.017l0.053,0.017l0.046,0.015l0.053,0.016l0.055,0.016l0.055,0.017l0.047,0.013l0.056,0.016l0.056,0.015l0.042,0.012l0.057,0.015l0.057,0.014l0.05,0.012l0.06,0.015l0.05,0.012l0.051,0.011l0.061,0.014l0.052,0.011l0.045,0.009l0.053,0.011l0.062,0.012l0.055,0.01l0.055,0.01l0.054,0.01l0.056,0.009l0.056,0.009l0.057,0.009l0.049,0.008l0.058,0.008l0.058,0.008l0.059,0.008l0.058,0.007l0.044,0.005l0.06,0.007l0.061,0.006l0.053,0.005l0.061,0.006l0.062,0.005l0.055,0.005l0.055,0.004l0.056,0.003l0.056,0.004l0.064,0.003l0.058,0.003l0.057,0.002l0.059,0.002l0.058,0.002l0.059,0.001l0.06,0.001l0.061,0.001l0.084,0l49.953,0l0.084,0l0.061,-0.001l0.059,-0.001l0.059,-0.001l0.059,-0.002l0.059,-0.002l0.057,-0.002l0.058,-0.003l0.064,-0.003l0.056,-0.004l0.056,-0.003l0.055,-0.004l0.054,-0.005l0.062,-0.005l0.062,-0.006l0.053,-0.005l0.06,-0.006l0.061,-0.007l0.043,-0.005l0.059,-0.007l0.059,-0.008l0.059,-0.008l0.057,-0.008l0.048,-0.008l0.057,-0.008l0.057,-0.01l0.056,-0.009l0.054,-0.01l0.055,-0.01l0.055,-0.01l0.062,-0.012l0.052,-0.011l0.046,-0.009l0.053,-0.012l0.059,-0.013l0.052,-0.011l0.05,-0.012l0.059,-0.015l0.052,-0.012l0.055,-0.014l0.058,-0.015l0.043,-0.012l0.055,-0.015l0.055,-0.016l0.048,-0.013l0.054,-0.016l0.054,-0.016l0.056,-0.018l0.046,-0.014l0.051,-0.017l0.053,-0.017l0.054,-0.018l0.053,-0.018l0.049,-0.017l0.051,-0.018l0.044,-0.016l0.056,-0.021l0.057,-0.022l0.043,-0.016l0.05,-0.02l0.054,-0.021l0.047,-0.019l0.049,-0.02l0.056,-0.024l0.053,-0.022l0.045,-0.02l0.048,-0.021l0.052,-0.023l0.047,-0.022l0.051,-0.024l0.048,-0.022l0.047,-0.023l0.05,-0.024l0.05,-0.025l0.043,-0.021l0.049,-0.025l0.056,-0.029l0.042,-0.022l0.049,-0.026l0.051,-0.028l0.041,-0.022l0.048,-0.027l0.054,-0.03l0.047,-0.027l0.044,-0.025l0.046,-0.028l0.047,-0.028l0.039,-0.023l0.052,-0.032l0.052,-0.032l0.042,-0.027l0.045,-0.029l0.048,-0.03l0.047,-0.031l0.041,-0.027l0.046,-0.031l0.045,-0.03l0.046,-0.032l0.045,-0.032l0.04,-0.028l0.047,-0.034l0.049,-0.035l0.039,-0.029l0.04,-0.03l0.049,-0.036l0.044,-0.034l0.045,-0.035l0.039,-0.03l0.038,-0.031l0.048,-0.038l0.043,-0.035l0.043,-0.035l0.043,-0.036l0.038,-0.032l0.042,-0.035l0.043,-0.037l0.042,-0.037l0.037,-0.032l0.041,-0.037l0.046,-0.042l0.037,-0.033l0.036,-0.034l0.045,-0.042l0.04,-0.038l0.041,-0.039l0.039,-0.038l0.036,-0.035l0.039,-0.04l0.04,-0.039l0.034,-0.035l0.039,-0.041l0.043,-0.044l0.038,-0.04l0.034,-0.037l0.034,-0.036l0.041,-0.045l0.038,-0.042l0.033,-0.037l0.037,-0.042l0.036,-0.041l0.032,-0.038l0.037,-0.043l0.043,-0.051l0.032,-0.038l0.031,-0.039l0.035,-0.043l0.031,-0.039l0.038,-0.048l0.035,-0.044l0.029,-0.038l0.038,-0.049l0.03,-0.04l0.029,-0.04l0.037,-0.05l0.033,-0.045l0.028,-0.039l0.032,-0.046l0.035,-0.049l0.027,-0.041l0.029,-0.042l0.031,-0.047l0.034,-0.05l0.029,-0.045l0.027,-0.041l0.028,-0.044l0.032,-0.052l0.029,-0.046l0.026,-0.042l0.032,-0.053l0.025,-0.043l0.028,-0.046l0.027,-0.047l0.028,-0.05l0.027,-0.048l0.023,-0.041l0.028,-0.051l0.026,-0.048l0.022,-0.042l0.029,-0.056l0.026,-0.049l0.021,-0.042l0.025,-0.05l0.025,-0.05l0.024,-0.05l0.024,-0.051l0.023,-0.047l0.02,-0.044l0.023,-0.051l0.024,-0.052l0.023,-0.052l0.021,-0.048l0.02,-0.049l0.02,-0.046l0.022,-0.053l0.023,-0.057l0.017,-0.042l0.018,-0.048l0.021,-0.054l0.019,-0.051l0.02,-0.053l0.017,-0.049l0.018,-0.049l0.021,-0.061l0.016,-0.045l0.016,-0.05l0.018,-0.053l0.015,-0.048l0.019,-0.06l0.014,-0.045l0.016,-0.054l0.017,-0.056l0.013,-0.048l0.016,-0.055l0.014,-0.05l0.015,-0.056l0.014,-0.056l0.013,-0.051l0.013,-0.05l0.012,-0.051l0.014,-0.06l0.011,-0.049l0.012,-0.052l0.013,-0.061l0.011,-0.052l0.011,-0.056l0.01,-0.052l0.01,-0.053l0.01,-0.057l0.01,-0.055l0.01,-0.056l0.008,-0.055l0.008,-0.049l0.009,-0.058l0.008,-0.058l0.008,-0.057l0.008,-0.059l0.006,-0.051l0.007,-0.059l0.006,-0.052l0.006,-0.061l0.006,-0.061l0.005,-0.053l0.005,-0.055l0.004,-0.055l0.005,-0.062l0.003,-0.056l0.004,-0.056l0.003,-0.065l0.003,-0.057l0.002,-0.057l0.002,-0.059l0.002,-0.058l0.001,-0.067l0.001,-0.052l0.001,-0.061l0,-0.092l0,-49.977l0,-0.092l-0.001,-0.06l-0.001,-0.052l-0.001,-0.067l-0.002,-0.059l-0.002,-0.058l-0.002,-0.058l-0.003,-0.057l-0.003,-0.065l-0.004,-0.055l-0.003,-0.056l-0.005,-0.063l-0.004,-0.055l-0.005,-0.054l-0.005,-0.053l-0.006,-0.061l-0.006,-0.061l-0.006,-0.052l-0.007,-0.06l-0.006,-0.051l-0.008,-0.058l-0.008,-0.059l-0.008,-0.058l-0.009,-0.056l-0.007,-0.048l-0.01,-0.058l-0.009,-0.056l-0.01,-0.054l-0.01,-0.055l-0.01,-0.054l-0.011,-0.055l-0.01,-0.052l-0.011,-0.053l-0.013,-0.061l-0.012,-0.051l-0.011,-0.053l-0.014,-0.057l-0.012,-0.052l-0.013,-0.051l-0.012,-0.048l-0.015,-0.058l-0.016,-0.058l-0.012,-0.046l-0.017,-0.057l-0.014,-0.049l-0.015,-0.053l-0.016,-0.054l-0.015,-0.048l-0.02,-0.061l-0.013,-0.043l-0.018,-0.053l-0.018,-0.055l-0.016,-0.045l-0.019,-0.056l-0.019,-0.052l-0.018,-0.051l-0.018,-0.048l-0.019,-0.051l-0.022,-0.057l-0.02,-0.05l-0.015,-0.04l-0.022,-0.053l-0.023,-0.057l-0.021,-0.048l-0.019,-0.046l-0.02,-0.045l-0.024,-0.055l-0.024,-0.052l-0.023,-0.051l-0.022,-0.048l-0.021,-0.044l-0.024,-0.05l-0.024,-0.051l-0.025,-0.05l-0.025,-0.049l-0.021,-0.043l-0.026,-0.049l-0.029,-0.055l-0.022,-0.042l-0.024,-0.045l-0.03,-0.054l-0.023,-0.042l-0.027,-0.047l-0.03,-0.054l-0.025,-0.043l-0.026,-0.043l-0.03,-0.051l-0.029,-0.048l-0.026,-0.043l-0.029,-0.046l-0.03,-0.047l-0.03,-0.048l-0.029,-0.045l-0.027,-0.041l-0.031,-0.047l-0.034,-0.05l-0.031,-0.047l-0.028,-0.04l-0.029,-0.042l-0.035,-0.049l-0.028,-0.04l-0.03,-0.041l-0.04,-0.054l-0.029,-0.039l-0.033,-0.044l-0.035,-0.046l-0.029,-0.038l-0.035,-0.044l-0.035,-0.044l-0.034,-0.043l-0.035,-0.043l-0.035,-0.043l-0.032,-0.038l-0.036,-0.043l-0.036,-0.043l-0.036,-0.041l-0.036,-0.042l-0.037,-0.042l-0.033,-0.037l-0.038,-0.041l-0.041,-0.045l-0.034,-0.037l-0.038,-0.041l-0.034,-0.036l-0.039,-0.04l-0.043,-0.044l-0.034,-0.035l-0.044,-0.044l-0.035,-0.035l-0.031,-0.031l-0.049,-0.047l-0.04,-0.038l-0.036,-0.035l-0.045,-0.042l-0.032,-0.029l-0.041,-0.038l-0.046,-0.041l-0.037,-0.033l-0.046,-0.041l-0.037,-0.033l-0.038,-0.032l-0.047,-0.04l-0.043,-0.036l-0.038,-0.032l-0.043,-0.035l-0.043,-0.034l-0.043,-0.035l-0.048,-0.038l-0.039,-0.031l-0.035,-0.027l-0.044,-0.033l-0.054,-0.04l-0.04,-0.031l-0.045,-0.032l-0.049,-0.036l-0.035,-0.025l-0.046,-0.033l-0.045,-0.032l-0.041,-0.027l-0.05,-0.034l-0.046,-0.032l-0.047,-0.03l-0.041,-0.027l-0.042,-0.027l-0.051,-0.033l-0.048,-0.03l-0.046,-0.029l-0.046,-0.028l-0.045,-0.027l-0.047,-0.028l-0.046,-0.027l-0.044,-0.025l-0.053,-0.031l-0.048,-0.027l-0.041,-0.023l-0.054,-0.029l-0.045,-0.025l-0.042,-0.022l-0.056,-0.029l-0.049,-0.025l-0.042,-0.022l-0.05,-0.025l-0.05,-0.024l-0.05,-0.025l-0.047,-0.022l-0.048,-0.023l-0.051,-0.023l-0.047,-0.022l-0.052,-0.023l-0.048,-0.021l-0.052,-0.023l-0.053,-0.023l-0.042,-0.017l-0.056,-0.023l-0.047,-0.019l-0.047,-0.019l-0.057,-0.022l-0.05,-0.02l-0.05,-0.019l-0.049,-0.017l-0.051,-0.019l-0.051,-0.018l-0.049,-0.017l-0.053,-0.018l-0.054,-0.019l-0.053,-0.017l-0.051,-0.016l-0.053,-0.017l-0.049,-0.015l-0.054,-0.016l-0.054,-0.016l-0.048,-0.014l-0.055,-0.015l-0.048,-0.014l-0.058,-0.015l-0.058,-0.015l-0.047,-0.012l-0.052,-0.013l-0.051,-0.013l-0.058,-0.013l-0.052,-0.012l-0.051,-0.011l-0.061,-0.013l-0.054,-0.011l-0.052,-0.011l-0.054,-0.011l-0.055,-0.01l-0.055,-0.01l-0.054,-0.009l-0.056,-0.01l-0.049,-0.008l-0.057,-0.009l-0.064,-0.009l-0.049,-0.007l-0.059,-0.008l-0.059,-0.008l-0.051,-0.006l-0.059,-0.007l-0.053,-0.006l-0.06,-0.007l-0.061,-0.006l-0.046,-0.004l-0.062,-0.005l-0.062,-0.005l-0.055,-0.004l-0.056,-0.004l-0.056,-0.003l-0.064,-0.004l-0.058,-0.002l-0.057,-0.003l-0.059,-0.002l-0.059,-0.001l-0.066,-0.002l-0.053,-0.001l-0.06,0l-0.092,-0.001l-49.938,0Z" style="fill:#fff;"/><path d="M39.652,128.023l0,-63.371c0,-13.798 11.202,-25 25,-25l63.371,0" style="fill:none;stroke:#fff;stroke-width:16.01px;"/></g></g></svg>