<?xml version="1.0" encoding="UTF-8" standalone="no"?><!DOCTYPE svg PUBLIC "-//W3C//DTD SVG 1.1//EN" "http://www.w3.org/Graphics/SVG/1.1/DTD/svg11.dtd"><svg width="100%" height="100%" viewBox="0 0 200 200" version="1.1" xmlns="http://www.w3.org/2000/svg" xmlns:xlink="http://www.w3.org/1999/xlink" xml:space="preserve" xmlns:serif="http://www.serif.com/" style="fill-rule:evenodd;clip-rule:evenodd;stroke-linejoin:round;stroke-miterlimit:1.41421;"><rect id="settings" x="0" y="0" width="200" height="200" style="fill:none;"/><g id="settings1" serif:id="settings"><path d="M108.212,29.782c-5.456,-0.638 -10.968,-0.638 -16.424,0l-2.427,21.447c-5.8,1.265 -11.328,3.555 -16.324,6.762l-16.882,-13.45c-4.309,3.407 -8.207,7.305 -11.614,11.614l13.45,16.882c-3.207,4.996 -5.497,10.524 -6.762,16.324l-21.447,2.427c-0.638,5.456 -0.638,10.968 0,16.424l21.447,2.427c1.265,5.8 3.555,11.328 6.762,16.324l-13.45,16.882c3.407,4.309 7.305,8.207 11.614,11.614l16.882,-13.45c4.996,3.207 10.524,5.497 16.324,6.762l2.427,21.447c5.456,0.638 10.968,0.638 16.424,0l2.427,-21.447c5.8,-1.265 11.328,-3.555 16.324,-6.762l16.882,13.45c4.309,-3.407 8.207,-7.305 11.614,-11.614l-13.45,-16.882c3.207,-4.996 5.497,-10.524 6.762,-16.324l21.447,-2.427c0.638,-5.456 0.638,-10.968 0,-16.424l-21.447,-2.427c-1.265,-5.8 -3.555,-11.328 -6.762,-16.324l13.45,-16.882c-3.407,-4.309 -7.305,-8.207 -11.614,-11.614l-16.882,13.45c-4.996,-3.207 -10.524,-5.497 -16.324,-6.762l-2.427,-21.447Zm-8.212,44.991c13.923,0 25.227,11.304 25.227,25.227c0,13.923 -11.304,25.227 -25.227,25.227c-13.923,0 -25.227,-11.304 -25.227,-25.227c0,-13.923 11.304,-25.227 25.227,-25.227Z" style="fill:#fff;"/></g></svg>