<?xml version="1.0" encoding="UTF-8" standalone="no"?><!DOCTYPE svg PUBLIC "-//W3C//DTD SVG 1.1//EN" "http://www.w3.org/Graphics/SVG/1.1/DTD/svg11.dtd"><svg width="100%" height="100%" viewBox="0 0 200 200" version="1.1" xmlns="http://www.w3.org/2000/svg" xmlns:xlink="http://www.w3.org/1999/xlink" xml:space="preserve" xmlns:serif="http://www.serif.com/" style="fill-rule:evenodd;clip-rule:evenodd;stroke-linejoin:round;stroke-miterlimit:1.41421;"><rect id="show" x="0" y="0" width="200" height="200" style="fill:none;"/><clipPath id="_clip1"><rect x="0" y="0" width="200" height="200"/></clipPath><g clip-path="url(#_clip1)"><g id="show1" serif:id="show"><path d="M100.323,0.001l0.323,0.001l0.323,0.003l0.323,0.003l0.322,0.005l0.322,0.005l0.322,0.007l0.321,0.008l0.322,0.008l0.321,0.01l0.321,0.011l0.32,0.011l0.32,0.013l0.32,0.014l0.32,0.015l0.32,0.015l0.319,0.017l0.319,0.018l0.319,0.018l0.318,0.02l0.318,0.021l0.318,0.021l0.318,0.023l0.317,0.024l0.317,0.024l0.317,0.026l0.317,0.027l0.316,0.027l0.316,0.029l0.316,0.03l0.315,0.03l0.315,0.032l0.315,0.032l0.315,0.034l0.314,0.034l0.314,0.036l0.314,0.036l0.313,0.037l0.313,0.039l0.313,0.039l0.312,0.04l0.313,0.042l0.312,0.042l0.311,0.043l0.311,0.044l0.311,0.045l0.311,0.046l0.31,0.047l0.311,0.048l0.309,0.049l0.31,0.05l0.309,0.051l0.309,0.051l0.308,0.053l0.308,0.054l0.308,0.054l0.308,0.056l0.307,0.056l0.307,0.057l0.306,0.059l0.306,0.059l0.306,0.06l0.306,0.061l0.305,0.062l0.305,0.063l0.304,0.064l0.304,0.065l0.304,0.066l0.304,0.066l0.303,0.068l0.303,0.068l0.302,0.07l0.302,0.07l0.302,0.071l0.301,0.072l0.302,0.073l0.3,0.074l0.301,0.075l0.3,0.076l0.299,0.077l0.299,0.077l0.299,0.079l0.299,0.079l0.298,0.08l0.298,0.081l0.297,0.082l0.297,0.083l0.297,0.084l0.296,0.085l0.296,0.086l0.296,0.086l0.295,0.088l0.295,0.088l0.294,0.089l0.295,0.09l0.293,0.091l0.294,0.092l0.292,0.092l0.293,0.094l0.292,0.094l0.292,0.096l0.291,0.096l0.291,0.097l0.291,0.098l0.29,0.099l0.29,0.099l0.289,0.101l0.289,0.101l0.288,0.102l0.288,0.103l0.288,0.104l0.288,0.105l0.286,0.106l0.287,0.106l0.286,0.108l0.286,0.108l0.285,0.109l0.285,0.11l0.284,0.11l0.284,0.112l0.284,0.112l0.283,0.114l0.283,0.114l0.282,0.115l0.282,0.115l0.281,0.117l0.281,0.117l0.281,0.119l0.28,0.119l0.28,0.12l0.279,0.12l0.279,0.122l0.278,0.122l0.278,0.124l0.278,0.124l0.277,0.124l0.276,0.126l0.277,0.127l0.275,0.127l0.276,0.128l0.274,0.129l0.275,0.13l0.274,0.13l0.273,0.131l0.273,0.133l0.273,0.132l0.272,0.134l0.271,0.135l0.271,0.135l0.271,0.136l0.27,0.137l0.27,0.138l0.269,0.138l0.269,0.14l0.268,0.14l0.268,0.141l0.267,0.141l0.267,0.143l0.267,0.143l0.266,0.144l0.265,0.145l0.265,0.145l0.264,0.147l0.264,0.147l0.264,0.148l0.263,0.148l0.262,0.15l0.262,0.15l0.262,0.151l0.261,0.152l0.26,0.152l0.26,0.153l0.26,0.154l0.259,0.155l0.258,0.156l0.258,0.156l0.258,0.157l0.257,0.158l0.256,0.158l0.256,0.16l0.255,0.16l0.255,0.16l0.255,0.162l0.254,0.162l0.253,0.163l0.253,0.164l0.252,0.165l0.252,0.165l0.251,0.166l0.251,0.167l0.25,0.167l0.25,0.168l0.249,0.169l0.248,0.17l0.248,0.17l0.248,0.171l0.247,0.172l0.246,0.173l0.246,0.173l0.246,0.174l0.244,0.174l0.245,0.176l0.243,0.176l0.244,0.177l0.242,0.177l0.242,0.179l0.242,0.179l0.241,0.179l0.24,0.181l0.24,0.181l0.239,0.182l0.239,0.182l0.238,0.183l0.238,0.184l0.237,0.185l0.236,0.185l0.236,0.186l0.235,0.187l0.235,0.187l0.234,0.188l0.234,0.189l0.233,0.189l0.232,0.19l0.232,0.191l0.231,0.192l0.231,0.192l0.23,0.193l0.229,0.193l0.229,0.194l0.229,0.195l0.227,0.196l0.228,0.196l0.226,0.197l0.226,0.197l0.225,0.198l0.225,0.199l0.224,0.2l0.224,0.2l0.223,0.201l0.222,0.201l0.222,0.202l0.221,0.203l0.22,0.204l0.22,0.204l0.22,0.204l0.218,0.206l0.218,0.206l0.218,0.207l0.217,0.207l0.216,0.208l0.215,0.209l0.215,0.209l0.215,0.21l0.213,0.21l0.213,0.211l0.213,0.212l0.212,0.213l0.211,0.213l0.21,0.213l0.21,0.215l0.209,0.215l0.209,0.215l0.208,0.216l0.207,0.217l0.207,0.218l0.206,0.218l0.206,0.218l0.204,0.22l0.204,0.22l0.204,0.22l0.203,0.221l0.202,0.222l0.201,0.222l0.201,0.223l0.2,0.224l0.2,0.224l0.199,0.225l0.198,0.225l0.197,0.226l0.197,0.226l0.196,0.228l0.196,0.227l0.195,0.229l0.194,0.229l0.193,0.229l0.193,0.23l0.192,0.231l0.192,0.231l0.191,0.232l0.19,0.232l0.189,0.233l0.189,0.234l0.188,0.234l0.187,0.235l0.187,0.235l0.186,0.236l0.185,0.236l0.185,0.237l0.184,0.238l0.183,0.238l0.182,0.239l0.182,0.239l0.181,0.24l0.181,0.24l0.179,0.241l0.179,0.242l0.179,0.242l0.177,0.242l0.177,0.244l0.176,0.243l0.176,0.245l0.174,0.244l0.174,0.246l0.173,0.246l0.173,0.246l0.172,0.247l0.171,0.248l0.17,0.248l0.17,0.248l0.169,0.249l0.168,0.25l0.167,0.25l0.167,0.251l0.166,0.251l0.165,0.252l0.165,0.252l0.164,0.253l0.163,0.253l0.162,0.254l0.162,0.255l0.16,0.255l0.16,0.255l0.16,0.256l0.158,0.256l0.158,0.257l0.157,0.258l0.156,0.258l0.156,0.258l0.155,0.259l0.154,0.26l0.153,0.26l0.152,0.26l0.152,0.261l0.151,0.262l0.15,0.262l0.15,0.262l0.148,0.263l0.148,0.264l0.147,0.264l0.147,0.264l0.145,0.265l0.145,0.265l0.144,0.266l0.143,0.267l0.143,0.267l0.141,0.267l0.141,0.268l0.14,0.268l0.14,0.269l0.138,0.269l0.138,0.27l0.137,0.27l0.136,0.271l0.135,0.271l0.135,0.271l0.134,0.272l0.132,0.273l0.133,0.273l0.131,0.273l0.13,0.274l0.13,0.275l0.129,0.274l0.128,0.276l0.127,0.275l0.127,0.277l0.126,0.276l0.124,0.277l0.124,0.278l0.124,0.278l0.122,0.278l0.122,0.279l0.12,0.279l0.12,0.28l0.119,0.28l0.119,0.281l0.117,0.281l0.117,0.281l0.115,0.282l0.115,0.282l0.114,0.283l0.114,0.283l0.112,0.284l0.112,0.284l0.11,0.284l0.11,0.285l0.109,0.285l0.108,0.286l0.108,0.286l0.106,0.287l0.106,0.286l0.105,0.288l0.104,0.288l0.103,0.288l0.102,0.288l0.101,0.289l0.101,0.289l0.099,0.29l0.099,0.29l0.098,0.291l0.097,0.291l0.096,0.291l0.096,0.292l0.094,0.292l0.094,0.293l0.092,0.292l0.092,0.294l0.091,0.293l0.09,0.295l0.089,0.294l0.088,0.295l0.088,0.295l0.086,0.296l0.086,0.296l0.085,0.296l0.084,0.297l0.083,0.297l0.082,0.297l0.081,0.298l0.08,0.298l0.079,0.299l0.079,0.299l0.077,0.299l0.077,0.299l0.076,0.3l0.075,0.301l0.074,0.3l0.073,0.302l0.072,0.301l0.071,0.302l0.07,0.302l0.07,0.302l0.068,0.303l0.068,0.303l0.066,0.304l0.066,0.304l0.065,0.304l0.064,0.304l0.063,0.305l0.062,0.305l0.061,0.306l0.06,0.306l0.059,0.306l0.059,0.306l0.057,0.307l0.056,0.307l0.056,0.308l0.054,0.308l0.054,0.308l0.053,0.308l0.051,0.309l0.051,0.309l0.05,0.31l0.049,0.309l0.048,0.311l0.047,0.31l0.046,0.311l0.045,0.311l0.044,0.311l0.043,0.311l0.042,0.312l0.042,0.313l0.04,0.312l0.039,0.313l0.039,0.313l0.037,0.313l0.036,0.314l0.036,0.314l0.034,0.314l0.034,0.315l0.032,0.315l0.032,0.315l0.03,0.315l0.03,0.316l0.029,0.316l0.027,0.316l0.027,0.317l0.026,0.317l0.024,0.317l0.024,0.317l0.023,0.318l0.021,0.318l0.021,0.318l0.02,0.318l0.018,0.319l0.018,0.319l0.017,0.319l0.015,0.32l0.015,0.32l0.014,0.32l0.013,0.32l0.011,0.32l0.011,0.321l0.01,0.321l0.008,0.322l0.008,0.321l0.007,0.322l0.005,0.322l0.005,0.322l0.003,0.323l0.003,0.323l0.001,0.323l0.001,0.323l-0.001,0.323l-0.001,0.323l-0.003,0.323l-0.003,0.323l-0.005,0.322l-0.005,0.322l-0.007,0.322l-0.008,0.321l-0.008,0.322l-0.01,0.321l-0.011,0.321l-0.011,0.32l-0.013,0.32l-0.014,0.32l-0.015,0.32l-0.015,0.32l-0.017,0.319l-0.018,0.319l-0.018,0.319l-0.02,0.318l-0.021,0.318l-0.021,0.318l-0.023,0.318l-0.024,0.317l-0.024,0.317l-0.026,0.317l-0.027,0.317l-0.027,0.316l-0.029,0.316l-0.03,0.316l-0.03,0.315l-0.032,0.315l-0.032,0.315l-0.034,0.315l-0.034,0.314l-0.036,0.314l-0.036,0.314l-0.037,0.313l-0.039,0.313l-0.039,0.313l-0.04,0.312l-0.042,0.313l-0.042,0.312l-0.043,0.311l-0.044,0.311l-0.045,0.311l-0.046,0.311l-0.047,0.31l-0.048,0.311l-0.049,0.309l-0.05,0.31l-0.051,0.309l-0.051,0.309l-0.053,0.308l-0.054,0.308l-0.054,0.308l-0.056,0.308l-0.056,0.307l-0.057,0.307l-0.059,0.306l-0.059,0.306l-0.06,0.306l-0.061,0.306l-0.062,0.305l-0.063,0.305l-0.064,0.304l-0.065,0.304l-0.066,0.304l-0.066,0.304l-0.068,0.303l-0.068,0.303l-0.07,0.302l-0.07,0.302l-0.071,0.302l-0.072,0.301l-0.073,0.302l-0.074,0.3l-0.075,0.301l-0.076,0.3l-0.077,0.299l-0.077,0.299l-0.079,0.299l-0.079,0.299l-0.08,0.298l-0.081,0.298l-0.082,0.297l-0.083,0.297l-0.084,0.297l-0.085,0.296l-0.086,0.296l-0.086,0.296l-0.088,0.295l-0.088,0.295l-0.089,0.294l-0.09,0.295l-0.091,0.293l-0.092,0.294l-0.092,0.292l-0.094,0.293l-0.094,0.292l-0.096,0.292l-0.096,0.291l-0.097,0.291l-0.098,0.291l-0.099,0.29l-0.099,0.29l-0.101,0.289l-0.101,0.289l-0.102,0.288l-0.103,0.288l-0.104,0.288l-0.105,0.288l-0.106,0.286l-0.106,0.287l-0.108,0.286l-0.108,0.286l-0.109,0.285l-0.11,0.285l-0.11,0.284l-0.112,0.284l-0.112,0.284l-0.114,0.283l-0.114,0.283l-0.115,0.282l-0.115,0.282l-0.117,0.281l-0.117,0.281l-0.119,0.281l-0.119,0.28l-0.12,0.28l-0.12,0.279l-0.122,0.279l-0.122,0.278l-0.124,0.278l-0.124,0.278l-0.124,0.277l-0.126,0.276l-0.127,0.277l-0.127,0.275l-0.128,0.276l-0.129,0.274l-0.13,0.275l-0.13,0.274l-0.131,0.273l-0.133,0.273l-0.132,0.273l-0.134,0.272l-0.135,0.271l-0.135,0.271l-0.136,0.271l-0.137,0.27l-0.138,0.27l-0.138,0.269l-0.14,0.269l-0.14,0.268l-0.141,0.268l-0.141,0.267l-0.143,0.267l-0.143,0.267l-0.144,0.266l-0.145,0.265l-0.145,0.265l-0.147,0.264l-0.147,0.264l-0.148,0.264l-0.148,0.263l-0.15,0.262l-0.15,0.262l-0.151,0.262l-0.152,0.261l-0.152,0.26l-0.153,0.26l-0.154,0.26l-0.155,0.259l-0.156,0.258l-0.156,0.258l-0.157,0.258l-0.158,0.257l-0.158,0.256l-0.16,0.256l-0.16,0.255l-0.16,0.255l-0.162,0.255l-0.162,0.254l-0.163,0.253l-0.164,0.253l-0.165,0.252l-0.165,0.252l-0.166,0.251l-0.167,0.251l-0.167,0.25l-0.168,0.25l-0.169,0.249l-0.17,0.248l-0.17,0.248l-0.171,0.248l-0.172,0.247l-0.173,0.246l-0.173,0.246l-0.174,0.246l-0.174,0.244l-0.176,0.245l-0.176,0.243l-0.177,0.244l-0.177,0.242l-0.179,0.242l-0.179,0.242l-0.179,0.241l-0.181,0.24l-0.181,0.24l-0.182,0.239l-0.182,0.239l-0.183,0.238l-0.184,0.238l-0.185,0.237l-0.185,0.236l-0.186,0.236l-0.187,0.235l-0.187,0.235l-0.188,0.234l-0.189,0.234l-0.189,0.233l-0.19,0.232l-0.191,0.232l-0.192,0.231l-0.192,0.231l-0.193,0.23l-0.193,0.229l-0.194,0.229l-0.195,0.229l-0.196,0.227l-0.196,0.228l-0.197,0.226l-0.197,0.226l-0.198,0.225l-0.199,0.225l-0.2,0.224l-0.2,0.224l-0.201,0.223l-0.201,0.222l-0.202,0.222l-0.203,0.221l-0.204,0.22l-0.204,0.22l-0.204,0.22l-0.206,0.218l-0.206,0.218l-0.207,0.218l-0.207,0.217l-0.208,0.216l-0.209,0.215l-0.209,0.215l-0.21,0.215l-0.21,0.213l-0.211,0.213l-0.212,0.213l-0.213,0.212l-0.213,0.211l-0.213,0.21l-0.215,0.21l-0.215,0.209l-0.215,0.209l-0.216,0.208l-0.217,0.207l-0.218,0.207l-0.218,0.206l-0.218,0.206l-0.22,0.204l-0.22,0.204l-0.22,0.204l-0.221,0.203l-0.222,0.202l-0.222,0.201l-0.223,0.201l-0.224,0.2l-0.224,0.2l-0.225,0.199l-0.225,0.198l-0.226,0.197l-0.226,0.197l-0.228,0.196l-0.227,0.196l-0.229,0.195l-0.229,0.194l-0.229,0.193l-0.23,0.193l-0.231,0.192l-0.231,0.192l-0.232,0.191l-0.232,0.19l-0.233,0.189l-0.234,0.189l-0.234,0.188l-0.235,0.187l-0.235,0.187l-0.236,0.186l-0.236,0.185l-0.237,0.185l-0.238,0.184l-0.238,0.183l-0.239,0.182l-0.239,0.182l-0.24,0.181l-0.24,0.181l-0.241,0.179l-0.242,0.179l-0.242,0.179l-0.242,0.177l-0.244,0.177l-0.243,0.176l-0.245,0.176l-0.244,0.174l-0.246,0.174l-0.246,0.173l-0.246,0.173l-0.247,0.172l-0.248,0.171l-0.248,0.17l-0.248,0.17l-0.249,0.169l-0.25,0.168l-0.25,0.167l-0.251,0.167l-0.251,0.166l-0.252,0.165l-0.252,0.165l-0.253,0.164l-0.253,0.163l-0.254,0.162l-0.255,0.162l-0.255,0.16l-0.255,0.16l-0.256,0.16l-0.256,0.158l-0.257,0.158l-0.258,0.157l-0.258,0.156l-0.258,0.156l-0.259,0.155l-0.26,0.154l-0.26,0.153l-0.26,0.152l-0.261,0.152l-0.262,0.151l-0.262,0.15l-0.262,0.15l-0.263,0.148l-0.264,0.148l-0.264,0.147l-0.264,0.147l-0.265,0.145l-0.265,0.145l-0.266,0.144l-0.267,0.143l-0.267,0.143l-0.267,0.141l-0.268,0.141l-0.268,0.14l-0.269,0.14l-0.269,0.138l-0.27,0.138l-0.27,0.137l-0.271,0.136l-0.271,0.135l-0.271,0.135l-0.272,0.134l-0.273,0.132l-0.273,0.133l-0.273,0.131l-0.274,0.13l-0.275,0.13l-0.274,0.129l-0.276,0.128l-0.275,0.127l-0.277,0.127l-0.276,0.126l-0.277,0.124l-0.278,0.124l-0.278,0.124l-0.278,0.122l-0.279,0.122l-0.279,0.12l-0.28,0.12l-0.28,0.119l-0.281,0.119l-0.281,0.117l-0.281,0.117l-0.282,0.115l-0.282,0.115l-0.283,0.114l-0.283,0.114l-0.284,0.112l-0.284,0.112l-0.284,0.11l-0.285,0.11l-0.285,0.109l-0.286,0.108l-0.286,0.108l-0.287,0.106l-0.286,0.106l-0.288,0.105l-0.288,0.104l-0.288,0.103l-0.288,0.102l-0.289,0.101l-0.289,0.101l-0.29,0.099l-0.29,0.099l-0.291,0.098l-0.291,0.097l-0.291,0.096l-0.292,0.096l-0.292,0.094l-0.293,0.094l-0.292,0.092l-0.294,0.092l-0.293,0.091l-0.295,0.09l-0.294,0.089l-0.295,0.088l-0.295,0.088l-0.296,0.086l-0.296,0.086l-0.296,0.085l-0.297,0.084l-0.297,0.083l-0.297,0.082l-0.298,0.081l-0.298,0.08l-0.299,0.079l-0.299,0.079l-0.299,0.077l-0.299,0.077l-0.3,0.076l-0.301,0.075l-0.3,0.074l-0.302,0.073l-0.301,0.072l-0.302,0.071l-0.302,0.07l-0.302,0.07l-0.303,0.068l-0.303,0.068l-0.304,0.066l-0.304,0.066l-0.304,0.065l-0.304,0.064l-0.305,0.063l-0.305,0.062l-0.306,0.061l-0.306,0.06l-0.306,0.059l-0.306,0.059l-0.307,0.057l-0.307,0.056l-0.308,0.056l-0.308,0.054l-0.308,0.054l-0.308,0.053l-0.309,0.051l-0.309,0.051l-0.31,0.05l-0.309,0.049l-0.311,0.048l-0.31,0.047l-0.311,0.046l-0.311,0.045l-0.311,0.044l-0.311,0.043l-0.312,0.042l-0.313,0.042l-0.312,0.04l-0.313,0.039l-0.313,0.039l-0.313,0.037l-0.314,0.036l-0.314,0.036l-0.314,0.034l-0.315,0.034l-0.315,0.032l-0.315,0.032l-0.315,0.03l-0.316,0.03l-0.316,0.029l-0.316,0.027l-0.317,0.027l-0.317,0.026l-0.317,0.024l-0.317,0.024l-0.318,0.023l-0.318,0.021l-0.318,0.021l-0.318,0.02l-0.319,0.018l-0.319,0.018l-0.319,0.017l-0.32,0.015l-0.32,0.015l-0.32,0.014l-0.32,0.013l-0.32,0.011l-0.321,0.011l-0.321,0.01l-0.322,0.008l-0.321,0.008l-0.322,0.007l-0.322,0.005l-0.322,0.005l-0.323,0.003l-0.323,0.003l-0.323,0.001l-0.323,0.001l-0.323,-0.001l-0.323,-0.001l-0.323,-0.003l-0.323,-0.003l-0.322,-0.005l-0.322,-0.005l-0.322,-0.007l-0.321,-0.008l-0.322,-0.008l-0.321,-0.01l-0.321,-0.011l-0.32,-0.011l-0.32,-0.013l-0.32,-0.014l-0.32,-0.015l-0.32,-0.015l-0.319,-0.017l-0.319,-0.018l-0.319,-0.018l-0.318,-0.02l-0.318,-0.021l-0.318,-0.021l-0.318,-0.023l-0.317,-0.024l-0.317,-0.024l-0.317,-0.026l-0.317,-0.027l-0.316,-0.027l-0.316,-0.029l-0.316,-0.03l-0.315,-0.03l-0.315,-0.032l-0.315,-0.032l-0.315,-0.034l-0.314,-0.034l-0.314,-0.036l-0.314,-0.036l-0.313,-0.037l-0.313,-0.039l-0.313,-0.039l-0.312,-0.04l-0.313,-0.042l-0.312,-0.042l-0.311,-0.043l-0.311,-0.044l-0.311,-0.045l-0.311,-0.046l-0.31,-0.047l-0.311,-0.048l-0.309,-0.049l-0.31,-0.05l-0.309,-0.051l-0.309,-0.051l-0.308,-0.053l-0.308,-0.054l-0.308,-0.054l-0.308,-0.056l-0.307,-0.056l-0.307,-0.057l-0.306,-0.059l-0.306,-0.059l-0.306,-0.06l-0.306,-0.061l-0.305,-0.062l-0.305,-0.063l-0.304,-0.064l-0.304,-0.065l-0.304,-0.066l-0.304,-0.066l-0.303,-0.068l-0.303,-0.068l-0.302,-0.07l-0.302,-0.07l-0.302,-0.071l-0.301,-0.072l-0.302,-0.073l-0.3,-0.074l-0.301,-0.075l-0.3,-0.076l-0.299,-0.077l-0.299,-0.077l-0.299,-0.079l-0.299,-0.079l-0.298,-0.08l-0.298,-0.081l-0.297,-0.082l-0.297,-0.083l-0.297,-0.084l-0.296,-0.085l-0.296,-0.086l-0.296,-0.086l-0.295,-0.088l-0.295,-0.088l-0.294,-0.089l-0.295,-0.09l-0.293,-0.091l-0.294,-0.092l-0.292,-0.092l-0.293,-0.094l-0.292,-0.094l-0.292,-0.096l-0.291,-0.096l-0.291,-0.097l-0.291,-0.098l-0.29,-0.099l-0.29,-0.099l-0.289,-0.101l-0.289,-0.101l-0.288,-0.102l-0.288,-0.103l-0.288,-0.104l-0.288,-0.105l-0.286,-0.106l-0.287,-0.106l-0.286,-0.108l-0.286,-0.108l-0.285,-0.109l-0.285,-0.11l-0.284,-0.11l-0.284,-0.112l-0.284,-0.112l-0.283,-0.114l-0.283,-0.114l-0.282,-0.115l-0.282,-0.115l-0.281,-0.117l-0.281,-0.117l-0.281,-0.119l-0.28,-0.119l-0.28,-0.12l-0.279,-0.12l-0.279,-0.122l-0.278,-0.122l-0.278,-0.124l-0.278,-0.124l-0.277,-0.124l-0.276,-0.126l-0.277,-0.127l-0.275,-0.127l-0.276,-0.128l-0.274,-0.129l-0.275,-0.13l-0.274,-0.13l-0.273,-0.131l-0.273,-0.133l-0.273,-0.132l-0.272,-0.134l-0.271,-0.135l-0.271,-0.135l-0.271,-0.136l-0.27,-0.137l-0.27,-0.138l-0.269,-0.138l-0.269,-0.14l-0.268,-0.14l-0.268,-0.141l-0.267,-0.141l-0.267,-0.143l-0.267,-0.143l-0.266,-0.144l-0.265,-0.145l-0.265,-0.145l-0.264,-0.147l-0.264,-0.147l-0.264,-0.148l-0.263,-0.148l-0.262,-0.15l-0.262,-0.15l-0.262,-0.151l-0.261,-0.152l-0.26,-0.152l-0.26,-0.153l-0.26,-0.154l-0.259,-0.155l-0.258,-0.156l-0.258,-0.156l-0.258,-0.157l-0.257,-0.158l-0.256,-0.158l-0.256,-0.16l-0.255,-0.16l-0.255,-0.16l-0.255,-0.162l-0.254,-0.162l-0.253,-0.163l-0.253,-0.164l-0.252,-0.165l-0.252,-0.165l-0.251,-0.166l-0.251,-0.167l-0.25,-0.167l-0.25,-0.168l-0.249,-0.169l-0.248,-0.17l-0.248,-0.17l-0.248,-0.171l-0.247,-0.172l-0.246,-0.173l-0.246,-0.173l-0.246,-0.174l-0.244,-0.174l-0.245,-0.176l-0.243,-0.176l-0.244,-0.177l-0.242,-0.177l-0.242,-0.179l-0.242,-0.179l-0.241,-0.179l-0.24,-0.181l-0.24,-0.181l-0.239,-0.182l-0.239,-0.182l-0.238,-0.183l-0.238,-0.184l-0.237,-0.185l-0.236,-0.185l-0.236,-0.186l-0.235,-0.187l-0.235,-0.187l-0.234,-0.188l-0.234,-0.189l-0.233,-0.189l-0.232,-0.19l-0.232,-0.191l-0.231,-0.192l-0.231,-0.192l-0.23,-0.193l-0.229,-0.193l-0.229,-0.194l-0.229,-0.195l-0.227,-0.196l-0.228,-0.196l-0.226,-0.197l-0.226,-0.197l-0.225,-0.198l-0.225,-0.199l-0.224,-0.2l-0.224,-0.2l-0.223,-0.201l-0.222,-0.201l-0.222,-0.202l-0.221,-0.203l-0.22,-0.204l-0.22,-0.204l-0.22,-0.204l-0.218,-0.206l-0.218,-0.206l-0.218,-0.207l-0.217,-0.207l-0.216,-0.208l-0.215,-0.209l-0.215,-0.209l-0.215,-0.21l-0.213,-0.21l-0.213,-0.211l-0.213,-0.212l-0.212,-0.213l-0.211,-0.213l-0.21,-0.213l-0.21,-0.215l-0.209,-0.215l-0.209,-0.215l-0.208,-0.216l-0.207,-0.217l-0.207,-0.218l-0.206,-0.218l-0.206,-0.218l-0.204,-0.22l-0.204,-0.22l-0.204,-0.22l-0.203,-0.221l-0.202,-0.222l-0.201,-0.222l-0.201,-0.223l-0.2,-0.224l-0.2,-0.224l-0.199,-0.225l-0.198,-0.225l-0.197,-0.226l-0.197,-0.226l-0.196,-0.228l-0.196,-0.227l-0.195,-0.229l-0.194,-0.229l-0.193,-0.229l-0.193,-0.23l-0.192,-0.231l-0.192,-0.231l-0.191,-0.232l-0.19,-0.232l-0.189,-0.233l-0.189,-0.234l-0.188,-0.234l-0.187,-0.235l-0.187,-0.235l-0.186,-0.236l-0.185,-0.236l-0.185,-0.237l-0.184,-0.238l-0.183,-0.238l-0.182,-0.239l-0.182,-0.239l-0.181,-0.24l-0.181,-0.24l-0.179,-0.241l-0.179,-0.242l-0.179,-0.242l-0.177,-0.242l-0.177,-0.244l-0.176,-0.243l-0.176,-0.245l-0.174,-0.244l-0.174,-0.246l-0.173,-0.246l-0.173,-0.246l-0.172,-0.247l-0.171,-0.248l-0.17,-0.248l-0.17,-0.248l-0.169,-0.249l-0.168,-0.25l-0.167,-0.25l-0.167,-0.251l-0.166,-0.251l-0.165,-0.252l-0.165,-0.252l-0.164,-0.253l-0.163,-0.253l-0.162,-0.254l-0.162,-0.255l-0.16,-0.255l-0.16,-0.255l-0.16,-0.256l-0.158,-0.256l-0.158,-0.257l-0.157,-0.258l-0.156,-0.258l-0.156,-0.258l-0.155,-0.259l-0.154,-0.26l-0.153,-0.26l-0.152,-0.26l-0.152,-0.261l-0.151,-0.262l-0.15,-0.262l-0.15,-0.262l-0.148,-0.263l-0.148,-0.264l-0.147,-0.264l-0.147,-0.264l-0.145,-0.265l-0.145,-0.265l-0.144,-0.266l-0.143,-0.267l-0.143,-0.267l-0.141,-0.267l-0.141,-0.268l-0.14,-0.268l-0.14,-0.269l-0.138,-0.269l-0.138,-0.27l-0.137,-0.27l-0.136,-0.271l-0.135,-0.271l-0.135,-0.271l-0.134,-0.272l-0.132,-0.273l-0.133,-0.273l-0.131,-0.273l-0.13,-0.274l-0.13,-0.275l-0.129,-0.274l-0.128,-0.276l-0.127,-0.275l-0.127,-0.277l-0.126,-0.276l-0.124,-0.277l-0.124,-0.278l-0.124,-0.278l-0.122,-0.278l-0.122,-0.279l-0.12,-0.279l-0.12,-0.28l-0.119,-0.28l-0.119,-0.281l-0.117,-0.281l-0.117,-0.281l-0.115,-0.282l-0.115,-0.282l-0.114,-0.283l-0.114,-0.283l-0.112,-0.284l-0.112,-0.284l-0.11,-0.284l-0.11,-0.285l-0.109,-0.285l-0.108,-0.286l-0.108,-0.286l-0.106,-0.287l-0.106,-0.286l-0.105,-0.288l-0.104,-0.288l-0.103,-0.288l-0.102,-0.288l-0.101,-0.289l-0.101,-0.289l-0.099,-0.29l-0.099,-0.29l-0.098,-0.291l-0.097,-0.291l-0.096,-0.291l-0.096,-0.292l-0.094,-0.292l-0.094,-0.293l-0.092,-0.292l-0.092,-0.294l-0.091,-0.293l-0.09,-0.295l-0.089,-0.294l-0.088,-0.295l-0.088,-0.295l-0.086,-0.296l-0.086,-0.296l-0.085,-0.296l-0.084,-0.297l-0.083,-0.297l-0.082,-0.297l-0.081,-0.298l-0.08,-0.298l-0.079,-0.299l-0.079,-0.299l-0.077,-0.299l-0.077,-0.299l-0.076,-0.3l-0.075,-0.301l-0.074,-0.3l-0.073,-0.302l-0.072,-0.301l-0.071,-0.302l-0.07,-0.302l-0.07,-0.302l-0.068,-0.303l-0.068,-0.303l-0.066,-0.304l-0.066,-0.304l-0.065,-0.304l-0.064,-0.304l-0.063,-0.305l-0.062,-0.305l-0.061,-0.306l-0.06,-0.306l-0.059,-0.306l-0.059,-0.306l-0.057,-0.307l-0.056,-0.307l-0.056,-0.308l-0.054,-0.308l-0.054,-0.308l-0.053,-0.308l-0.051,-0.309l-0.051,-0.309l-0.05,-0.31l-0.049,-0.309l-0.048,-0.311l-0.047,-0.31l-0.046,-0.311l-0.045,-0.311l-0.044,-0.311l-0.043,-0.311l-0.042,-0.312l-0.042,-0.313l-0.04,-0.312l-0.039,-0.313l-0.039,-0.313l-0.037,-0.313l-0.036,-0.314l-0.036,-0.314l-0.034,-0.314l-0.034,-0.315l-0.032,-0.315l-0.032,-0.315l-0.03,-0.315l-0.03,-0.316l-0.029,-0.316l-0.027,-0.316l-0.027,-0.317l-0.026,-0.317l-0.024,-0.317l-0.024,-0.317l-0.023,-0.318l-0.021,-0.318l-0.021,-0.318l-0.02,-0.318l-0.018,-0.319l-0.018,-0.319l-0.017,-0.319l-0.015,-0.32l-0.015,-0.32l-0.014,-0.32l-0.013,-0.32l-0.011,-0.32l-0.011,-0.321l-0.01,-0.321l-0.008,-0.322l-0.008,-0.321l-0.007,-0.322l-0.005,-0.322l-0.005,-0.322l-0.003,-0.323l-0.003,-0.323l-0.001,-0.323l-0.001,-0.323l0.001,-0.323l0.001,-0.323l0.003,-0.323l0.003,-0.323l0.005,-0.322l0.005,-0.322l0.007,-0.322l0.008,-0.321l0.008,-0.322l0.01,-0.321l0.011,-0.321l0.011,-0.32l0.013,-0.32l0.014,-0.32l0.015,-0.32l0.015,-0.32l0.017,-0.319l0.018,-0.319l0.018,-0.319l0.02,-0.318l0.021,-0.318l0.021,-0.318l0.023,-0.318l0.024,-0.317l0.024,-0.317l0.026,-0.317l0.027,-0.317l0.027,-0.316l0.029,-0.316l0.03,-0.316l0.03,-0.315l0.032,-0.315l0.032,-0.315l0.034,-0.315l0.034,-0.314l0.036,-0.314l0.036,-0.314l0.037,-0.313l0.039,-0.313l0.039,-0.313l0.04,-0.312l0.042,-0.313l0.042,-0.312l0.043,-0.311l0.044,-0.311l0.045,-0.311l0.046,-0.311l0.047,-0.31l0.048,-0.311l0.049,-0.309l0.05,-0.31l0.051,-0.309l0.051,-0.309l0.053,-0.308l0.054,-0.308l0.054,-0.308l0.056,-0.308l0.056,-0.307l0.057,-0.307l0.059,-0.306l0.059,-0.306l0.06,-0.306l0.061,-0.306l0.062,-0.305l0.063,-0.305l0.064,-0.304l0.065,-0.304l0.066,-0.304l0.066,-0.304l0.068,-0.303l0.068,-0.303l0.07,-0.302l0.07,-0.302l0.071,-0.302l0.072,-0.301l0.073,-0.302l0.074,-0.3l0.075,-0.301l0.076,-0.3l0.077,-0.299l0.077,-0.299l0.079,-0.299l0.079,-0.299l0.08,-0.298l0.081,-0.298l0.082,-0.297l0.083,-0.297l0.084,-0.297l0.085,-0.296l0.086,-0.296l0.086,-0.296l0.088,-0.295l0.088,-0.295l0.089,-0.294l0.09,-0.295l0.091,-0.293l0.092,-0.294l0.092,-0.292l0.094,-0.293l0.094,-0.292l0.096,-0.292l0.096,-0.291l0.097,-0.291l0.098,-0.291l0.099,-0.29l0.099,-0.29l0.101,-0.289l0.101,-0.289l0.102,-0.288l0.103,-0.288l0.104,-0.288l0.105,-0.288l0.106,-0.286l0.106,-0.287l0.108,-0.286l0.108,-0.286l0.109,-0.285l0.11,-0.285l0.11,-0.284l0.112,-0.284l0.112,-0.284l0.114,-0.283l0.114,-0.283l0.115,-0.282l0.115,-0.282l0.117,-0.281l0.117,-0.281l0.119,-0.281l0.119,-0.28l0.12,-0.28l0.12,-0.279l0.122,-0.279l0.122,-0.278l0.124,-0.278l0.124,-0.278l0.124,-0.277l0.126,-0.276l0.127,-0.277l0.127,-0.275l0.128,-0.276l0.129,-0.274l0.13,-0.275l0.13,-0.274l0.131,-0.273l0.133,-0.273l0.132,-0.273l0.134,-0.272l0.135,-0.271l0.135,-0.271l0.136,-0.271l0.137,-0.27l0.138,-0.27l0.138,-0.269l0.14,-0.269l0.14,-0.268l0.141,-0.268l0.141,-0.267l0.143,-0.267l0.143,-0.267l0.144,-0.266l0.145,-0.265l0.145,-0.265l0.147,-0.264l0.147,-0.264l0.148,-0.264l0.148,-0.263l0.15,-0.262l0.15,-0.262l0.151,-0.262l0.152,-0.261l0.152,-0.26l0.153,-0.26l0.154,-0.26l0.155,-0.259l0.156,-0.258l0.156,-0.258l0.157,-0.258l0.158,-0.257l0.158,-0.256l0.16,-0.256l0.16,-0.255l0.16,-0.255l0.162,-0.255l0.162,-0.254l0.163,-0.253l0.164,-0.253l0.165,-0.252l0.165,-0.252l0.166,-0.251l0.167,-0.251l0.167,-0.25l0.168,-0.25l0.169,-0.249l0.17,-0.248l0.17,-0.248l0.171,-0.248l0.172,-0.247l0.173,-0.246l0.173,-0.246l0.174,-0.246l0.174,-0.244l0.176,-0.245l0.176,-0.243l0.177,-0.244l0.177,-0.242l0.179,-0.242l0.179,-0.242l0.179,-0.241l0.181,-0.24l0.181,-0.24l0.182,-0.239l0.182,-0.239l0.183,-0.238l0.184,-0.238l0.185,-0.237l0.185,-0.236l0.186,-0.236l0.187,-0.235l0.187,-0.235l0.188,-0.234l0.189,-0.234l0.189,-0.233l0.19,-0.232l0.191,-0.232l0.192,-0.231l0.192,-0.231l0.193,-0.23l0.193,-0.229l0.194,-0.229l0.195,-0.229l0.196,-0.227l0.196,-0.228l0.197,-0.226l0.197,-0.226l0.198,-0.225l0.199,-0.225l0.2,-0.224l0.2,-0.224l0.201,-0.223l0.201,-0.222l0.202,-0.222l0.203,-0.221l0.204,-0.22l0.204,-0.22l0.204,-0.22l0.206,-0.218l0.206,-0.218l0.207,-0.218l0.207,-0.217l0.208,-0.216l0.209,-0.215l0.209,-0.215l0.21,-0.215l0.21,-0.213l0.211,-0.213l0.212,-0.213l0.213,-0.212l0.213,-0.211l0.213,-0.21l0.215,-0.21l0.215,-0.209l0.215,-0.209l0.216,-0.208l0.217,-0.207l0.218,-0.207l0.218,-0.206l0.218,-0.206l0.22,-0.204l0.22,-0.204l0.22,-0.204l0.221,-0.203l0.222,-0.202l0.222,-0.201l0.223,-0.201l0.224,-0.2l0.224,-0.2l0.225,-0.199l0.225,-0.198l0.226,-0.197l0.226,-0.197l0.228,-0.196l0.227,-0.196l0.229,-0.195l0.229,-0.194l0.229,-0.193l0.23,-0.193l0.231,-0.192l0.231,-0.192l0.232,-0.191l0.232,-0.19l0.233,-0.189l0.234,-0.189l0.234,-0.188l0.235,-0.187l0.235,-0.187l0.236,-0.186l0.236,-0.185l0.237,-0.185l0.238,-0.184l0.238,-0.183l0.239,-0.182l0.239,-0.182l0.24,-0.181l0.24,-0.181l0.241,-0.179l0.242,-0.179l0.242,-0.179l0.242,-0.177l0.244,-0.177l0.243,-0.176l0.245,-0.176l0.244,-0.174l0.246,-0.174l0.246,-0.173l0.246,-0.173l0.247,-0.172l0.248,-0.171l0.248,-0.17l0.248,-0.17l0.249,-0.169l0.25,-0.168l0.25,-0.167l0.251,-0.167l0.251,-0.166l0.252,-0.165l0.252,-0.165l0.253,-0.164l0.253,-0.163l0.254,-0.162l0.255,-0.162l0.255,-0.16l0.255,-0.16l0.256,-0.16l0.256,-0.158l0.257,-0.158l0.258,-0.157l0.258,-0.156l0.258,-0.156l0.259,-0.155l0.26,-0.154l0.26,-0.153l0.26,-0.152l0.261,-0.152l0.262,-0.151l0.262,-0.15l0.262,-0.15l0.263,-0.148l0.264,-0.148l0.264,-0.147l0.264,-0.147l0.265,-0.145l0.265,-0.145l0.266,-0.144l0.267,-0.143l0.267,-0.143l0.267,-0.141l0.268,-0.141l0.268,-0.14l0.269,-0.14l0.269,-0.138l0.27,-0.138l0.27,-0.137l0.271,-0.136l0.271,-0.135l0.271,-0.135l0.272,-0.134l0.273,-0.132l0.273,-0.133l0.273,-0.131l0.274,-0.13l0.275,-0.13l0.274,-0.129l0.276,-0.128l0.275,-0.127l0.277,-0.127l0.276,-0.126l0.277,-0.124l0.278,-0.124l0.278,-0.124l0.278,-0.122l0.279,-0.122l0.279,-0.12l0.28,-0.12l0.28,-0.119l0.281,-0.119l0.281,-0.117l0.281,-0.117l0.282,-0.115l0.282,-0.115l0.283,-0.114l0.283,-0.114l0.284,-0.112l0.284,-0.112l0.284,-0.11l0.285,-0.11l0.285,-0.109l0.286,-0.108l0.286,-0.108l0.287,-0.106l0.286,-0.106l0.288,-0.105l0.288,-0.104l0.288,-0.103l0.288,-0.102l0.289,-0.101l0.289,-0.101l0.29,-0.099l0.29,-0.099l0.291,-0.098l0.291,-0.097l0.291,-0.096l0.292,-0.096l0.292,-0.094l0.293,-0.094l0.292,-0.092l0.294,-0.092l0.293,-0.091l0.295,-0.09l0.294,-0.089l0.295,-0.088l0.295,-0.088l0.296,-0.086l0.296,-0.086l0.296,-0.085l0.297,-0.084l0.297,-0.083l0.297,-0.082l0.298,-0.081l0.298,-0.08l0.299,-0.079l0.299,-0.079l0.299,-0.077l0.299,-0.077l0.3,-0.076l0.301,-0.075l0.3,-0.074l0.302,-0.073l0.301,-0.072l0.302,-0.071l0.302,-0.07l0.302,-0.07l0.303,-0.068l0.303,-0.068l0.304,-0.066l0.304,-0.066l0.304,-0.065l0.304,-0.064l0.305,-0.063l0.305,-0.062l0.306,-0.061l0.306,-0.06l0.306,-0.059l0.306,-0.059l0.307,-0.057l0.307,-0.056l0.308,-0.056l0.308,-0.054l0.308,-0.054l0.308,-0.053l0.309,-0.051l0.309,-0.051l0.31,-0.05l0.309,-0.049l0.311,-0.048l0.31,-0.047l0.311,-0.046l0.311,-0.045l0.311,-0.044l0.311,-0.043l0.312,-0.042l0.313,-0.042l0.312,-0.04l0.313,-0.039l0.313,-0.039l0.313,-0.037l0.314,-0.036l0.314,-0.036l0.314,-0.034l0.315,-0.034l0.315,-0.032l0.315,-0.032l0.315,-0.03l0.316,-0.03l0.316,-0.029l0.316,-0.027l0.317,-0.027l0.317,-0.026l0.317,-0.024l0.317,-0.024l0.318,-0.023l0.318,-0.021l0.318,-0.021l0.318,-0.02l0.319,-0.018l0.319,-0.018l0.319,-0.017l0.32,-0.015l0.32,-0.015l0.32,-0.014l0.32,-0.013l0.32,-0.011l0.321,-0.011l0.321,-0.01l0.322,-0.008l0.321,-0.008l0.322,-0.007l0.322,-0.005l0.322,-0.005l0.323,-0.003l0.323,-0.003l0.323,-0.001l0.323,-0.001l0.323,0.001Zm-0.592,16l-0.277,0.001l-0.276,0.002l-0.268,0.003l-0.268,0.004l-0.275,0.005l-0.267,0.005l-0.275,0.007l-0.274,0.007l-0.267,0.008l-0.266,0.009l-0.265,0.01l-0.281,0.011l-0.273,0.011l-0.257,0.012l-0.272,0.014l-0.272,0.014l-0.263,0.014l-0.271,0.016l-0.271,0.017l-0.271,0.018l-0.262,0.017l-0.262,0.019l-0.27,0.02l-0.268,0.021l-0.27,0.022l-0.268,0.023l-0.26,0.022l-0.26,0.024l-0.275,0.026l-0.267,0.026l-0.26,0.025l-0.259,0.027l-0.266,0.029l-0.273,0.03l-0.258,0.029l-0.265,0.031l-0.265,0.031l-0.256,0.031l-0.264,0.034l-0.264,0.034l-0.264,0.035l-0.262,0.035l-0.263,0.036l-0.262,0.038l-0.255,0.036l-0.262,0.039l-0.268,0.041l-0.254,0.039l-0.261,0.041l-0.259,0.042l-0.261,0.043l-0.259,0.043l-0.259,0.045l-0.259,0.044l-0.258,0.046l-0.259,0.047l-0.25,0.046l-0.265,0.05l-0.256,0.048l-0.257,0.05l-0.257,0.05l-0.255,0.052l-0.256,0.051l-0.255,0.053l-0.263,0.055l-0.247,0.053l-0.254,0.055l-0.261,0.057l-0.253,0.057l-0.254,0.057l-0.253,0.058l-0.252,0.059l-0.251,0.059l-0.252,0.06l-0.258,0.063l-0.251,0.061l-0.251,0.063l-0.25,0.063l-0.25,0.064l-0.256,0.067l-0.25,0.065l-0.248,0.066l-0.247,0.067l-0.256,0.07l-0.248,0.068l-0.246,0.069l-0.255,0.072l-0.246,0.07l-0.246,0.071l-0.245,0.072l-0.252,0.075l-0.245,0.073l-0.244,0.074l-0.252,0.077l-0.251,0.078l-0.242,0.075l-0.243,0.077l-0.243,0.078l-0.242,0.078l-0.257,0.084l-0.241,0.08l-0.239,0.08l-0.248,0.083l-0.24,0.082l-0.24,0.082l-0.248,0.086l-0.245,0.086l-0.237,0.084l-0.247,0.088l-0.238,0.086l-0.236,0.087l-0.244,0.089l-0.244,0.091l-0.242,0.091l-0.235,0.089l-0.235,0.09l-0.244,0.094l-0.24,0.093l-0.233,0.092l-0.242,0.096l-0.24,0.096l-0.234,0.094l-0.231,0.094l-0.238,0.098l-0.245,0.102l-0.232,0.096l-0.231,0.098l-0.237,0.1l-0.236,0.102l-0.237,0.102l-0.23,0.1l-0.235,0.104l-0.234,0.104l-0.234,0.104l-0.234,0.105l-0.226,0.103l-0.234,0.108l-0.234,0.107l-0.224,0.105l-0.232,0.108l-0.239,0.114l-0.224,0.106l-0.23,0.111l-0.232,0.112l-0.223,0.109l-0.234,0.115l-0.228,0.113l-0.222,0.11l-0.229,0.116l-0.228,0.115l-0.225,0.115l-0.227,0.117l-0.226,0.117l-0.225,0.118l-0.226,0.118l-0.224,0.119l-0.225,0.12l-0.224,0.12l-0.223,0.122l-0.222,0.12l-0.223,0.123l-0.222,0.123l-0.222,0.123l-0.221,0.124l-0.219,0.124l-0.219,0.125l-0.22,0.126l-0.22,0.127l-0.217,0.127l-0.225,0.131l-0.219,0.129l-0.218,0.129l-0.215,0.129l-0.216,0.13l-0.216,0.131l-0.223,0.136l-0.214,0.131l-0.207,0.128l-0.221,0.138l-0.218,0.137l-0.213,0.133l-0.207,0.132l-0.217,0.139l-0.217,0.139l-0.206,0.134l-0.21,0.137l-0.215,0.141l-0.217,0.144l-0.209,0.138l-0.208,0.139l-0.209,0.141l-0.208,0.141l-0.21,0.144l-0.212,0.145l-0.208,0.144l-0.205,0.143l-0.205,0.143l-0.21,0.148l-0.209,0.148l-0.198,0.142l-0.209,0.15l-0.208,0.15l-0.202,0.147l-0.202,0.147l-0.204,0.151l-0.208,0.154l-0.195,0.146l-0.203,0.152l-0.205,0.155l-0.199,0.151l-0.204,0.156l-0.198,0.152l-0.2,0.155l-0.202,0.157l-0.197,0.155l-0.194,0.152l-0.201,0.16l-0.2,0.159l-0.194,0.157l-0.198,0.159l-0.196,0.16l-0.193,0.158l-0.198,0.163l-0.195,0.161l-0.192,0.16l-0.196,0.164l-0.189,0.159l-0.193,0.164l-0.195,0.166l-0.187,0.161l-0.191,0.166l-0.194,0.168l-0.19,0.166l-0.192,0.169l-0.185,0.163l-0.189,0.169l-0.191,0.17l-0.183,0.166l-0.188,0.17l-0.191,0.174l-0.182,0.167l-0.181,0.167l-0.192,0.178l-0.185,0.173l-0.18,0.169l-0.184,0.174l-0.187,0.178l-0.181,0.172l-0.176,0.17l-0.186,0.18l-0.183,0.178l-0.174,0.171l-0.185,0.182l-0.181,0.179l-0.173,0.173l-0.179,0.179l-0.178,0.18l-0.179,0.182l-0.179,0.182l-0.172,0.177l-0.174,0.18l-0.175,0.182l-0.175,0.183l-0.178,0.188l-0.172,0.181l-0.169,0.18l-0.177,0.189l-0.17,0.183l-0.167,0.182l-0.175,0.191l-0.169,0.184l-0.169,0.188l-0.173,0.192l-0.163,0.182l-0.167,0.187l-0.171,0.193l-0.167,0.19l-0.165,0.188l-0.164,0.189l-0.169,0.196l-0.165,0.192l-0.156,0.183l-0.167,0.198l-0.167,0.197l-0.159,0.19l-0.162,0.194l-0.161,0.195l-0.157,0.191l-0.161,0.196l-0.161,0.199l-0.16,0.198l-0.159,0.198l-0.156,0.195l-0.156,0.196l-0.155,0.197l-0.158,0.201l-0.156,0.202l-0.151,0.194l-0.155,0.203l-0.158,0.205l-0.151,0.2l-0.149,0.197l-0.151,0.2l-0.153,0.205l-0.152,0.206l-0.153,0.208l-0.144,0.196l-0.15,0.207l-0.15,0.207l-0.144,0.201l-0.148,0.207l-0.148,0.209l-0.145,0.206l-0.144,0.206l-0.147,0.21l-0.141,0.204l-0.142,0.207l-0.144,0.212l-0.142,0.209l-0.143,0.212l-0.14,0.209l-0.137,0.207l-0.144,0.217l-0.136,0.208l-0.138,0.211l-0.139,0.215l-0.137,0.213l-0.136,0.213l-0.133,0.21l-0.139,0.22l-0.135,0.214l-0.131,0.211l-0.135,0.219l-0.132,0.215l-0.132,0.216l-0.131,0.216l-0.131,0.218l-0.13,0.217l-0.129,0.218l-0.131,0.222l-0.126,0.215l-0.127,0.219l-0.127,0.22l-0.126,0.219l-0.128,0.224l-0.123,0.218l-0.124,0.221l-0.125,0.225l-0.121,0.219l-0.123,0.223l-0.121,0.223l-0.12,0.22l-0.122,0.228l-0.12,0.224l-0.119,0.225l-0.116,0.222l-0.118,0.226l-0.117,0.226l-0.117,0.226l-0.118,0.231l-0.113,0.223l-0.113,0.225l-0.114,0.228l-0.113,0.229l-0.113,0.229l-0.113,0.233l-0.11,0.226l-0.109,0.227l-0.11,0.231l-0.109,0.231l-0.107,0.228l-0.108,0.232l-0.109,0.236l-0.105,0.229l-0.105,0.23l-0.103,0.23l-0.106,0.237l-0.104,0.235l-0.102,0.231l-0.102,0.235l-0.101,0.233l-0.101,0.235l-0.1,0.237l-0.099,0.234l-0.099,0.237l-0.098,0.237l-0.095,0.231l-0.097,0.238l-0.098,0.242l-0.094,0.236l-0.094,0.237l-0.093,0.236l-0.094,0.243l-0.092,0.237l-0.091,0.238l-0.091,0.242l-0.088,0.235l-0.09,0.242l-0.091,0.245l-0.087,0.24l-0.087,0.24l-0.087,0.243l-0.085,0.241l-0.085,0.241l-0.085,0.245l-0.084,0.244l-0.081,0.239l-0.082,0.243l-0.082,0.247l-0.081,0.246l-0.08,0.243l-0.079,0.244l-0.079,0.247l-0.077,0.245l-0.078,0.248l-0.076,0.245l-0.073,0.24l-0.076,0.249l-0.075,0.253l-0.074,0.248l-0.072,0.246l-0.071,0.247l-0.071,0.247l-0.07,0.249l-0.071,0.253l-0.068,0.248l-0.068,0.249l-0.068,0.252l-0.066,0.247l-0.065,0.25l-0.066,0.253l-0.065,0.253l-0.063,0.25l-0.062,0.249l-0.063,0.256l-0.062,0.255l-0.059,0.248l-0.06,0.252l-0.06,0.259l-0.058,0.253l-0.056,0.25l-0.058,0.257l-0.056,0.254l-0.054,0.253l-0.055,0.259l-0.054,0.255l-0.053,0.255l-0.052,0.256l-0.05,0.254l-0.051,0.257l-0.05,0.257l-0.049,0.259l-0.048,0.257l-0.047,0.256l-0.046,0.257l-0.047,0.263l-0.045,0.26l-0.044,0.255l-0.043,0.26l-0.043,0.26l-0.041,0.256l-0.041,0.261l-0.041,0.263l-0.039,0.258l-0.039,0.263l-0.038,0.262l-0.037,0.258l-0.036,0.263l-0.035,0.263l-0.035,0.263l-0.034,0.264l-0.033,0.26l-0.032,0.26l-0.031,0.265l-0.031,0.265l-0.03,0.266l-0.029,0.262l-0.028,0.262l-0.027,0.266l-0.027,0.267l-0.026,0.264l-0.024,0.262l-0.024,0.268l-0.024,0.265l-0.022,0.265l-0.022,0.269l-0.02,0.268l-0.02,0.266l-0.019,0.266l-0.019,0.266l-0.017,0.271l-0.017,0.267l-0.015,0.267l-0.015,0.272l-0.014,0.263l-0.013,0.269l-0.013,0.272l-0.011,0.269l-0.011,0.269l-0.01,0.27l-0.009,0.269l-0.008,0.274l-0.008,0.271l-0.006,0.267l-0.005,0.271l-0.005,0.275l-0.004,0.272l-0.003,0.268l-0.002,0.272l-0.002,0.273l0,0.273l0,0.273l0.002,0.273l0.002,0.272l0.003,0.268l0.004,0.272l0.005,0.275l0.005,0.271l0.006,0.267l0.008,0.271l0.008,0.274l0.009,0.269l0.01,0.27l0.011,0.269l0.011,0.269l0.013,0.272l0.013,0.269l0.014,0.263l0.015,0.272l0.015,0.267l0.017,0.267l0.017,0.271l0.019,0.266l0.019,0.266l0.02,0.266l0.02,0.268l0.022,0.269l0.022,0.265l0.024,0.265l0.024,0.268l0.024,0.262l0.026,0.264l0.027,0.267l0.027,0.266l0.028,0.262l0.029,0.262l0.03,0.266l0.031,0.265l0.031,0.265l0.032,0.26l0.033,0.26l0.034,0.264l0.035,0.263l0.035,0.263l0.036,0.263l0.037,0.258l0.038,0.262l0.039,0.263l0.039,0.258l0.041,0.263l0.041,0.261l0.041,0.256l0.043,0.26l0.043,0.26l0.044,0.255l0.045,0.26l0.047,0.263l0.046,0.257l0.047,0.256l0.048,0.257l0.049,0.259l0.05,0.257l0.051,0.257l0.05,0.254l0.052,0.256l0.053,0.255l0.054,0.255l0.055,0.259l0.054,0.253l0.056,0.254l0.058,0.257l0.056,0.25l0.058,0.253l0.06,0.259l0.06,0.252l0.059,0.248l0.062,0.255l0.063,0.256l0.062,0.249l0.063,0.25l0.065,0.253l0.066,0.253l0.065,0.25l0.066,0.247l0.068,0.252l0.068,0.249l0.068,0.248l0.071,0.253l0.07,0.249l0.071,0.247l0.071,0.247l0.072,0.246l0.074,0.248l0.075,0.253l0.076,0.249l0.073,0.24l0.076,0.245l0.078,0.248l0.077,0.245l0.079,0.247l0.079,0.244l0.08,0.243l0.081,0.246l0.082,0.247l0.082,0.243l0.081,0.239l0.084,0.244l0.085,0.245l0.085,0.241l0.085,0.241l0.087,0.243l0.087,0.24l0.087,0.24l0.091,0.245l0.09,0.242l0.088,0.235l0.091,0.242l0.091,0.238l0.092,0.237l0.094,0.243l0.093,0.236l0.094,0.237l0.094,0.236l0.098,0.242l0.097,0.238l0.095,0.231l0.098,0.237l0.099,0.237l0.099,0.234l0.1,0.237l0.101,0.235l0.101,0.233l0.102,0.235l0.102,0.231l0.104,0.235l0.106,0.237l0.103,0.23l0.105,0.23l0.105,0.229l0.109,0.236l0.108,0.232l0.107,0.228l0.109,0.231l0.11,0.231l0.109,0.227l0.11,0.226l0.113,0.233l0.113,0.229l0.113,0.229l0.114,0.228l0.113,0.225l0.113,0.223l0.118,0.231l0.117,0.226l0.117,0.226l0.118,0.226l0.116,0.222l0.119,0.225l0.12,0.224l0.122,0.228l0.12,0.22l0.121,0.223l0.123,0.223l0.121,0.219l0.125,0.225l0.124,0.221l0.123,0.218l0.128,0.224l0.126,0.219l0.127,0.22l0.127,0.219l0.126,0.215l0.131,0.222l0.129,0.218l0.13,0.217l0.131,0.218l0.131,0.216l0.132,0.216l0.132,0.215l0.135,0.219l0.131,0.211l0.135,0.214l0.139,0.22l0.133,0.21l0.136,0.213l0.137,0.213l0.139,0.215l0.138,0.211l0.136,0.208l0.144,0.217l0.137,0.207l0.14,0.209l0.143,0.212l0.142,0.209l0.144,0.212l0.142,0.207l0.141,0.204l0.147,0.21l0.144,0.206l0.145,0.206l0.148,0.209l0.148,0.207l0.144,0.201l0.15,0.207l0.15,0.207l0.144,0.196l0.153,0.208l0.152,0.206l0.153,0.205l0.151,0.2l0.149,0.197l0.151,0.2l0.158,0.205l0.155,0.203l0.151,0.194l0.156,0.202l0.158,0.201l0.155,0.197l0.156,0.196l0.156,0.195l0.159,0.198l0.16,0.198l0.161,0.199l0.161,0.196l0.157,0.191l0.161,0.195l0.162,0.194l0.159,0.19l0.167,0.197l0.167,0.198l0.156,0.183l0.165,0.192l0.169,0.196l0.164,0.189l0.165,0.188l0.167,0.19l0.171,0.193l0.167,0.187l0.163,0.182l0.173,0.192l0.169,0.188l0.169,0.184l0.175,0.191l0.167,0.182l0.17,0.183l0.177,0.189l0.169,0.18l0.172,0.181l0.178,0.188l0.175,0.183l0.175,0.182l0.174,0.18l0.172,0.177l0.179,0.182l0.179,0.182l0.178,0.18l0.179,0.179l0.173,0.173l0.181,0.179l0.185,0.182l0.174,0.171l0.183,0.178l0.186,0.18l0.176,0.17l0.181,0.172l0.187,0.178l0.184,0.174l0.18,0.169l0.185,0.173l0.192,0.178l0.181,0.167l0.182,0.167l0.191,0.174l0.188,0.17l0.183,0.166l0.191,0.17l0.189,0.169l0.185,0.163l0.192,0.169l0.19,0.166l0.194,0.168l0.191,0.166l0.187,0.161l0.195,0.166l0.193,0.164l0.189,0.159l0.196,0.164l0.192,0.16l0.195,0.161l0.198,0.163l0.193,0.158l0.196,0.16l0.198,0.159l0.194,0.157l0.2,0.159l0.201,0.16l0.194,0.152l0.197,0.155l0.202,0.157l0.2,0.155l0.198,0.152l0.204,0.156l0.199,0.151l0.205,0.155l0.203,0.152l0.195,0.146l0.208,0.154l0.204,0.151l0.202,0.147l0.202,0.147l0.208,0.15l0.209,0.15l0.198,0.142l0.209,0.148l0.21,0.148l0.205,0.143l0.205,0.143l0.208,0.144l0.212,0.145l0.21,0.144l0.208,0.141l0.209,0.141l0.208,0.139l0.209,0.138l0.217,0.144l0.215,0.141l0.21,0.137l0.206,0.134l0.217,0.139l0.217,0.139l0.207,0.132l0.213,0.133l0.218,0.137l0.221,0.138l0.207,0.128l0.214,0.131l0.223,0.136l0.216,0.131l0.216,0.13l0.215,0.129l0.218,0.129l0.219,0.129l0.225,0.131l0.217,0.127l0.22,0.127l0.22,0.126l0.219,0.125l0.219,0.124l0.221,0.124l0.222,0.123l0.222,0.123l0.223,0.123l0.222,0.12l0.223,0.122l0.224,0.12l0.225,0.12l0.224,0.119l0.226,0.118l0.225,0.118l0.226,0.117l0.227,0.117l0.225,0.115l0.228,0.115l0.229,0.116l0.222,0.11l0.228,0.113l0.234,0.115l0.223,0.109l0.232,0.112l0.23,0.111l0.224,0.106l0.239,0.114l0.232,0.108l0.224,0.105l0.234,0.107l0.234,0.108l0.226,0.103l0.234,0.105l0.234,0.104l0.234,0.104l0.235,0.104l0.23,0.1l0.237,0.102l0.236,0.102l0.237,0.1l0.231,0.098l0.232,0.096l0.245,0.102l0.238,0.098l0.231,0.094l0.234,0.094l0.24,0.096l0.242,0.096l0.233,0.092l0.24,0.093l0.244,0.094l0.235,0.09l0.235,0.089l0.242,0.091l0.244,0.091l0.244,0.089l0.236,0.087l0.238,0.086l0.247,0.088l0.237,0.084l0.245,0.086l0.248,0.086l0.24,0.082l0.24,0.082l0.248,0.083l0.239,0.08l0.241,0.08l0.257,0.084l0.242,0.078l0.243,0.078l0.243,0.077l0.242,0.075l0.251,0.078l0.252,0.077l0.244,0.074l0.245,0.073l0.252,0.075l0.245,0.072l0.246,0.071l0.246,0.07l0.255,0.072l0.246,0.069l0.248,0.068l0.256,0.07l0.247,0.067l0.248,0.066l0.25,0.065l0.256,0.067l0.25,0.064l0.25,0.063l0.251,0.063l0.251,0.061l0.258,0.063l0.252,0.06l0.251,0.059l0.252,0.059l0.253,0.058l0.254,0.057l0.253,0.057l0.261,0.057l0.254,0.055l0.247,0.053l0.263,0.055l0.255,0.053l0.256,0.051l0.255,0.052l0.257,0.05l0.257,0.05l0.256,0.048l0.265,0.05l0.25,0.046l0.259,0.047l0.258,0.046l0.259,0.044l0.259,0.045l0.259,0.043l0.261,0.043l0.259,0.042l0.261,0.041l0.254,0.039l0.268,0.041l0.262,0.039l0.255,0.036l0.262,0.038l0.263,0.036l0.262,0.035l0.264,0.035l0.264,0.034l0.264,0.034l0.256,0.031l0.265,0.031l0.265,0.031l0.258,0.029l0.273,0.03l0.266,0.029l0.259,0.027l0.26,0.025l0.267,0.026l0.275,0.026l0.26,0.024l0.26,0.022l0.268,0.023l0.27,0.022l0.268,0.021l0.27,0.02l0.262,0.019l0.262,0.017l0.271,0.018l0.271,0.017l0.271,0.016l0.263,0.014l0.272,0.014l0.272,0.014l0.257,0.012l0.273,0.011l0.281,0.011l0.265,0.01l0.266,0.009l0.267,0.008l0.274,0.007l0.275,0.007l0.267,0.005l0.275,0.005l0.268,0.004l0.268,0.003l0.276,0.002l0.277,0.001l0.269,0.001l0.269,-0.001l0.277,-0.001l0.276,-0.002l0.268,-0.003l0.268,-0.004l0.275,-0.005l0.267,-0.005l0.275,-0.007l0.274,-0.007l0.267,-0.008l0.266,-0.009l0.265,-0.01l0.281,-0.011l0.273,-0.011l0.257,-0.012l0.272,-0.014l0.272,-0.014l0.263,-0.014l0.271,-0.016l0.271,-0.017l0.271,-0.018l0.262,-0.017l0.262,-0.019l0.27,-0.02l0.268,-0.021l0.27,-0.022l0.268,-0.023l0.26,-0.022l0.26,-0.024l0.275,-0.026l0.267,-0.026l0.26,-0.025l0.259,-0.027l0.266,-0.029l0.273,-0.03l0.258,-0.029l0.265,-0.031l0.265,-0.031l0.256,-0.031l0.264,-0.034l0.264,-0.034l0.264,-0.035l0.262,-0.035l0.263,-0.036l0.262,-0.038l0.255,-0.036l0.262,-0.039l0.268,-0.041l0.254,-0.039l0.261,-0.041l0.259,-0.042l0.261,-0.043l0.259,-0.043l0.259,-0.045l0.259,-0.044l0.258,-0.046l0.259,-0.047l0.25,-0.046l0.265,-0.05l0.256,-0.048l0.257,-0.05l0.257,-0.05l0.255,-0.052l0.256,-0.051l0.255,-0.053l0.263,-0.055l0.247,-0.053l0.254,-0.055l0.261,-0.057l0.253,-0.057l0.254,-0.057l0.253,-0.058l0.252,-0.059l0.251,-0.059l0.252,-0.06l0.258,-0.063l0.251,-0.061l0.251,-0.063l0.25,-0.063l0.25,-0.064l0.256,-0.067l0.25,-0.065l0.248,-0.066l0.247,-0.067l0.256,-0.07l0.248,-0.068l0.246,-0.069l0.255,-0.072l0.246,-0.07l0.246,-0.071l0.245,-0.072l0.252,-0.075l0.245,-0.073l0.244,-0.074l0.252,-0.077l0.251,-0.078l0.242,-0.075l0.243,-0.077l0.243,-0.078l0.242,-0.078l0.257,-0.084l0.241,-0.08l0.239,-0.08l0.248,-0.083l0.24,-0.082l0.24,-0.082l0.248,-0.086l0.245,-0.086l0.237,-0.084l0.247,-0.088l0.238,-0.086l0.236,-0.087l0.244,-0.089l0.244,-0.091l0.242,-0.091l0.235,-0.089l0.235,-0.09l0.244,-0.094l0.24,-0.093l0.233,-0.092l0.242,-0.096l0.24,-0.096l0.234,-0.094l0.231,-0.094l0.238,-0.098l0.245,-0.102l0.232,-0.096l0.231,-0.098l0.237,-0.1l0.236,-0.102l0.237,-0.102l0.23,-0.1l0.235,-0.104l0.234,-0.104l0.234,-0.104l0.234,-0.105l0.226,-0.103l0.234,-0.108l0.234,-0.107l0.224,-0.105l0.232,-0.108l0.239,-0.114l0.224,-0.106l0.23,-0.111l0.232,-0.112l0.223,-0.109l0.234,-0.115l0.228,-0.113l0.222,-0.11l0.229,-0.116l0.228,-0.115l0.225,-0.115l0.227,-0.117l0.226,-0.117l0.225,-0.118l0.226,-0.118l0.224,-0.119l0.225,-0.12l0.224,-0.12l0.223,-0.122l0.222,-0.12l0.223,-0.123l0.222,-0.123l0.222,-0.123l0.221,-0.124l0.219,-0.124l0.219,-0.125l0.22,-0.126l0.22,-0.127l0.217,-0.127l0.225,-0.131l0.219,-0.129l0.218,-0.129l0.215,-0.129l0.216,-0.13l0.216,-0.131l0.223,-0.136l0.214,-0.131l0.207,-0.128l0.221,-0.138l0.218,-0.137l0.213,-0.133l0.207,-0.132l0.217,-0.139l0.217,-0.139l0.206,-0.134l0.21,-0.137l0.215,-0.141l0.217,-0.144l0.209,-0.138l0.208,-0.139l0.209,-0.141l0.208,-0.141l0.21,-0.144l0.212,-0.145l0.208,-0.144l0.205,-0.143l0.205,-0.143l0.21,-0.148l0.209,-0.148l0.198,-0.142l0.209,-0.15l0.208,-0.15l0.202,-0.147l0.202,-0.147l0.204,-0.151l0.208,-0.154l0.195,-0.146l0.203,-0.152l0.205,-0.155l0.199,-0.151l0.204,-0.156l0.198,-0.152l0.2,-0.155l0.202,-0.157l0.197,-0.155l0.194,-0.152l0.201,-0.16l0.2,-0.159l0.194,-0.157l0.198,-0.159l0.196,-0.16l0.193,-0.158l0.198,-0.163l0.195,-0.161l0.192,-0.16l0.196,-0.164l0.189,-0.159l0.193,-0.164l0.195,-0.166l0.187,-0.161l0.191,-0.166l0.194,-0.168l0.19,-0.166l0.192,-0.169l0.185,-0.163l0.189,-0.169l0.191,-0.17l0.183,-0.166l0.188,-0.17l0.191,-0.174l0.182,-0.167l0.181,-0.167l0.192,-0.178l0.185,-0.173l0.18,-0.169l0.184,-0.174l0.187,-0.178l0.181,-0.172l0.176,-0.17l0.186,-0.18l0.183,-0.178l0.174,-0.171l0.185,-0.182l0.181,-0.179l0.173,-0.173l0.179,-0.179l0.178,-0.18l0.179,-0.182l0.179,-0.182l0.172,-0.177l0.174,-0.18l0.175,-0.182l0.175,-0.183l0.178,-0.188l0.172,-0.181l0.169,-0.18l0.177,-0.189l0.17,-0.183l0.167,-0.182l0.175,-0.191l0.169,-0.184l0.169,-0.188l0.173,-0.192l0.163,-0.182l0.167,-0.187l0.171,-0.193l0.167,-0.19l0.165,-0.188l0.164,-0.189l0.169,-0.196l0.165,-0.192l0.156,-0.183l0.167,-0.198l0.167,-0.197l0.159,-0.19l0.162,-0.194l0.161,-0.195l0.157,-0.191l0.161,-0.196l0.161,-0.199l0.16,-0.198l0.159,-0.198l0.156,-0.195l0.156,-0.196l0.155,-0.197l0.158,-0.201l0.156,-0.202l0.151,-0.194l0.155,-0.203l0.158,-0.205l0.151,-0.2l0.149,-0.197l0.151,-0.2l0.153,-0.205l0.152,-0.206l0.153,-0.208l0.144,-0.196l0.15,-0.207l0.15,-0.207l0.144,-0.201l0.148,-0.207l0.148,-0.209l0.145,-0.206l0.144,-0.206l0.147,-0.21l0.141,-0.204l0.142,-0.207l0.144,-0.212l0.142,-0.209l0.143,-0.212l0.14,-0.209l0.137,-0.207l0.144,-0.217l0.136,-0.208l0.138,-0.211l0.139,-0.215l0.137,-0.213l0.136,-0.213l0.133,-0.21l0.139,-0.22l0.135,-0.214l0.131,-0.211l0.135,-0.219l0.132,-0.215l0.132,-0.216l0.131,-0.216l0.131,-0.218l0.13,-0.217l0.129,-0.218l0.131,-0.222l0.126,-0.215l0.127,-0.219l0.127,-0.22l0.126,-0.219l0.128,-0.224l0.123,-0.218l0.124,-0.221l0.125,-0.225l0.121,-0.219l0.123,-0.223l0.121,-0.223l0.12,-0.22l0.122,-0.228l0.12,-0.224l0.119,-0.225l0.116,-0.222l0.118,-0.226l0.117,-0.226l0.117,-0.226l0.118,-0.231l0.113,-0.223l0.113,-0.225l0.114,-0.228l0.113,-0.229l0.113,-0.229l0.113,-0.233l0.11,-0.226l0.109,-0.227l0.11,-0.231l0.109,-0.231l0.107,-0.228l0.108,-0.232l0.109,-0.236l0.105,-0.229l0.105,-0.23l0.103,-0.23l0.106,-0.237l0.104,-0.235l0.102,-0.231l0.102,-0.235l0.101,-0.233l0.101,-0.235l0.1,-0.237l0.099,-0.234l0.099,-0.237l0.098,-0.237l0.095,-0.231l0.097,-0.238l0.098,-0.242l0.094,-0.236l0.094,-0.237l0.093,-0.236l0.094,-0.243l0.092,-0.237l0.091,-0.238l0.091,-0.242l0.088,-0.235l0.09,-0.242l0.091,-0.245l0.087,-0.24l0.087,-0.24l0.087,-0.243l0.085,-0.241l0.085,-0.241l0.085,-0.245l0.084,-0.244l0.081,-0.239l0.082,-0.243l0.082,-0.247l0.081,-0.246l0.08,-0.243l0.079,-0.244l0.079,-0.247l0.077,-0.245l0.078,-0.248l0.076,-0.245l0.073,-0.24l0.076,-0.249l0.075,-0.253l0.074,-0.248l0.072,-0.246l0.071,-0.247l0.071,-0.247l0.07,-0.249l0.071,-0.253l0.068,-0.248l0.068,-0.249l0.068,-0.252l0.066,-0.247l0.065,-0.25l0.066,-0.253l0.065,-0.253l0.063,-0.25l0.062,-0.249l0.063,-0.256l0.062,-0.255l0.059,-0.248l0.06,-0.252l0.06,-0.259l0.058,-0.253l0.056,-0.25l0.058,-0.257l0.056,-0.254l0.054,-0.253l0.055,-0.259l0.054,-0.255l0.053,-0.255l0.052,-0.256l0.05,-0.254l0.051,-0.257l0.05,-0.257l0.049,-0.259l0.048,-0.257l0.047,-0.256l0.046,-0.257l0.047,-0.263l0.045,-0.26l0.044,-0.255l0.043,-0.26l0.043,-0.26l0.041,-0.256l0.041,-0.261l0.041,-0.263l0.039,-0.258l0.039,-0.263l0.038,-0.262l0.037,-0.258l0.036,-0.263l0.035,-0.263l0.035,-0.263l0.034,-0.264l0.033,-0.26l0.032,-0.26l0.031,-0.265l0.031,-0.265l0.03,-0.266l0.029,-0.262l0.028,-0.262l0.027,-0.266l0.027,-0.267l0.026,-0.264l0.024,-0.262l0.024,-0.268l0.024,-0.265l0.022,-0.265l0.022,-0.269l0.02,-0.268l0.02,-0.266l0.019,-0.266l0.019,-0.266l0.017,-0.271l0.017,-0.267l0.015,-0.267l0.015,-0.272l0.014,-0.263l0.013,-0.269l0.013,-0.272l0.011,-0.269l0.011,-0.269l0.01,-0.27l0.009,-0.269l0.008,-0.274l0.008,-0.271l0.006,-0.267l0.005,-0.271l0.005,-0.275l0.004,-0.272l0.003,-0.268l0.002,-0.272l0.002,-0.273l0,-0.273l0,-0.273l-0.002,-0.273l-0.002,-0.272l-0.003,-0.268l-0.004,-0.272l-0.005,-0.275l-0.005,-0.271l-0.006,-0.267l-0.008,-0.271l-0.008,-0.274l-0.009,-0.269l-0.01,-0.27l-0.011,-0.269l-0.011,-0.269l-0.013,-0.272l-0.013,-0.269l-0.014,-0.263l-0.015,-0.272l-0.015,-0.267l-0.017,-0.267l-0.017,-0.271l-0.019,-0.266l-0.019,-0.266l-0.02,-0.266l-0.02,-0.268l-0.022,-0.269l-0.022,-0.265l-0.024,-0.265l-0.024,-0.268l-0.024,-0.262l-0.026,-0.264l-0.027,-0.267l-0.027,-0.266l-0.028,-0.262l-0.029,-0.262l-0.03,-0.266l-0.031,-0.265l-0.031,-0.265l-0.032,-0.26l-0.033,-0.26l-0.034,-0.264l-0.035,-0.263l-0.035,-0.263l-0.036,-0.263l-0.037,-0.258l-0.038,-0.262l-0.039,-0.263l-0.039,-0.258l-0.041,-0.263l-0.041,-0.261l-0.041,-0.256l-0.043,-0.26l-0.043,-0.26l-0.044,-0.255l-0.045,-0.26l-0.047,-0.263l-0.046,-0.257l-0.047,-0.256l-0.048,-0.257l-0.049,-0.259l-0.05,-0.257l-0.051,-0.257l-0.05,-0.254l-0.052,-0.256l-0.053,-0.255l-0.054,-0.255l-0.055,-0.259l-0.054,-0.253l-0.056,-0.254l-0.058,-0.257l-0.056,-0.25l-0.058,-0.253l-0.06,-0.259l-0.06,-0.252l-0.059,-0.248l-0.062,-0.255l-0.063,-0.256l-0.062,-0.249l-0.063,-0.25l-0.065,-0.253l-0.066,-0.253l-0.065,-0.25l-0.066,-0.247l-0.068,-0.252l-0.068,-0.249l-0.068,-0.248l-0.071,-0.253l-0.07,-0.249l-0.071,-0.247l-0.071,-0.247l-0.072,-0.246l-0.074,-0.248l-0.075,-0.253l-0.076,-0.249l-0.073,-0.24l-0.076,-0.245l-0.078,-0.248l-0.077,-0.245l-0.079,-0.247l-0.079,-0.244l-0.08,-0.243l-0.081,-0.246l-0.082,-0.247l-0.082,-0.243l-0.081,-0.239l-0.084,-0.244l-0.085,-0.245l-0.085,-0.241l-0.085,-0.241l-0.087,-0.243l-0.087,-0.24l-0.087,-0.24l-0.091,-0.245l-0.09,-0.242l-0.088,-0.235l-0.091,-0.242l-0.091,-0.238l-0.092,-0.237l-0.094,-0.243l-0.093,-0.236l-0.094,-0.237l-0.094,-0.236l-0.098,-0.242l-0.097,-0.238l-0.095,-0.231l-0.098,-0.237l-0.099,-0.237l-0.099,-0.234l-0.1,-0.237l-0.101,-0.235l-0.101,-0.233l-0.102,-0.235l-0.102,-0.231l-0.104,-0.235l-0.106,-0.237l-0.103,-0.23l-0.105,-0.23l-0.105,-0.229l-0.109,-0.236l-0.108,-0.232l-0.107,-0.228l-0.109,-0.231l-0.11,-0.231l-0.109,-0.227l-0.11,-0.226l-0.113,-0.233l-0.113,-0.229l-0.113,-0.229l-0.114,-0.228l-0.113,-0.225l-0.113,-0.223l-0.118,-0.231l-0.117,-0.226l-0.117,-0.226l-0.118,-0.226l-0.116,-0.222l-0.119,-0.225l-0.12,-0.224l-0.122,-0.228l-0.12,-0.22l-0.121,-0.223l-0.123,-0.223l-0.121,-0.219l-0.125,-0.225l-0.124,-0.221l-0.123,-0.218l-0.128,-0.224l-0.126,-0.219l-0.127,-0.22l-0.127,-0.219l-0.126,-0.215l-0.131,-0.222l-0.129,-0.218l-0.13,-0.217l-0.131,-0.218l-0.131,-0.216l-0.132,-0.216l-0.132,-0.215l-0.135,-0.219l-0.131,-0.211l-0.135,-0.214l-0.139,-0.22l-0.133,-0.21l-0.136,-0.213l-0.137,-0.213l-0.139,-0.215l-0.138,-0.211l-0.136,-0.208l-0.144,-0.217l-0.137,-0.207l-0.14,-0.209l-0.143,-0.212l-0.142,-0.209l-0.144,-0.212l-0.142,-0.207l-0.141,-0.204l-0.147,-0.21l-0.144,-0.206l-0.145,-0.206l-0.148,-0.209l-0.148,-0.207l-0.144,-0.201l-0.15,-0.207l-0.15,-0.207l-0.144,-0.196l-0.153,-0.208l-0.152,-0.206l-0.153,-0.205l-0.151,-0.2l-0.149,-0.197l-0.151,-0.2l-0.158,-0.205l-0.155,-0.203l-0.151,-0.194l-0.156,-0.202l-0.158,-0.201l-0.155,-0.197l-0.156,-0.196l-0.156,-0.195l-0.159,-0.198l-0.16,-0.198l-0.161,-0.199l-0.161,-0.196l-0.157,-0.191l-0.161,-0.195l-0.162,-0.194l-0.159,-0.19l-0.167,-0.197l-0.167,-0.198l-0.156,-0.183l-0.165,-0.192l-0.169,-0.196l-0.164,-0.189l-0.165,-0.188l-0.167,-0.19l-0.171,-0.193l-0.167,-0.187l-0.163,-0.182l-0.173,-0.192l-0.169,-0.188l-0.169,-0.184l-0.175,-0.191l-0.167,-0.182l-0.17,-0.183l-0.177,-0.189l-0.169,-0.18l-0.172,-0.181l-0.178,-0.188l-0.175,-0.183l-0.175,-0.182l-0.174,-0.18l-0.172,-0.177l-0.179,-0.182l-0.179,-0.182l-0.178,-0.18l-0.179,-0.179l-0.173,-0.173l-0.181,-0.179l-0.185,-0.182l-0.174,-0.171l-0.183,-0.178l-0.186,-0.18l-0.176,-0.17l-0.181,-0.172l-0.187,-0.178l-0.184,-0.174l-0.18,-0.169l-0.185,-0.173l-0.192,-0.178l-0.181,-0.167l-0.182,-0.167l-0.191,-0.174l-0.188,-0.17l-0.183,-0.166l-0.191,-0.17l-0.189,-0.169l-0.185,-0.163l-0.192,-0.169l-0.19,-0.166l-0.194,-0.168l-0.191,-0.166l-0.187,-0.161l-0.195,-0.166l-0.193,-0.164l-0.189,-0.159l-0.196,-0.164l-0.192,-0.16l-0.195,-0.161l-0.198,-0.163l-0.193,-0.158l-0.196,-0.16l-0.198,-0.159l-0.194,-0.157l-0.2,-0.159l-0.201,-0.16l-0.194,-0.152l-0.197,-0.155l-0.202,-0.157l-0.2,-0.155l-0.198,-0.152l-0.204,-0.156l-0.199,-0.151l-0.205,-0.155l-0.203,-0.152l-0.195,-0.146l-0.208,-0.154l-0.204,-0.151l-0.202,-0.147l-0.202,-0.147l-0.208,-0.15l-0.209,-0.15l-0.198,-0.142l-0.209,-0.148l-0.21,-0.148l-0.205,-0.143l-0.205,-0.143l-0.208,-0.144l-0.212,-0.145l-0.21,-0.144l-0.208,-0.141l-0.209,-0.141l-0.208,-0.139l-0.209,-0.138l-0.217,-0.144l-0.215,-0.141l-0.21,-0.137l-0.206,-0.134l-0.217,-0.139l-0.217,-0.139l-0.207,-0.132l-0.213,-0.133l-0.218,-0.137l-0.221,-0.138l-0.207,-0.128l-0.214,-0.131l-0.223,-0.136l-0.216,-0.131l-0.216,-0.13l-0.215,-0.129l-0.218,-0.129l-0.219,-0.129l-0.225,-0.131l-0.217,-0.127l-0.22,-0.127l-0.22,-0.126l-0.219,-0.125l-0.219,-0.124l-0.221,-0.124l-0.222,-0.123l-0.222,-0.123l-0.223,-0.123l-0.222,-0.12l-0.223,-0.122l-0.224,-0.12l-0.225,-0.12l-0.224,-0.119l-0.226,-0.118l-0.225,-0.118l-0.226,-0.117l-0.227,-0.117l-0.225,-0.115l-0.228,-0.115l-0.229,-0.116l-0.222,-0.11l-0.228,-0.113l-0.234,-0.115l-0.223,-0.109l-0.232,-0.112l-0.23,-0.111l-0.224,-0.106l-0.239,-0.114l-0.232,-0.108l-0.224,-0.105l-0.234,-0.107l-0.234,-0.108l-0.226,-0.103l-0.234,-0.105l-0.234,-0.104l-0.234,-0.104l-0.235,-0.104l-0.23,-0.1l-0.237,-0.102l-0.236,-0.102l-0.237,-0.1l-0.231,-0.098l-0.232,-0.096l-0.245,-0.102l-0.238,-0.098l-0.231,-0.094l-0.234,-0.094l-0.24,-0.096l-0.242,-0.096l-0.233,-0.092l-0.24,-0.093l-0.244,-0.094l-0.235,-0.09l-0.235,-0.089l-0.242,-0.091l-0.244,-0.091l-0.244,-0.089l-0.236,-0.087l-0.238,-0.086l-0.247,-0.088l-0.237,-0.084l-0.245,-0.086l-0.248,-0.086l-0.24,-0.082l-0.24,-0.082l-0.248,-0.083l-0.239,-0.08l-0.241,-0.08l-0.257,-0.084l-0.242,-0.078l-0.243,-0.078l-0.243,-0.077l-0.242,-0.075l-0.251,-0.078l-0.252,-0.077l-0.244,-0.074l-0.245,-0.073l-0.252,-0.075l-0.245,-0.072l-0.246,-0.071l-0.246,-0.07l-0.255,-0.072l-0.246,-0.069l-0.248,-0.068l-0.256,-0.07l-0.247,-0.067l-0.248,-0.066l-0.25,-0.065l-0.256,-0.067l-0.25,-0.064l-0.25,-0.063l-0.251,-0.063l-0.251,-0.061l-0.258,-0.063l-0.252,-0.06l-0.251,-0.059l-0.252,-0.059l-0.253,-0.058l-0.254,-0.057l-0.253,-0.057l-0.261,-0.057l-0.254,-0.055l-0.247,-0.053l-0.263,-0.055l-0.255,-0.053l-0.256,-0.051l-0.255,-0.052l-0.257,-0.05l-0.257,-0.05l-0.256,-0.048l-0.265,-0.05l-0.25,-0.046l-0.259,-0.047l-0.258,-0.046l-0.259,-0.044l-0.259,-0.045l-0.259,-0.043l-0.261,-0.043l-0.259,-0.042l-0.261,-0.041l-0.254,-0.039l-0.268,-0.041l-0.262,-0.039l-0.255,-0.036l-0.262,-0.038l-0.263,-0.036l-0.262,-0.035l-0.264,-0.035l-0.264,-0.034l-0.264,-0.034l-0.256,-0.031l-0.265,-0.031l-0.265,-0.031l-0.258,-0.029l-0.273,-0.03l-0.266,-0.029l-0.259,-0.027l-0.26,-0.025l-0.267,-0.026l-0.275,-0.026l-0.26,-0.024l-0.26,-0.022l-0.268,-0.023l-0.27,-0.022l-0.268,-0.021l-0.27,-0.02l-0.262,-0.019l-0.262,-0.017l-0.271,-0.018l-0.271,-0.017l-0.271,-0.016l-0.263,-0.014l-0.272,-0.014l-0.272,-0.014l-0.257,-0.012l-0.273,-0.011l-0.281,-0.011l-0.265,-0.01l-0.266,-0.009l-0.267,-0.008l-0.274,-0.007l-0.275,-0.007l-0.267,-0.005l-0.275,-0.005l-0.268,-0.004l-0.268,-0.003l-0.276,-0.002l-0.277,-0.001l-0.269,-0.001l-0.269,0.001Z" style="fill:#ababab;"/><path d="M108,92l0,-41.98l-16,0l0,41.98l-41.98,0l0,16l41.98,0l0,42l16,0l0,-42l41.98,0l0,-16l-41.98,0Z" style="fill:#ababab;"/></g></g></svg>